G04 #@! TF.FileFunction,Paste,Bot*
%FSLAX46Y46*%
G04 Gerber Fmt 4.6, Leading zero omitted, Abs format (unit mm)*
G04 Created by KiCad (PCBNEW 4.0.7-e2-6376~58~ubuntu16.04.1) date Fri Dec  1 14:53:18 2017*
%MOMM*%
%LPD*%
G01*
G04 APERTURE LIST*
%ADD10C,0.100000*%
%ADD11R,1.500000X1.300000*%
%ADD12R,1.500000X1.250000*%
%ADD13R,2.000000X2.500000*%
%ADD14R,1.300000X1.500000*%
%ADD15R,0.750000X0.350000*%
%ADD16R,1.500000X0.400000*%
%ADD17R,1.700000X1.300000*%
%ADD18R,2.100000X2.600000*%
%ADD19R,1.900000X0.800000*%
G04 APERTURE END LIST*
D10*
D11*
X53150000Y-64100000D03*
X50450000Y-64100000D03*
X53100000Y-56750000D03*
X50400000Y-56750000D03*
X52950000Y-40900000D03*
X50250000Y-40900000D03*
X53050000Y-48300000D03*
X50350000Y-48300000D03*
D12*
X65950000Y-91400000D03*
X68450000Y-91400000D03*
X53907240Y-109500840D03*
X51407240Y-109500840D03*
D11*
X65650000Y-95400000D03*
X68350000Y-95400000D03*
X68350000Y-100200000D03*
X65650000Y-100200000D03*
X53950000Y-106000000D03*
X51250000Y-106000000D03*
X51250000Y-102500000D03*
X53950000Y-102500000D03*
X184577240Y-87820840D03*
X187277240Y-87820840D03*
X179777240Y-70630840D03*
X177077240Y-70630840D03*
D13*
X60997240Y-92390840D03*
X56997240Y-92390840D03*
D11*
X56647240Y-61790840D03*
X59347240Y-61790840D03*
X56647240Y-46190840D03*
X59347240Y-46190840D03*
D14*
X65997240Y-67740840D03*
X65997240Y-65040840D03*
X65997240Y-52140840D03*
X65997240Y-49440840D03*
D15*
X88597240Y-58215840D03*
X88597240Y-58865840D03*
X88597240Y-59515840D03*
X88597240Y-60165840D03*
X92197240Y-58215840D03*
X92197240Y-58865840D03*
X92197240Y-60165840D03*
X92197240Y-59515840D03*
X88597240Y-42615840D03*
X88597240Y-43265840D03*
X88597240Y-43915840D03*
X88597240Y-44565840D03*
X92197240Y-42615840D03*
X92197240Y-43265840D03*
X92197240Y-44565840D03*
X92197240Y-43915840D03*
D16*
X73267240Y-61440840D03*
X73267240Y-60790840D03*
X73267240Y-60140840D03*
X75927240Y-60140840D03*
X75927240Y-61440840D03*
X73267240Y-45840840D03*
X73267240Y-45190840D03*
X73267240Y-44540840D03*
X75927240Y-44540840D03*
X75927240Y-45840840D03*
D17*
X50450000Y-59750000D03*
X50450000Y-61700000D03*
X53150000Y-61700000D03*
X53150000Y-59750000D03*
X50400000Y-43800000D03*
X50400000Y-45750000D03*
X53100000Y-45750000D03*
X53100000Y-43800000D03*
D18*
X93360000Y-101840000D03*
X98260000Y-101840000D03*
X93380000Y-95270000D03*
X98280000Y-95270000D03*
D19*
X63040000Y-61680000D03*
X63040000Y-59780000D03*
X66040000Y-60730000D03*
X63090000Y-46090000D03*
X63090000Y-44190000D03*
X66090000Y-45140000D03*
X184270000Y-77210000D03*
X184270000Y-75310000D03*
X187270000Y-76260000D03*
M02*
