G04 #@! TF.FileFunction,Other,User*
%FSLAX46Y46*%
G04 Gerber Fmt 4.6, Leading zero omitted, Abs format (unit mm)*
G04 Created by KiCad (PCBNEW 4.0.7-e2-6376~58~ubuntu16.04.1) date Fri Dec  1 14:53:18 2017*
%MOMM*%
%LPD*%
G01*
G04 APERTURE LIST*
%ADD10C,0.100000*%
%ADD11C,0.050000*%
G04 APERTURE END LIST*
D10*
D11*
X36507240Y-94190840D02*
X36507240Y-82990840D01*
X36507240Y-82990840D02*
X28057240Y-82990840D01*
X28057240Y-82990840D02*
X28057240Y-94190840D01*
X28057240Y-94190840D02*
X36507240Y-94190840D01*
X37047240Y-71640840D02*
X41747240Y-71640840D01*
X37047240Y-71640840D02*
X37047240Y-73440840D01*
X41747240Y-73440840D02*
X41747240Y-71640840D01*
X41747240Y-73440840D02*
X37047240Y-73440840D01*
X37050000Y-75050000D02*
X41750000Y-75050000D01*
X37050000Y-75050000D02*
X37050000Y-76850000D01*
X41750000Y-76850000D02*
X41750000Y-75050000D01*
X41750000Y-76850000D02*
X37050000Y-76850000D01*
X37847240Y-26890840D02*
X42547240Y-26890840D01*
X37847240Y-26890840D02*
X37847240Y-28690840D01*
X42547240Y-28690840D02*
X42547240Y-26890840D01*
X42547240Y-28690840D02*
X37847240Y-28690840D01*
X37847240Y-23490840D02*
X42547240Y-23490840D01*
X37847240Y-23490840D02*
X37847240Y-25290840D01*
X42547240Y-25290840D02*
X42547240Y-23490840D01*
X42547240Y-25290840D02*
X37847240Y-25290840D01*
X113050000Y-53100000D02*
X110250000Y-53100000D01*
X110250000Y-57900000D02*
X113050000Y-57900000D01*
X110250000Y-57900000D02*
X110250000Y-53100000D01*
X113050000Y-57100000D02*
X113050000Y-53900000D01*
X68300000Y-36200000D02*
X65500000Y-36200000D01*
X65500000Y-41000000D02*
X68300000Y-41000000D01*
X65500000Y-41000000D02*
X65500000Y-36200000D01*
X68300000Y-40200000D02*
X68300000Y-37000000D01*
X73497240Y-36190840D02*
X70697240Y-36190840D01*
X70697240Y-40990840D02*
X73497240Y-40990840D01*
X70697240Y-40990840D02*
X70697240Y-36190840D01*
X73497240Y-40190840D02*
X73497240Y-36990840D01*
X78797240Y-36190840D02*
X75997240Y-36190840D01*
X75997240Y-40990840D02*
X78797240Y-40990840D01*
X75997240Y-40990840D02*
X75997240Y-36190840D01*
X78797240Y-40190840D02*
X78797240Y-36990840D01*
X84297240Y-36190840D02*
X81497240Y-36190840D01*
X81497240Y-40990840D02*
X84297240Y-40990840D01*
X81497240Y-40990840D02*
X81497240Y-36190840D01*
X84297240Y-40190840D02*
X84297240Y-36990840D01*
X50850000Y-55950000D02*
X55550000Y-55950000D01*
X50850000Y-55950000D02*
X50850000Y-57750000D01*
X55550000Y-57750000D02*
X55550000Y-55950000D01*
X55550000Y-57750000D02*
X50850000Y-57750000D01*
X50850000Y-50700000D02*
X55550000Y-50700000D01*
X50850000Y-50700000D02*
X50850000Y-52500000D01*
X55550000Y-52500000D02*
X55550000Y-50700000D01*
X55550000Y-52500000D02*
X50850000Y-52500000D01*
X52350000Y-65950000D02*
X57050000Y-65950000D01*
X52350000Y-65950000D02*
X52350000Y-67750000D01*
X57050000Y-67750000D02*
X57050000Y-65950000D01*
X57050000Y-67750000D02*
X52350000Y-67750000D01*
X52350000Y-60850000D02*
X57050000Y-60850000D01*
X52350000Y-60850000D02*
X52350000Y-62650000D01*
X57050000Y-62650000D02*
X57050000Y-60850000D01*
X57050000Y-62650000D02*
X52350000Y-62650000D01*
X92170000Y-90310000D02*
X98670000Y-90310000D01*
X92170000Y-90310000D02*
X92170000Y-93310000D01*
X98670000Y-93310000D02*
X98670000Y-90310000D01*
X98670000Y-93310000D02*
X92170000Y-93310000D01*
M02*
