G04 #@! TF.FileFunction,Other,Comment*
%FSLAX46Y46*%
G04 Gerber Fmt 4.6, Leading zero omitted, Abs format (unit mm)*
G04 Created by KiCad (PCBNEW 4.0.7-e2-6376~58~ubuntu16.04.1) date Fri Dec  1 14:53:18 2017*
%MOMM*%
%LPD*%
G01*
G04 APERTURE LIST*
%ADD10C,0.100000*%
%ADD11C,0.150000*%
G04 APERTURE END LIST*
D10*
D11*
X182856772Y-121258143D02*
X182809153Y-121305762D01*
X182666296Y-121353381D01*
X182571058Y-121353381D01*
X182428200Y-121305762D01*
X182332962Y-121210524D01*
X182285343Y-121115286D01*
X182237724Y-120924810D01*
X182237724Y-120781952D01*
X182285343Y-120591476D01*
X182332962Y-120496238D01*
X182428200Y-120401000D01*
X182571058Y-120353381D01*
X182666296Y-120353381D01*
X182809153Y-120401000D01*
X182856772Y-120448619D01*
X183713915Y-120353381D02*
X183523438Y-120353381D01*
X183428200Y-120401000D01*
X183380581Y-120448619D01*
X183285343Y-120591476D01*
X183237724Y-120781952D01*
X183237724Y-121162905D01*
X183285343Y-121258143D01*
X183332962Y-121305762D01*
X183428200Y-121353381D01*
X183618677Y-121353381D01*
X183713915Y-121305762D01*
X183761534Y-121258143D01*
X183809153Y-121162905D01*
X183809153Y-120924810D01*
X183761534Y-120829571D01*
X183713915Y-120781952D01*
X183618677Y-120734333D01*
X183428200Y-120734333D01*
X183332962Y-120781952D01*
X183285343Y-120829571D01*
X183237724Y-120924810D01*
X184666296Y-120686714D02*
X184666296Y-121353381D01*
X184428200Y-120305762D02*
X184190105Y-121020048D01*
X184809153Y-121020048D01*
X185142486Y-121067667D02*
X185618677Y-121067667D01*
X185047248Y-121353381D02*
X185380581Y-120353381D01*
X185713915Y-121353381D01*
X186618677Y-121258143D02*
X186571058Y-121305762D01*
X186428201Y-121353381D01*
X186332963Y-121353381D01*
X186190105Y-121305762D01*
X186094867Y-121210524D01*
X186047248Y-121115286D01*
X185999629Y-120924810D01*
X185999629Y-120781952D01*
X186047248Y-120591476D01*
X186094867Y-120496238D01*
X186190105Y-120401000D01*
X186332963Y-120353381D01*
X186428201Y-120353381D01*
X186571058Y-120401000D01*
X186618677Y-120448619D01*
M02*
