G04 #@! TF.FileFunction,Legend,Top*
%FSLAX46Y46*%
G04 Gerber Fmt 4.6, Leading zero omitted, Abs format (unit mm)*
G04 Created by KiCad (PCBNEW 4.0.7-e2-6376~58~ubuntu16.04.1) date Fri Dec  1 14:53:18 2017*
%MOMM*%
%LPD*%
G01*
G04 APERTURE LIST*
%ADD10C,0.100000*%
%ADD11C,0.200000*%
%ADD12C,0.300000*%
%ADD13C,0.150000*%
%ADD14C,0.120000*%
%ADD15C,0.010000*%
%ADD16C,0.125000*%
%ADD17C,0.254000*%
G04 APERTURE END LIST*
D10*
D11*
X163250000Y-29950000D02*
X163300000Y-29950000D01*
X163250000Y-42950000D02*
X163250000Y-29950000D01*
X163450000Y-42950000D02*
X163250000Y-42950000D01*
X185800000Y-42950000D02*
X163450000Y-42950000D01*
X185800000Y-29950000D02*
X185800000Y-42950000D01*
X163250000Y-29950000D02*
X185800000Y-29950000D01*
D12*
X164742857Y-32135714D02*
X164671428Y-32207143D01*
X164457142Y-32278571D01*
X164314285Y-32278571D01*
X164100000Y-32207143D01*
X163957142Y-32064286D01*
X163885714Y-31921429D01*
X163814285Y-31635714D01*
X163814285Y-31421429D01*
X163885714Y-31135714D01*
X163957142Y-30992857D01*
X164100000Y-30850000D01*
X164314285Y-30778571D01*
X164457142Y-30778571D01*
X164671428Y-30850000D01*
X164742857Y-30921429D01*
X165600000Y-32278571D02*
X165457142Y-32207143D01*
X165385714Y-32135714D01*
X165314285Y-31992857D01*
X165314285Y-31564286D01*
X165385714Y-31421429D01*
X165457142Y-31350000D01*
X165600000Y-31278571D01*
X165814285Y-31278571D01*
X165957142Y-31350000D01*
X166028571Y-31421429D01*
X166100000Y-31564286D01*
X166100000Y-31992857D01*
X166028571Y-32135714D01*
X165957142Y-32207143D01*
X165814285Y-32278571D01*
X165600000Y-32278571D01*
X167385714Y-31278571D02*
X167385714Y-32278571D01*
X166742857Y-31278571D02*
X166742857Y-32064286D01*
X166814285Y-32207143D01*
X166957143Y-32278571D01*
X167171428Y-32278571D01*
X167314285Y-32207143D01*
X167385714Y-32135714D01*
X168100000Y-31278571D02*
X168100000Y-32278571D01*
X168100000Y-31421429D02*
X168171428Y-31350000D01*
X168314286Y-31278571D01*
X168528571Y-31278571D01*
X168671428Y-31350000D01*
X168742857Y-31492857D01*
X168742857Y-32278571D01*
X169242857Y-31278571D02*
X169814286Y-31278571D01*
X169457143Y-30778571D02*
X169457143Y-32064286D01*
X169528571Y-32207143D01*
X169671429Y-32278571D01*
X169814286Y-32278571D01*
X170314286Y-32278571D02*
X170314286Y-31278571D01*
X170314286Y-30778571D02*
X170242857Y-30850000D01*
X170314286Y-30921429D01*
X170385714Y-30850000D01*
X170314286Y-30778571D01*
X170314286Y-30921429D01*
X171028572Y-31278571D02*
X171028572Y-32278571D01*
X171028572Y-31421429D02*
X171100000Y-31350000D01*
X171242858Y-31278571D01*
X171457143Y-31278571D01*
X171600000Y-31350000D01*
X171671429Y-31492857D01*
X171671429Y-32278571D01*
X173028572Y-31278571D02*
X173028572Y-32492857D01*
X172957143Y-32635714D01*
X172885715Y-32707143D01*
X172742858Y-32778571D01*
X172528572Y-32778571D01*
X172385715Y-32707143D01*
X173028572Y-32207143D02*
X172885715Y-32278571D01*
X172600001Y-32278571D01*
X172457143Y-32207143D01*
X172385715Y-32135714D01*
X172314286Y-31992857D01*
X172314286Y-31564286D01*
X172385715Y-31421429D01*
X172457143Y-31350000D01*
X172600001Y-31278571D01*
X172885715Y-31278571D01*
X173028572Y-31350000D01*
X173742858Y-32278571D02*
X173742858Y-30778571D01*
X174314286Y-30778571D01*
X174457144Y-30850000D01*
X174528572Y-30921429D01*
X174600001Y-31064286D01*
X174600001Y-31278571D01*
X174528572Y-31421429D01*
X174457144Y-31492857D01*
X174314286Y-31564286D01*
X173742858Y-31564286D01*
X176100001Y-32278571D02*
X175600001Y-31564286D01*
X175242858Y-32278571D02*
X175242858Y-30778571D01*
X175814286Y-30778571D01*
X175957144Y-30850000D01*
X176028572Y-30921429D01*
X176100001Y-31064286D01*
X176100001Y-31278571D01*
X176028572Y-31421429D01*
X175957144Y-31492857D01*
X175814286Y-31564286D01*
X175242858Y-31564286D01*
X176742858Y-30778571D02*
X176742858Y-31992857D01*
X176814286Y-32135714D01*
X176885715Y-32207143D01*
X177028572Y-32278571D01*
X177314286Y-32278571D01*
X177457144Y-32207143D01*
X177528572Y-32135714D01*
X177600001Y-31992857D01*
X177600001Y-30778571D01*
X179457144Y-31707143D02*
X180600001Y-31707143D01*
X182385715Y-30921429D02*
X182457144Y-30850000D01*
X182600001Y-30778571D01*
X182957144Y-30778571D01*
X183100001Y-30850000D01*
X183171430Y-30921429D01*
X183242858Y-31064286D01*
X183242858Y-31207143D01*
X183171430Y-31421429D01*
X182314287Y-32278571D01*
X183242858Y-32278571D01*
X183885715Y-32135714D02*
X183957143Y-32207143D01*
X183885715Y-32278571D01*
X183814286Y-32207143D01*
X183885715Y-32135714D01*
X183885715Y-32278571D01*
X185385715Y-32278571D02*
X184528572Y-32278571D01*
X184957144Y-32278571D02*
X184957144Y-30778571D01*
X184814287Y-30992857D01*
X184671429Y-31135714D01*
X184528572Y-31207143D01*
X165814287Y-34828571D02*
X165814287Y-33328571D01*
X166671430Y-34828571D01*
X166671430Y-33328571D01*
X167600002Y-34828571D02*
X167457144Y-34757143D01*
X167385716Y-34685714D01*
X167314287Y-34542857D01*
X167314287Y-34114286D01*
X167385716Y-33971429D01*
X167457144Y-33900000D01*
X167600002Y-33828571D01*
X167814287Y-33828571D01*
X167957144Y-33900000D01*
X168028573Y-33971429D01*
X168100002Y-34114286D01*
X168100002Y-34542857D01*
X168028573Y-34685714D01*
X167957144Y-34757143D01*
X167814287Y-34828571D01*
X167600002Y-34828571D01*
X168600002Y-33828571D02*
X168957145Y-34828571D01*
X169314287Y-33828571D01*
X170457144Y-34757143D02*
X170314287Y-34828571D01*
X170028573Y-34828571D01*
X169885716Y-34757143D01*
X169814287Y-34614286D01*
X169814287Y-34042857D01*
X169885716Y-33900000D01*
X170028573Y-33828571D01*
X170314287Y-33828571D01*
X170457144Y-33900000D01*
X170528573Y-34042857D01*
X170528573Y-34185714D01*
X169814287Y-34328571D01*
X171171430Y-34828571D02*
X171171430Y-33828571D01*
X171171430Y-33971429D02*
X171242858Y-33900000D01*
X171385716Y-33828571D01*
X171600001Y-33828571D01*
X171742858Y-33900000D01*
X171814287Y-34042857D01*
X171814287Y-34828571D01*
X171814287Y-34042857D02*
X171885716Y-33900000D01*
X172028573Y-33828571D01*
X172242858Y-33828571D01*
X172385716Y-33900000D01*
X172457144Y-34042857D01*
X172457144Y-34828571D01*
X173171430Y-34828571D02*
X173171430Y-33328571D01*
X173171430Y-33900000D02*
X173314287Y-33828571D01*
X173600001Y-33828571D01*
X173742858Y-33900000D01*
X173814287Y-33971429D01*
X173885716Y-34114286D01*
X173885716Y-34542857D01*
X173814287Y-34685714D01*
X173742858Y-34757143D01*
X173600001Y-34828571D01*
X173314287Y-34828571D01*
X173171430Y-34757143D01*
X174528573Y-34828571D02*
X174528573Y-33828571D01*
X174528573Y-34114286D02*
X174600001Y-33971429D01*
X174671430Y-33900000D01*
X174814287Y-33828571D01*
X174957144Y-33828571D01*
X175671430Y-34828571D02*
X175528572Y-34757143D01*
X175457144Y-34685714D01*
X175385715Y-34542857D01*
X175385715Y-34114286D01*
X175457144Y-33971429D01*
X175528572Y-33900000D01*
X175671430Y-33828571D01*
X175885715Y-33828571D01*
X176028572Y-33900000D01*
X176100001Y-33971429D01*
X176171430Y-34114286D01*
X176171430Y-34542857D01*
X176100001Y-34685714D01*
X176028572Y-34757143D01*
X175885715Y-34828571D01*
X175671430Y-34828571D01*
X177885715Y-33257143D02*
X176600001Y-35185714D01*
X178314287Y-33471429D02*
X178385716Y-33400000D01*
X178528573Y-33328571D01*
X178885716Y-33328571D01*
X179028573Y-33400000D01*
X179100002Y-33471429D01*
X179171430Y-33614286D01*
X179171430Y-33757143D01*
X179100002Y-33971429D01*
X178242859Y-34828571D01*
X179171430Y-34828571D01*
X180100001Y-33328571D02*
X180242858Y-33328571D01*
X180385715Y-33400000D01*
X180457144Y-33471429D01*
X180528573Y-33614286D01*
X180600001Y-33900000D01*
X180600001Y-34257143D01*
X180528573Y-34542857D01*
X180457144Y-34685714D01*
X180385715Y-34757143D01*
X180242858Y-34828571D01*
X180100001Y-34828571D01*
X179957144Y-34757143D01*
X179885715Y-34685714D01*
X179814287Y-34542857D01*
X179742858Y-34257143D01*
X179742858Y-33900000D01*
X179814287Y-33614286D01*
X179885715Y-33471429D01*
X179957144Y-33400000D01*
X180100001Y-33328571D01*
X182028572Y-34828571D02*
X181171429Y-34828571D01*
X181600001Y-34828571D02*
X181600001Y-33328571D01*
X181457144Y-33542857D01*
X181314286Y-33685714D01*
X181171429Y-33757143D01*
X182528572Y-33328571D02*
X183528572Y-33328571D01*
X182885715Y-34828571D01*
X165314286Y-35950000D02*
X165171429Y-35878571D01*
X164957143Y-35878571D01*
X164742858Y-35950000D01*
X164600000Y-36092857D01*
X164528572Y-36235714D01*
X164457143Y-36521429D01*
X164457143Y-36735714D01*
X164528572Y-37021429D01*
X164600000Y-37164286D01*
X164742858Y-37307143D01*
X164957143Y-37378571D01*
X165100000Y-37378571D01*
X165314286Y-37307143D01*
X165385715Y-37235714D01*
X165385715Y-36735714D01*
X165100000Y-36735714D01*
X166028572Y-37378571D02*
X166028572Y-36378571D01*
X166028572Y-36664286D02*
X166100000Y-36521429D01*
X166171429Y-36450000D01*
X166314286Y-36378571D01*
X166457143Y-36378571D01*
X167600000Y-36378571D02*
X167600000Y-37378571D01*
X166957143Y-36378571D02*
X166957143Y-37164286D01*
X167028571Y-37307143D01*
X167171429Y-37378571D01*
X167385714Y-37378571D01*
X167528571Y-37307143D01*
X167600000Y-37235714D01*
X168314286Y-36378571D02*
X168314286Y-37878571D01*
X168314286Y-36450000D02*
X168457143Y-36378571D01*
X168742857Y-36378571D01*
X168885714Y-36450000D01*
X168957143Y-36521429D01*
X169028572Y-36664286D01*
X169028572Y-37092857D01*
X168957143Y-37235714D01*
X168885714Y-37307143D01*
X168742857Y-37378571D01*
X168457143Y-37378571D01*
X168314286Y-37307143D01*
X169885715Y-37378571D02*
X169742857Y-37307143D01*
X169671429Y-37235714D01*
X169600000Y-37092857D01*
X169600000Y-36664286D01*
X169671429Y-36521429D01*
X169742857Y-36450000D01*
X169885715Y-36378571D01*
X170100000Y-36378571D01*
X170242857Y-36450000D01*
X170314286Y-36521429D01*
X170385715Y-36664286D01*
X170385715Y-37092857D01*
X170314286Y-37235714D01*
X170242857Y-37307143D01*
X170100000Y-37378571D01*
X169885715Y-37378571D01*
X172814286Y-37378571D02*
X172814286Y-35878571D01*
X172814286Y-37307143D02*
X172671429Y-37378571D01*
X172385715Y-37378571D01*
X172242857Y-37307143D01*
X172171429Y-37235714D01*
X172100000Y-37092857D01*
X172100000Y-36664286D01*
X172171429Y-36521429D01*
X172242857Y-36450000D01*
X172385715Y-36378571D01*
X172671429Y-36378571D01*
X172814286Y-36450000D01*
X174100000Y-37307143D02*
X173957143Y-37378571D01*
X173671429Y-37378571D01*
X173528572Y-37307143D01*
X173457143Y-37164286D01*
X173457143Y-36592857D01*
X173528572Y-36450000D01*
X173671429Y-36378571D01*
X173957143Y-36378571D01*
X174100000Y-36450000D01*
X174171429Y-36592857D01*
X174171429Y-36735714D01*
X173457143Y-36878571D01*
X176814286Y-37235714D02*
X176742857Y-37307143D01*
X176528571Y-37378571D01*
X176385714Y-37378571D01*
X176171429Y-37307143D01*
X176028571Y-37164286D01*
X175957143Y-37021429D01*
X175885714Y-36735714D01*
X175885714Y-36521429D01*
X175957143Y-36235714D01*
X176028571Y-36092857D01*
X176171429Y-35950000D01*
X176385714Y-35878571D01*
X176528571Y-35878571D01*
X176742857Y-35950000D01*
X176814286Y-36021429D01*
X177671429Y-37378571D02*
X177528571Y-37307143D01*
X177457143Y-37235714D01*
X177385714Y-37092857D01*
X177385714Y-36664286D01*
X177457143Y-36521429D01*
X177528571Y-36450000D01*
X177671429Y-36378571D01*
X177885714Y-36378571D01*
X178028571Y-36450000D01*
X178100000Y-36521429D01*
X178171429Y-36664286D01*
X178171429Y-37092857D01*
X178100000Y-37235714D01*
X178028571Y-37307143D01*
X177885714Y-37378571D01*
X177671429Y-37378571D01*
X178814286Y-36378571D02*
X178814286Y-37378571D01*
X178814286Y-36521429D02*
X178885714Y-36450000D01*
X179028572Y-36378571D01*
X179242857Y-36378571D01*
X179385714Y-36450000D01*
X179457143Y-36592857D01*
X179457143Y-37378571D01*
X179957143Y-36378571D02*
X180528572Y-36378571D01*
X180171429Y-35878571D02*
X180171429Y-37164286D01*
X180242857Y-37307143D01*
X180385715Y-37378571D01*
X180528572Y-37378571D01*
X181028572Y-37378571D02*
X181028572Y-36378571D01*
X181028572Y-36664286D02*
X181100000Y-36521429D01*
X181171429Y-36450000D01*
X181314286Y-36378571D01*
X181457143Y-36378571D01*
X182171429Y-37378571D02*
X182028571Y-37307143D01*
X181957143Y-37235714D01*
X181885714Y-37092857D01*
X181885714Y-36664286D01*
X181957143Y-36521429D01*
X182028571Y-36450000D01*
X182171429Y-36378571D01*
X182385714Y-36378571D01*
X182528571Y-36450000D01*
X182600000Y-36521429D01*
X182671429Y-36664286D01*
X182671429Y-37092857D01*
X182600000Y-37235714D01*
X182528571Y-37307143D01*
X182385714Y-37378571D01*
X182171429Y-37378571D01*
X183528572Y-37378571D02*
X183385714Y-37307143D01*
X183314286Y-37164286D01*
X183314286Y-35878571D01*
X184671428Y-37307143D02*
X184528571Y-37378571D01*
X184242857Y-37378571D01*
X184100000Y-37307143D01*
X184028571Y-37164286D01*
X184028571Y-36592857D01*
X184100000Y-36450000D01*
X184242857Y-36378571D01*
X184528571Y-36378571D01*
X184671428Y-36450000D01*
X184742857Y-36592857D01*
X184742857Y-36735714D01*
X184028571Y-36878571D01*
X166742857Y-39928571D02*
X166742857Y-38428571D01*
X167314285Y-38428571D01*
X167457143Y-38500000D01*
X167528571Y-38571429D01*
X167600000Y-38714286D01*
X167600000Y-38928571D01*
X167528571Y-39071429D01*
X167457143Y-39142857D01*
X167314285Y-39214286D01*
X166742857Y-39214286D01*
X168885714Y-39928571D02*
X168885714Y-39142857D01*
X168814285Y-39000000D01*
X168671428Y-38928571D01*
X168385714Y-38928571D01*
X168242857Y-39000000D01*
X168885714Y-39857143D02*
X168742857Y-39928571D01*
X168385714Y-39928571D01*
X168242857Y-39857143D01*
X168171428Y-39714286D01*
X168171428Y-39571429D01*
X168242857Y-39428571D01*
X168385714Y-39357143D01*
X168742857Y-39357143D01*
X168885714Y-39285714D01*
X169385714Y-38928571D02*
X169957143Y-38928571D01*
X169600000Y-38428571D02*
X169600000Y-39714286D01*
X169671428Y-39857143D01*
X169814286Y-39928571D01*
X169957143Y-39928571D01*
X170457143Y-39928571D02*
X170457143Y-38928571D01*
X170457143Y-39214286D02*
X170528571Y-39071429D01*
X170600000Y-39000000D01*
X170742857Y-38928571D01*
X170885714Y-38928571D01*
X171385714Y-39928571D02*
X171385714Y-38928571D01*
X171385714Y-38428571D02*
X171314285Y-38500000D01*
X171385714Y-38571429D01*
X171457142Y-38500000D01*
X171385714Y-38428571D01*
X171385714Y-38571429D01*
X172742857Y-39857143D02*
X172600000Y-39928571D01*
X172314286Y-39928571D01*
X172171428Y-39857143D01*
X172100000Y-39785714D01*
X172028571Y-39642857D01*
X172028571Y-39214286D01*
X172100000Y-39071429D01*
X172171428Y-39000000D01*
X172314286Y-38928571D01*
X172600000Y-38928571D01*
X172742857Y-39000000D01*
X173385714Y-39928571D02*
X173385714Y-38928571D01*
X173385714Y-38428571D02*
X173314285Y-38500000D01*
X173385714Y-38571429D01*
X173457142Y-38500000D01*
X173385714Y-38428571D01*
X173385714Y-38571429D01*
X174742857Y-39928571D02*
X174742857Y-39142857D01*
X174671428Y-39000000D01*
X174528571Y-38928571D01*
X174242857Y-38928571D01*
X174100000Y-39000000D01*
X174742857Y-39857143D02*
X174600000Y-39928571D01*
X174242857Y-39928571D01*
X174100000Y-39857143D01*
X174028571Y-39714286D01*
X174028571Y-39571429D01*
X174100000Y-39428571D01*
X174242857Y-39357143D01*
X174600000Y-39357143D01*
X174742857Y-39285714D01*
X176600000Y-39928571D02*
X176600000Y-38428571D01*
X177457143Y-39928571D01*
X177457143Y-38428571D01*
X178814286Y-39928571D02*
X178814286Y-39142857D01*
X178742857Y-39000000D01*
X178600000Y-38928571D01*
X178314286Y-38928571D01*
X178171429Y-39000000D01*
X178814286Y-39857143D02*
X178671429Y-39928571D01*
X178314286Y-39928571D01*
X178171429Y-39857143D01*
X178100000Y-39714286D01*
X178100000Y-39571429D01*
X178171429Y-39428571D01*
X178314286Y-39357143D01*
X178671429Y-39357143D01*
X178814286Y-39285714D01*
X179742858Y-39928571D02*
X179600000Y-39857143D01*
X179528572Y-39714286D01*
X179528572Y-38428571D01*
X180528572Y-39928571D02*
X180385714Y-39857143D01*
X180314286Y-39714286D01*
X180314286Y-38428571D01*
X181100000Y-39928571D02*
X181100000Y-38928571D01*
X181100000Y-38428571D02*
X181028571Y-38500000D01*
X181100000Y-38571429D01*
X181171428Y-38500000D01*
X181100000Y-38428571D01*
X181100000Y-38571429D01*
X181814286Y-38928571D02*
X181814286Y-39928571D01*
X181814286Y-39071429D02*
X181885714Y-39000000D01*
X182028572Y-38928571D01*
X182242857Y-38928571D01*
X182385714Y-39000000D01*
X182457143Y-39142857D01*
X182457143Y-39928571D01*
X169028572Y-42478571D02*
X168528572Y-41764286D01*
X168171429Y-42478571D02*
X168171429Y-40978571D01*
X168742857Y-40978571D01*
X168885715Y-41050000D01*
X168957143Y-41121429D01*
X169028572Y-41264286D01*
X169028572Y-41478571D01*
X168957143Y-41621429D01*
X168885715Y-41692857D01*
X168742857Y-41764286D01*
X168171429Y-41764286D01*
X169885715Y-42478571D02*
X169742857Y-42407143D01*
X169671429Y-42335714D01*
X169600000Y-42192857D01*
X169600000Y-41764286D01*
X169671429Y-41621429D01*
X169742857Y-41550000D01*
X169885715Y-41478571D01*
X170100000Y-41478571D01*
X170242857Y-41550000D01*
X170314286Y-41621429D01*
X170385715Y-41764286D01*
X170385715Y-42192857D01*
X170314286Y-42335714D01*
X170242857Y-42407143D01*
X170100000Y-42478571D01*
X169885715Y-42478571D01*
X171028572Y-42478571D02*
X171028572Y-40978571D01*
X171028572Y-41550000D02*
X171171429Y-41478571D01*
X171457143Y-41478571D01*
X171600000Y-41550000D01*
X171671429Y-41621429D01*
X171742858Y-41764286D01*
X171742858Y-42192857D01*
X171671429Y-42335714D01*
X171600000Y-42407143D01*
X171457143Y-42478571D01*
X171171429Y-42478571D01*
X171028572Y-42407143D01*
X172957143Y-42407143D02*
X172814286Y-42478571D01*
X172528572Y-42478571D01*
X172385715Y-42407143D01*
X172314286Y-42264286D01*
X172314286Y-41692857D01*
X172385715Y-41550000D01*
X172528572Y-41478571D01*
X172814286Y-41478571D01*
X172957143Y-41550000D01*
X173028572Y-41692857D01*
X173028572Y-41835714D01*
X172314286Y-41978571D01*
X173671429Y-42478571D02*
X173671429Y-41478571D01*
X173671429Y-41764286D02*
X173742857Y-41621429D01*
X173814286Y-41550000D01*
X173957143Y-41478571D01*
X174100000Y-41478571D01*
X174385714Y-41478571D02*
X174957143Y-41478571D01*
X174600000Y-40978571D02*
X174600000Y-42264286D01*
X174671428Y-42407143D01*
X174814286Y-42478571D01*
X174957143Y-42478571D01*
X176600000Y-42478571D02*
X176600000Y-40978571D01*
X177171428Y-40978571D01*
X177314286Y-41050000D01*
X177385714Y-41121429D01*
X177457143Y-41264286D01*
X177457143Y-41478571D01*
X177385714Y-41621429D01*
X177314286Y-41692857D01*
X177171428Y-41764286D01*
X176600000Y-41764286D01*
X178314286Y-42478571D02*
X178171428Y-42407143D01*
X178100000Y-42335714D01*
X178028571Y-42192857D01*
X178028571Y-41764286D01*
X178100000Y-41621429D01*
X178171428Y-41550000D01*
X178314286Y-41478571D01*
X178528571Y-41478571D01*
X178671428Y-41550000D01*
X178742857Y-41621429D01*
X178814286Y-41764286D01*
X178814286Y-42192857D01*
X178742857Y-42335714D01*
X178671428Y-42407143D01*
X178528571Y-42478571D01*
X178314286Y-42478571D01*
X179671429Y-42478571D02*
X179528571Y-42407143D01*
X179457143Y-42264286D01*
X179457143Y-40978571D01*
X180457143Y-42478571D02*
X180314285Y-42407143D01*
X180242857Y-42264286D01*
X180242857Y-40978571D01*
X181028571Y-42478571D02*
X181028571Y-41478571D01*
X181028571Y-40978571D02*
X180957142Y-41050000D01*
X181028571Y-41121429D01*
X181099999Y-41050000D01*
X181028571Y-40978571D01*
X181028571Y-41121429D01*
D13*
X162832240Y-74055840D02*
X161682240Y-74055840D01*
X164133796Y-74355840D02*
G75*
G03X164133796Y-74355840I-201556J0D01*
G01*
X162857240Y-85155840D02*
X170082240Y-85155840D01*
X162857240Y-79030840D02*
X162857240Y-85155840D01*
X162857240Y-74055840D02*
X162857240Y-73930840D01*
X162857240Y-74005840D02*
X162857240Y-79130840D01*
X170082240Y-79680840D02*
X170082240Y-85155840D01*
X162857240Y-73955840D02*
X162857240Y-73480840D01*
X162857240Y-73480840D02*
X170082240Y-73480840D01*
X170082240Y-73480840D02*
X170082240Y-79755840D01*
X50588200Y-114001000D02*
G75*
G03X50588200Y-114001000I-1500000J0D01*
G01*
X178439100Y-25343000D02*
G75*
G03X178439100Y-25343000I-1500000J0D01*
G01*
X178439100Y-113659000D02*
G75*
G03X178439100Y-113659000I-1500000J0D01*
G01*
X50588200Y-25001000D02*
G75*
G03X50588200Y-25001000I-1500000J0D01*
G01*
X189258200Y-114001000D02*
G75*
G03X189258200Y-114001000I-1500000J0D01*
G01*
X189258200Y-25001000D02*
G75*
G03X189258200Y-25001000I-1500000J0D01*
G01*
X191328200Y-119501000D02*
X31328200Y-119501000D01*
X31328200Y-119501000D02*
X31328200Y-19501000D01*
X31328200Y-19501000D02*
X191328200Y-19501000D01*
X191328200Y-19501000D02*
X191328200Y-119501000D01*
X173857240Y-92365840D02*
X173857240Y-94265840D01*
X173857240Y-94265840D02*
X173857240Y-96865840D01*
X173857240Y-96865840D02*
X173857240Y-99815840D01*
X173857240Y-99815840D02*
X173857240Y-104440840D01*
X173857240Y-104440840D02*
X173857240Y-107740840D01*
X173857240Y-107740840D02*
X194582240Y-107740840D01*
X194582240Y-107740840D02*
X194582240Y-92365840D01*
X181632240Y-92365840D02*
X180957240Y-92365840D01*
X180957240Y-92365840D02*
X173857240Y-92365840D01*
X194582240Y-92365840D02*
X181657240Y-92365840D01*
D14*
X174447240Y-92370840D02*
X183437240Y-92380840D01*
X185777240Y-92380840D02*
X192477240Y-92370840D01*
D13*
X143037240Y-112800840D02*
X143037240Y-113600840D01*
X87237240Y-112800840D02*
X87237240Y-113600840D01*
X142562240Y-96800840D02*
X143037240Y-96800840D01*
X143037240Y-96800840D02*
X142437240Y-96800840D01*
X87737240Y-96800840D02*
X87237240Y-96800840D01*
X87237240Y-113600840D02*
X87787240Y-113600840D01*
X87712240Y-96800840D02*
X87812240Y-96800840D01*
X87237240Y-112675840D02*
X87237240Y-112800840D01*
X143037240Y-96800840D02*
X143037240Y-112800840D01*
X143037240Y-113600840D02*
X87812240Y-113600840D01*
X87237240Y-112700840D02*
X87237240Y-111250840D01*
X87237240Y-111225840D02*
X87237240Y-110025840D01*
X87237240Y-110050840D02*
X87237240Y-106975840D01*
X87237240Y-106975840D02*
X87237240Y-99425840D01*
X87237240Y-99525840D02*
X87237240Y-96800840D01*
X87787240Y-96800840D02*
X142512240Y-96800840D01*
X55957240Y-87520840D02*
X68132240Y-87520840D01*
X68132240Y-87520840D02*
X75957240Y-87520840D01*
X75957240Y-87520840D02*
X75957240Y-97220840D01*
X75957240Y-97220840D02*
X58157240Y-97220840D01*
X58157240Y-97220840D02*
X55957240Y-97220840D01*
X55957240Y-97220840D02*
X55957240Y-87545840D01*
X75882240Y-107985840D02*
X55882240Y-107985840D01*
X55882240Y-107985840D02*
X55882240Y-97985840D01*
X55882240Y-97985840D02*
X75882240Y-97985840D01*
X75882240Y-97985840D02*
X75882240Y-107960840D01*
D14*
X33647240Y-93660517D02*
X33647240Y-93735840D01*
X33647240Y-93735840D02*
X32527240Y-93735840D01*
X32527240Y-93735840D02*
X32527240Y-83455840D01*
X32527240Y-83455840D02*
X33647240Y-83455840D01*
X33647240Y-83455840D02*
X33647240Y-83531163D01*
X32527240Y-93300840D02*
X28527240Y-93300840D01*
X28527240Y-93300840D02*
X28527240Y-92780840D01*
X28527240Y-92780840D02*
X32527240Y-92780840D01*
X32527240Y-93240840D02*
X28527240Y-93240840D01*
X32527240Y-93120840D02*
X28527240Y-93120840D01*
X32527240Y-93000840D02*
X28527240Y-93000840D01*
X32527240Y-92880840D02*
X28527240Y-92880840D01*
X33647240Y-92405840D02*
X32527240Y-92405840D01*
X33647240Y-92421163D02*
X33647240Y-92390517D01*
X32527240Y-92030840D02*
X28527240Y-92030840D01*
X28527240Y-92030840D02*
X28527240Y-91510840D01*
X28527240Y-91510840D02*
X32527240Y-91510840D01*
X33647240Y-91135840D02*
X32527240Y-91135840D01*
X33647240Y-91151163D02*
X33647240Y-91120517D01*
X32527240Y-90760840D02*
X28527240Y-90760840D01*
X28527240Y-90760840D02*
X28527240Y-90240840D01*
X28527240Y-90240840D02*
X32527240Y-90240840D01*
X33647240Y-89865840D02*
X32527240Y-89865840D01*
X33647240Y-89881163D02*
X33647240Y-89850517D01*
X32527240Y-89490840D02*
X28527240Y-89490840D01*
X28527240Y-89490840D02*
X28527240Y-88970840D01*
X28527240Y-88970840D02*
X32527240Y-88970840D01*
X33647240Y-88595840D02*
X32527240Y-88595840D01*
X33647240Y-88611163D02*
X33647240Y-88580517D01*
X32527240Y-88220840D02*
X28527240Y-88220840D01*
X28527240Y-88220840D02*
X28527240Y-87700840D01*
X28527240Y-87700840D02*
X32527240Y-87700840D01*
X33647240Y-87325840D02*
X32527240Y-87325840D01*
X33647240Y-87341163D02*
X33647240Y-87310517D01*
X32527240Y-86950840D02*
X28527240Y-86950840D01*
X28527240Y-86950840D02*
X28527240Y-86430840D01*
X28527240Y-86430840D02*
X32527240Y-86430840D01*
X33647240Y-86055840D02*
X32527240Y-86055840D01*
X33647240Y-86071163D02*
X33647240Y-86040517D01*
X32527240Y-85680840D02*
X28527240Y-85680840D01*
X28527240Y-85680840D02*
X28527240Y-85160840D01*
X28527240Y-85160840D02*
X32527240Y-85160840D01*
X33647240Y-84785840D02*
X32527240Y-84785840D01*
X33647240Y-84801163D02*
X33647240Y-84770517D01*
X32527240Y-84410840D02*
X28527240Y-84410840D01*
X28527240Y-84410840D02*
X28527240Y-83890840D01*
X28527240Y-83890840D02*
X32527240Y-83890840D01*
X36117240Y-93040840D02*
X36117240Y-93800840D01*
X36117240Y-93800840D02*
X35357240Y-93800840D01*
D13*
X193257240Y-84780840D02*
X194207240Y-84780840D01*
X193257240Y-81880840D02*
X194207240Y-81880840D01*
X194207240Y-84780840D02*
G75*
G03X195657240Y-83330840I0J1450000D01*
G01*
X195657240Y-83330840D02*
G75*
G03X194207240Y-81880840I-1450000J0D01*
G01*
X190762240Y-82975240D02*
X190762240Y-82086240D01*
X190152640Y-83000640D02*
X191346440Y-83000640D01*
X190787640Y-84804040D02*
X190787640Y-84042040D01*
X190787640Y-84042040D02*
X190203440Y-84042040D01*
X190203440Y-84042040D02*
X191270240Y-84042040D01*
X191270240Y-84042040D02*
X190762240Y-83051440D01*
X190762240Y-83051440D02*
X190203440Y-84016640D01*
X186907240Y-85630840D02*
X193257240Y-85630840D01*
X186907240Y-81030840D02*
X193257240Y-81030840D01*
X186907240Y-85630840D02*
X186907240Y-81030840D01*
X193257240Y-85630840D02*
X193257240Y-81030840D01*
X142797240Y-75465840D02*
X142797240Y-73565840D01*
X142797240Y-73565840D02*
X142797240Y-70965840D01*
X142797240Y-70965840D02*
X142797240Y-68015840D01*
X142797240Y-68015840D02*
X142797240Y-63390840D01*
X142797240Y-63390840D02*
X142797240Y-60090840D01*
X142797240Y-60090840D02*
X122072240Y-60090840D01*
X122072240Y-60090840D02*
X122072240Y-75465840D01*
X135022240Y-75465840D02*
X135697240Y-75465840D01*
X135697240Y-75465840D02*
X142797240Y-75465840D01*
X122072240Y-75465840D02*
X134997240Y-75465840D01*
D14*
X142207240Y-75460840D02*
X133217240Y-75450840D01*
X130877240Y-75450840D02*
X124177240Y-75460840D01*
X39997240Y-73420840D02*
X38797240Y-73420840D01*
X38797240Y-71660840D02*
X39997240Y-71660840D01*
X40000000Y-76830000D02*
X38800000Y-76830000D01*
X38800000Y-75070000D02*
X40000000Y-75070000D01*
X40797240Y-28670840D02*
X39597240Y-28670840D01*
X39597240Y-26910840D02*
X40797240Y-26910840D01*
X40797240Y-25270840D02*
X39597240Y-25270840D01*
X39597240Y-23510840D02*
X40797240Y-23510840D01*
D13*
X60184440Y-53676440D02*
G75*
G03X60184440Y-53676440I-127000J0D01*
G01*
X59854240Y-53371640D02*
X59092240Y-53371640D01*
X59854240Y-55733840D02*
X59854240Y-55606840D01*
X62140240Y-55733840D02*
X62140240Y-55606840D01*
X62140240Y-53244640D02*
X62140240Y-53371640D01*
X59854240Y-53244640D02*
X59854240Y-53371640D01*
X59854240Y-55733840D02*
X62140240Y-55733840D01*
X62140240Y-53244640D02*
X59854240Y-53244640D01*
X60184440Y-48176440D02*
G75*
G03X60184440Y-48176440I-127000J0D01*
G01*
X59854240Y-47871640D02*
X59092240Y-47871640D01*
X59854240Y-50233840D02*
X59854240Y-50106840D01*
X62140240Y-50233840D02*
X62140240Y-50106840D01*
X62140240Y-47744640D02*
X62140240Y-47871640D01*
X59854240Y-47744640D02*
X59854240Y-47871640D01*
X59854240Y-50233840D02*
X62140240Y-50233840D01*
X62140240Y-47744640D02*
X59854240Y-47744640D01*
X60184440Y-64976440D02*
G75*
G03X60184440Y-64976440I-127000J0D01*
G01*
X59854240Y-64671640D02*
X59092240Y-64671640D01*
X59854240Y-67033840D02*
X59854240Y-66906840D01*
X62140240Y-67033840D02*
X62140240Y-66906840D01*
X62140240Y-64544640D02*
X62140240Y-64671640D01*
X59854240Y-64544640D02*
X59854240Y-64671640D01*
X59854240Y-67033840D02*
X62140240Y-67033840D01*
X62140240Y-64544640D02*
X59854240Y-64544640D01*
X60184440Y-59276440D02*
G75*
G03X60184440Y-59276440I-127000J0D01*
G01*
X59854240Y-58971640D02*
X59092240Y-58971640D01*
X59854240Y-61333840D02*
X59854240Y-61206840D01*
X62140240Y-61333840D02*
X62140240Y-61206840D01*
X62140240Y-58844640D02*
X62140240Y-58971640D01*
X59854240Y-58844640D02*
X59854240Y-58971640D01*
X59854240Y-61333840D02*
X62140240Y-61333840D01*
X62140240Y-58844640D02*
X59854240Y-58844640D01*
D14*
X110490000Y-54800000D02*
X110490000Y-56700000D01*
X112810000Y-56200000D02*
X112810000Y-54800000D01*
X65740000Y-37900000D02*
X65740000Y-39800000D01*
X68060000Y-39300000D02*
X68060000Y-37900000D01*
X70937240Y-37890840D02*
X70937240Y-39790840D01*
X73257240Y-39290840D02*
X73257240Y-37890840D01*
X76237240Y-37890840D02*
X76237240Y-39790840D01*
X78557240Y-39290840D02*
X78557240Y-37890840D01*
X81737240Y-37890840D02*
X81737240Y-39790840D01*
X84057240Y-39290840D02*
X84057240Y-37890840D01*
D13*
X43887200Y-66885600D02*
G75*
G03X43887200Y-66885600I-127000J0D01*
G01*
X43557000Y-66580800D02*
X42795000Y-66580800D01*
X43557000Y-68943000D02*
X43557000Y-68816000D01*
X45843000Y-68943000D02*
X45843000Y-68816000D01*
X45843000Y-66453800D02*
X45843000Y-66580800D01*
X43557000Y-66453800D02*
X43557000Y-66580800D01*
X43557000Y-68943000D02*
X45843000Y-68943000D01*
X45843000Y-66453800D02*
X43557000Y-66453800D01*
X43784440Y-30476440D02*
G75*
G03X43784440Y-30476440I-127000J0D01*
G01*
X43454240Y-30171640D02*
X42692240Y-30171640D01*
X43454240Y-32533840D02*
X43454240Y-32406840D01*
X45740240Y-32533840D02*
X45740240Y-32406840D01*
X45740240Y-30044640D02*
X45740240Y-30171640D01*
X43454240Y-30044640D02*
X43454240Y-30171640D01*
X43454240Y-32533840D02*
X45740240Y-32533840D01*
X45740240Y-30044640D02*
X43454240Y-30044640D01*
D15*
G36*
X155664287Y-41564795D02*
X155669937Y-41585488D01*
X155687860Y-41676207D01*
X155707997Y-41815123D01*
X155726056Y-41972552D01*
X155726423Y-41976257D01*
X155742664Y-42120152D01*
X155759204Y-42233088D01*
X155772737Y-42292875D01*
X155773941Y-42295323D01*
X155811517Y-42293959D01*
X155877803Y-42247841D01*
X155886584Y-42239810D01*
X155967171Y-42181416D01*
X156006132Y-42183280D01*
X155993749Y-42234314D01*
X155941231Y-42302153D01*
X155886563Y-42373599D01*
X155872479Y-42421078D01*
X155874706Y-42424501D01*
X155922047Y-42438456D01*
X156029177Y-42455752D01*
X156177961Y-42473742D01*
X156281912Y-42483968D01*
X156489872Y-42503713D01*
X156623016Y-42519446D01*
X156684486Y-42532652D01*
X156677427Y-42544810D01*
X156604981Y-42557405D01*
X156470292Y-42571917D01*
X156468769Y-42572065D01*
X156295103Y-42589439D01*
X156121010Y-42607764D01*
X156006260Y-42620549D01*
X155817289Y-42642564D01*
X155925257Y-42755259D01*
X155992237Y-42841092D01*
X156005054Y-42890823D01*
X155969727Y-42893612D01*
X155892272Y-42838621D01*
X155883481Y-42830505D01*
X155830580Y-42784908D01*
X155794411Y-42772849D01*
X155770076Y-42804153D01*
X155752677Y-42888645D01*
X155737317Y-43036149D01*
X155728473Y-43141455D01*
X155706980Y-43326987D01*
X155679105Y-43442732D01*
X155645891Y-43485825D01*
X155612419Y-43460330D01*
X155597841Y-43404402D01*
X155581498Y-43292141D01*
X155566397Y-43145222D01*
X155563139Y-43105232D01*
X155547231Y-42936215D01*
X155528552Y-42836962D01*
X155502852Y-42799098D01*
X155465880Y-42814248D01*
X155433231Y-42849230D01*
X155376821Y-42898354D01*
X155350292Y-42907846D01*
X155316907Y-42882223D01*
X155328649Y-42820816D01*
X155379358Y-42746812D01*
X155397885Y-42728623D01*
X155479769Y-42654518D01*
X155388115Y-42628769D01*
X155294294Y-42612147D01*
X155162862Y-42599841D01*
X155101077Y-42596873D01*
X154946188Y-42586525D01*
X154792865Y-42567983D01*
X154749385Y-42560515D01*
X154672355Y-42544468D01*
X154648454Y-42533148D01*
X154684742Y-42523081D01*
X154788276Y-42510792D01*
X154866615Y-42502815D01*
X155035889Y-42485185D01*
X155201507Y-42466932D01*
X155310617Y-42454072D01*
X155481081Y-42432818D01*
X155372082Y-42319047D01*
X155305384Y-42233719D01*
X155291127Y-42182892D01*
X155323981Y-42177783D01*
X155398616Y-42229611D01*
X155409724Y-42239810D01*
X155477596Y-42290502D01*
X155519525Y-42297960D01*
X155521672Y-42295323D01*
X155534984Y-42242217D01*
X155551520Y-42135265D01*
X155566441Y-42009076D01*
X155584416Y-41850964D01*
X155603964Y-41702871D01*
X155617210Y-41618307D01*
X155634407Y-41530892D01*
X155647121Y-41514909D01*
X155664287Y-41564795D01*
X155664287Y-41564795D01*
G37*
X155664287Y-41564795D02*
X155669937Y-41585488D01*
X155687860Y-41676207D01*
X155707997Y-41815123D01*
X155726056Y-41972552D01*
X155726423Y-41976257D01*
X155742664Y-42120152D01*
X155759204Y-42233088D01*
X155772737Y-42292875D01*
X155773941Y-42295323D01*
X155811517Y-42293959D01*
X155877803Y-42247841D01*
X155886584Y-42239810D01*
X155967171Y-42181416D01*
X156006132Y-42183280D01*
X155993749Y-42234314D01*
X155941231Y-42302153D01*
X155886563Y-42373599D01*
X155872479Y-42421078D01*
X155874706Y-42424501D01*
X155922047Y-42438456D01*
X156029177Y-42455752D01*
X156177961Y-42473742D01*
X156281912Y-42483968D01*
X156489872Y-42503713D01*
X156623016Y-42519446D01*
X156684486Y-42532652D01*
X156677427Y-42544810D01*
X156604981Y-42557405D01*
X156470292Y-42571917D01*
X156468769Y-42572065D01*
X156295103Y-42589439D01*
X156121010Y-42607764D01*
X156006260Y-42620549D01*
X155817289Y-42642564D01*
X155925257Y-42755259D01*
X155992237Y-42841092D01*
X156005054Y-42890823D01*
X155969727Y-42893612D01*
X155892272Y-42838621D01*
X155883481Y-42830505D01*
X155830580Y-42784908D01*
X155794411Y-42772849D01*
X155770076Y-42804153D01*
X155752677Y-42888645D01*
X155737317Y-43036149D01*
X155728473Y-43141455D01*
X155706980Y-43326987D01*
X155679105Y-43442732D01*
X155645891Y-43485825D01*
X155612419Y-43460330D01*
X155597841Y-43404402D01*
X155581498Y-43292141D01*
X155566397Y-43145222D01*
X155563139Y-43105232D01*
X155547231Y-42936215D01*
X155528552Y-42836962D01*
X155502852Y-42799098D01*
X155465880Y-42814248D01*
X155433231Y-42849230D01*
X155376821Y-42898354D01*
X155350292Y-42907846D01*
X155316907Y-42882223D01*
X155328649Y-42820816D01*
X155379358Y-42746812D01*
X155397885Y-42728623D01*
X155479769Y-42654518D01*
X155388115Y-42628769D01*
X155294294Y-42612147D01*
X155162862Y-42599841D01*
X155101077Y-42596873D01*
X154946188Y-42586525D01*
X154792865Y-42567983D01*
X154749385Y-42560515D01*
X154672355Y-42544468D01*
X154648454Y-42533148D01*
X154684742Y-42523081D01*
X154788276Y-42510792D01*
X154866615Y-42502815D01*
X155035889Y-42485185D01*
X155201507Y-42466932D01*
X155310617Y-42454072D01*
X155481081Y-42432818D01*
X155372082Y-42319047D01*
X155305384Y-42233719D01*
X155291127Y-42182892D01*
X155323981Y-42177783D01*
X155398616Y-42229611D01*
X155409724Y-42239810D01*
X155477596Y-42290502D01*
X155519525Y-42297960D01*
X155521672Y-42295323D01*
X155534984Y-42242217D01*
X155551520Y-42135265D01*
X155566441Y-42009076D01*
X155584416Y-41850964D01*
X155603964Y-41702871D01*
X155617210Y-41618307D01*
X155634407Y-41530892D01*
X155647121Y-41514909D01*
X155664287Y-41564795D01*
G36*
X157627469Y-42167974D02*
X157701775Y-42179448D01*
X157733010Y-42205364D01*
X157738769Y-42243538D01*
X157729826Y-42287936D01*
X157690871Y-42311541D01*
X157603714Y-42320698D01*
X157514077Y-42321905D01*
X157289385Y-42322119D01*
X157553154Y-42480378D01*
X157696533Y-42572537D01*
X157779813Y-42643401D01*
X157814277Y-42703493D01*
X157816923Y-42726349D01*
X157802315Y-42812341D01*
X157750265Y-42867264D01*
X157648436Y-42897025D01*
X157484491Y-42907531D01*
X157437877Y-42907846D01*
X157290445Y-42905901D01*
X157204734Y-42897073D01*
X157164346Y-42876869D01*
X157152884Y-42840797D01*
X157152615Y-42829692D01*
X157160882Y-42786712D01*
X157197387Y-42763039D01*
X157279692Y-42753016D01*
X157396846Y-42751007D01*
X157641077Y-42750477D01*
X157396846Y-42605715D01*
X157264678Y-42522151D01*
X157189366Y-42458032D01*
X157157084Y-42399452D01*
X157152615Y-42360060D01*
X157168143Y-42263587D01*
X157223111Y-42203788D01*
X157330101Y-42173460D01*
X157492585Y-42165384D01*
X157627469Y-42167974D01*
X157627469Y-42167974D01*
G37*
X157627469Y-42167974D02*
X157701775Y-42179448D01*
X157733010Y-42205364D01*
X157738769Y-42243538D01*
X157729826Y-42287936D01*
X157690871Y-42311541D01*
X157603714Y-42320698D01*
X157514077Y-42321905D01*
X157289385Y-42322119D01*
X157553154Y-42480378D01*
X157696533Y-42572537D01*
X157779813Y-42643401D01*
X157814277Y-42703493D01*
X157816923Y-42726349D01*
X157802315Y-42812341D01*
X157750265Y-42867264D01*
X157648436Y-42897025D01*
X157484491Y-42907531D01*
X157437877Y-42907846D01*
X157290445Y-42905901D01*
X157204734Y-42897073D01*
X157164346Y-42876869D01*
X157152884Y-42840797D01*
X157152615Y-42829692D01*
X157160882Y-42786712D01*
X157197387Y-42763039D01*
X157279692Y-42753016D01*
X157396846Y-42751007D01*
X157641077Y-42750477D01*
X157396846Y-42605715D01*
X157264678Y-42522151D01*
X157189366Y-42458032D01*
X157157084Y-42399452D01*
X157152615Y-42360060D01*
X157168143Y-42263587D01*
X157223111Y-42203788D01*
X157330101Y-42173460D01*
X157492585Y-42165384D01*
X157627469Y-42167974D01*
G36*
X158233411Y-42167962D02*
X158261954Y-42185455D01*
X158277635Y-42232504D01*
X158284307Y-42323746D01*
X158285821Y-42473821D01*
X158285846Y-42536615D01*
X158285168Y-42708593D01*
X158280564Y-42817056D01*
X158268183Y-42876644D01*
X158244172Y-42901996D01*
X158204678Y-42907752D01*
X158188154Y-42907846D01*
X158142896Y-42905268D01*
X158114353Y-42887774D01*
X158098672Y-42840726D01*
X158092001Y-42749484D01*
X158090486Y-42599409D01*
X158090461Y-42536615D01*
X158091140Y-42364637D01*
X158095743Y-42256174D01*
X158108124Y-42196586D01*
X158132136Y-42171233D01*
X158171629Y-42165478D01*
X158188154Y-42165384D01*
X158233411Y-42167962D01*
X158233411Y-42167962D01*
G37*
X158233411Y-42167962D02*
X158261954Y-42185455D01*
X158277635Y-42232504D01*
X158284307Y-42323746D01*
X158285821Y-42473821D01*
X158285846Y-42536615D01*
X158285168Y-42708593D01*
X158280564Y-42817056D01*
X158268183Y-42876644D01*
X158244172Y-42901996D01*
X158204678Y-42907752D01*
X158188154Y-42907846D01*
X158142896Y-42905268D01*
X158114353Y-42887774D01*
X158098672Y-42840726D01*
X158092001Y-42749484D01*
X158090486Y-42599409D01*
X158090461Y-42536615D01*
X158091140Y-42364637D01*
X158095743Y-42256174D01*
X158108124Y-42196586D01*
X158132136Y-42171233D01*
X158171629Y-42165478D01*
X158188154Y-42165384D01*
X158233411Y-42167962D01*
G36*
X159034238Y-42167974D02*
X159108545Y-42179448D01*
X159139779Y-42205364D01*
X159145538Y-42243538D01*
X159136210Y-42288703D01*
X159095876Y-42312231D01*
X159006016Y-42320858D01*
X158930615Y-42321692D01*
X158715692Y-42321692D01*
X158715692Y-42614769D01*
X158713846Y-42764615D01*
X158705429Y-42852536D01*
X158686122Y-42894728D01*
X158651607Y-42907386D01*
X158637538Y-42907846D01*
X158599171Y-42901532D01*
X158575907Y-42872288D01*
X158564023Y-42804660D01*
X158559796Y-42683196D01*
X158559385Y-42583507D01*
X158565283Y-42402362D01*
X158581900Y-42273926D01*
X158606277Y-42212276D01*
X158669803Y-42186708D01*
X158786700Y-42169891D01*
X158899354Y-42165384D01*
X159034238Y-42167974D01*
X159034238Y-42167974D01*
G37*
X159034238Y-42167974D02*
X159108545Y-42179448D01*
X159139779Y-42205364D01*
X159145538Y-42243538D01*
X159136210Y-42288703D01*
X159095876Y-42312231D01*
X159006016Y-42320858D01*
X158930615Y-42321692D01*
X158715692Y-42321692D01*
X158715692Y-42614769D01*
X158713846Y-42764615D01*
X158705429Y-42852536D01*
X158686122Y-42894728D01*
X158651607Y-42907386D01*
X158637538Y-42907846D01*
X158599171Y-42901532D01*
X158575907Y-42872288D01*
X158564023Y-42804660D01*
X158559796Y-42683196D01*
X158559385Y-42583507D01*
X158565283Y-42402362D01*
X158581900Y-42273926D01*
X158606277Y-42212276D01*
X158669803Y-42186708D01*
X158786700Y-42169891D01*
X158899354Y-42165384D01*
X159034238Y-42167974D01*
G36*
X159562026Y-42167962D02*
X159590569Y-42185455D01*
X159606251Y-42232504D01*
X159612922Y-42323746D01*
X159614437Y-42473821D01*
X159614461Y-42536615D01*
X159613783Y-42708593D01*
X159609179Y-42817056D01*
X159596798Y-42876644D01*
X159572787Y-42901996D01*
X159533294Y-42907752D01*
X159516769Y-42907846D01*
X159471512Y-42905268D01*
X159442969Y-42887774D01*
X159427288Y-42840726D01*
X159420616Y-42749484D01*
X159419102Y-42599409D01*
X159419077Y-42536615D01*
X159419755Y-42364637D01*
X159424359Y-42256174D01*
X159436740Y-42196586D01*
X159460751Y-42171233D01*
X159500244Y-42165478D01*
X159516769Y-42165384D01*
X159562026Y-42167962D01*
X159562026Y-42167962D01*
G37*
X159562026Y-42167962D02*
X159590569Y-42185455D01*
X159606251Y-42232504D01*
X159612922Y-42323746D01*
X159614437Y-42473821D01*
X159614461Y-42536615D01*
X159613783Y-42708593D01*
X159609179Y-42817056D01*
X159596798Y-42876644D01*
X159572787Y-42901996D01*
X159533294Y-42907752D01*
X159516769Y-42907846D01*
X159471512Y-42905268D01*
X159442969Y-42887774D01*
X159427288Y-42840726D01*
X159420616Y-42749484D01*
X159419102Y-42599409D01*
X159419077Y-42536615D01*
X159419755Y-42364637D01*
X159424359Y-42256174D01*
X159436740Y-42196586D01*
X159460751Y-42171233D01*
X159500244Y-42165478D01*
X159516769Y-42165384D01*
X159562026Y-42167962D01*
G36*
X160512521Y-42171698D02*
X160535785Y-42200942D01*
X160547669Y-42268570D01*
X160551896Y-42390033D01*
X160552308Y-42489723D01*
X160546409Y-42670868D01*
X160529792Y-42799304D01*
X160505415Y-42860953D01*
X160446323Y-42883101D01*
X160336520Y-42898859D01*
X160202108Y-42907308D01*
X160069189Y-42907526D01*
X159963863Y-42898596D01*
X159914051Y-42881794D01*
X159902392Y-42833406D01*
X159893429Y-42726289D01*
X159888523Y-42579856D01*
X159888000Y-42510564D01*
X159889352Y-42345317D01*
X159895676Y-42243202D01*
X159910367Y-42189211D01*
X159936824Y-42168336D01*
X159966154Y-42165384D01*
X160006113Y-42172306D01*
X160029558Y-42203870D01*
X160040810Y-42276271D01*
X160044185Y-42405705D01*
X160044308Y-42458461D01*
X160044308Y-42751538D01*
X160396000Y-42751538D01*
X160396000Y-42458461D01*
X160397846Y-42308614D01*
X160406263Y-42220693D01*
X160425570Y-42178502D01*
X160460086Y-42165844D01*
X160474154Y-42165384D01*
X160512521Y-42171698D01*
X160512521Y-42171698D01*
G37*
X160512521Y-42171698D02*
X160535785Y-42200942D01*
X160547669Y-42268570D01*
X160551896Y-42390033D01*
X160552308Y-42489723D01*
X160546409Y-42670868D01*
X160529792Y-42799304D01*
X160505415Y-42860953D01*
X160446323Y-42883101D01*
X160336520Y-42898859D01*
X160202108Y-42907308D01*
X160069189Y-42907526D01*
X159963863Y-42898596D01*
X159914051Y-42881794D01*
X159902392Y-42833406D01*
X159893429Y-42726289D01*
X159888523Y-42579856D01*
X159888000Y-42510564D01*
X159889352Y-42345317D01*
X159895676Y-42243202D01*
X159910367Y-42189211D01*
X159936824Y-42168336D01*
X159966154Y-42165384D01*
X160006113Y-42172306D01*
X160029558Y-42203870D01*
X160040810Y-42276271D01*
X160044185Y-42405705D01*
X160044308Y-42458461D01*
X160044308Y-42751538D01*
X160396000Y-42751538D01*
X160396000Y-42458461D01*
X160397846Y-42308614D01*
X160406263Y-42220693D01*
X160425570Y-42178502D01*
X160460086Y-42165844D01*
X160474154Y-42165384D01*
X160512521Y-42171698D01*
G36*
X161300700Y-42167974D02*
X161375006Y-42179448D01*
X161406240Y-42205364D01*
X161412000Y-42243538D01*
X161403057Y-42287936D01*
X161364102Y-42311541D01*
X161276945Y-42320698D01*
X161187308Y-42321905D01*
X160962615Y-42322119D01*
X161226385Y-42480378D01*
X161369764Y-42572537D01*
X161453044Y-42643401D01*
X161487508Y-42703493D01*
X161490154Y-42726349D01*
X161475545Y-42812341D01*
X161423495Y-42867264D01*
X161321667Y-42897025D01*
X161157722Y-42907531D01*
X161111108Y-42907846D01*
X160963676Y-42905901D01*
X160877964Y-42897073D01*
X160837576Y-42876869D01*
X160826115Y-42840797D01*
X160825846Y-42829692D01*
X160834112Y-42786712D01*
X160870618Y-42763039D01*
X160952923Y-42753016D01*
X161070077Y-42751007D01*
X161314308Y-42750477D01*
X161070077Y-42605715D01*
X160937909Y-42522151D01*
X160862597Y-42458032D01*
X160830315Y-42399452D01*
X160825846Y-42360060D01*
X160841373Y-42263587D01*
X160896342Y-42203788D01*
X161003332Y-42173460D01*
X161165815Y-42165384D01*
X161300700Y-42167974D01*
X161300700Y-42167974D01*
G37*
X161300700Y-42167974D02*
X161375006Y-42179448D01*
X161406240Y-42205364D01*
X161412000Y-42243538D01*
X161403057Y-42287936D01*
X161364102Y-42311541D01*
X161276945Y-42320698D01*
X161187308Y-42321905D01*
X160962615Y-42322119D01*
X161226385Y-42480378D01*
X161369764Y-42572537D01*
X161453044Y-42643401D01*
X161487508Y-42703493D01*
X161490154Y-42726349D01*
X161475545Y-42812341D01*
X161423495Y-42867264D01*
X161321667Y-42897025D01*
X161157722Y-42907531D01*
X161111108Y-42907846D01*
X160963676Y-42905901D01*
X160877964Y-42897073D01*
X160837576Y-42876869D01*
X160826115Y-42840797D01*
X160825846Y-42829692D01*
X160834112Y-42786712D01*
X160870618Y-42763039D01*
X160952923Y-42753016D01*
X161070077Y-42751007D01*
X161314308Y-42750477D01*
X161070077Y-42605715D01*
X160937909Y-42522151D01*
X160862597Y-42458032D01*
X160830315Y-42399452D01*
X160825846Y-42360060D01*
X160841373Y-42263587D01*
X160896342Y-42203788D01*
X161003332Y-42173460D01*
X161165815Y-42165384D01*
X161300700Y-42167974D01*
G36*
X155276923Y-42106769D02*
X155257385Y-42126307D01*
X155237846Y-42106769D01*
X155257385Y-42087230D01*
X155276923Y-42106769D01*
X155276923Y-42106769D01*
G37*
X155276923Y-42106769D02*
X155257385Y-42126307D01*
X155237846Y-42106769D01*
X155257385Y-42087230D01*
X155276923Y-42106769D01*
G36*
X158264760Y-41753855D02*
X158285846Y-41813692D01*
X158262950Y-41874977D01*
X158188154Y-41891846D01*
X158111547Y-41873529D01*
X158090461Y-41813692D01*
X158113358Y-41752406D01*
X158188154Y-41735538D01*
X158264760Y-41753855D01*
X158264760Y-41753855D01*
G37*
X158264760Y-41753855D02*
X158285846Y-41813692D01*
X158262950Y-41874977D01*
X158188154Y-41891846D01*
X158111547Y-41873529D01*
X158090461Y-41813692D01*
X158113358Y-41752406D01*
X158188154Y-41735538D01*
X158264760Y-41753855D01*
G36*
X159593376Y-41753855D02*
X159614461Y-41813692D01*
X159591565Y-41874977D01*
X159516769Y-41891846D01*
X159440162Y-41873529D01*
X159419077Y-41813692D01*
X159441973Y-41752406D01*
X159516769Y-41735538D01*
X159593376Y-41753855D01*
X159593376Y-41753855D01*
G37*
X159593376Y-41753855D02*
X159614461Y-41813692D01*
X159591565Y-41874977D01*
X159516769Y-41891846D01*
X159440162Y-41873529D01*
X159419077Y-41813692D01*
X159441973Y-41752406D01*
X159516769Y-41735538D01*
X159593376Y-41753855D01*
G36*
X161607385Y-41344769D02*
X146953538Y-41344769D01*
X146953538Y-41032153D01*
X161607385Y-41032153D01*
X161607385Y-41344769D01*
X161607385Y-41344769D01*
G37*
X161607385Y-41344769D02*
X146953538Y-41344769D01*
X146953538Y-41032153D01*
X161607385Y-41032153D01*
X161607385Y-41344769D01*
G36*
X147617846Y-39197314D02*
X147617575Y-39477233D01*
X147623148Y-39688666D01*
X147644144Y-39841193D01*
X147690142Y-39944394D01*
X147770723Y-40007848D01*
X147895465Y-40041135D01*
X148073948Y-40053833D01*
X148315752Y-40055523D01*
X148475762Y-40055230D01*
X149141846Y-40055230D01*
X149141846Y-40406923D01*
X148309972Y-40406923D01*
X148032105Y-40406482D01*
X147820390Y-40404461D01*
X147662830Y-40399811D01*
X147547424Y-40391483D01*
X147462174Y-40378430D01*
X147395081Y-40359602D01*
X147334145Y-40333952D01*
X147303741Y-40319000D01*
X147154519Y-40217041D01*
X147050068Y-40073370D01*
X147041461Y-40056720D01*
X147009227Y-39987245D01*
X146985966Y-39917052D01*
X146970230Y-39832154D01*
X146960574Y-39718570D01*
X146955551Y-39562315D01*
X146953715Y-39349405D01*
X146953538Y-39206796D01*
X146953538Y-38531230D01*
X147617846Y-38531230D01*
X147617846Y-39197314D01*
X147617846Y-39197314D01*
G37*
X147617846Y-39197314D02*
X147617575Y-39477233D01*
X147623148Y-39688666D01*
X147644144Y-39841193D01*
X147690142Y-39944394D01*
X147770723Y-40007848D01*
X147895465Y-40041135D01*
X148073948Y-40053833D01*
X148315752Y-40055523D01*
X148475762Y-40055230D01*
X149141846Y-40055230D01*
X149141846Y-40406923D01*
X148309972Y-40406923D01*
X148032105Y-40406482D01*
X147820390Y-40404461D01*
X147662830Y-40399811D01*
X147547424Y-40391483D01*
X147462174Y-40378430D01*
X147395081Y-40359602D01*
X147334145Y-40333952D01*
X147303741Y-40319000D01*
X147154519Y-40217041D01*
X147050068Y-40073370D01*
X147041461Y-40056720D01*
X147009227Y-39987245D01*
X146985966Y-39917052D01*
X146970230Y-39832154D01*
X146960574Y-39718570D01*
X146955551Y-39562315D01*
X146953715Y-39349405D01*
X146953538Y-39206796D01*
X146953538Y-38531230D01*
X147617846Y-38531230D01*
X147617846Y-39197314D01*
G36*
X153401231Y-40406923D02*
X152835478Y-40406923D01*
X152200047Y-39772367D01*
X151564615Y-39137811D01*
X151564615Y-40406923D01*
X150939385Y-40406923D01*
X150939385Y-38531230D01*
X151203154Y-38532116D01*
X151466923Y-38533003D01*
X152736923Y-39749827D01*
X152736923Y-38531230D01*
X153401231Y-38531230D01*
X153401231Y-40406923D01*
X153401231Y-40406923D01*
G37*
X153401231Y-40406923D02*
X152835478Y-40406923D01*
X152200047Y-39772367D01*
X151564615Y-39137811D01*
X151564615Y-40406923D01*
X150939385Y-40406923D01*
X150939385Y-38531230D01*
X151203154Y-38532116D01*
X151466923Y-38533003D01*
X152736923Y-39749827D01*
X152736923Y-38531230D01*
X153401231Y-38531230D01*
X153401231Y-40406923D01*
G36*
X155980308Y-39197314D02*
X155980667Y-39440149D01*
X155982798Y-39617373D01*
X155988279Y-39741531D01*
X155998689Y-39825167D01*
X156015607Y-39880823D01*
X156040612Y-39921044D01*
X156075284Y-39958374D01*
X156076224Y-39959314D01*
X156113636Y-39994231D01*
X156153646Y-40019444D01*
X156208798Y-40036534D01*
X156291635Y-40047078D01*
X156414702Y-40052656D01*
X156590541Y-40054847D01*
X156831696Y-40055230D01*
X157504308Y-40055230D01*
X157504308Y-40406923D01*
X156672434Y-40406923D01*
X156394566Y-40406482D01*
X156182852Y-40404461D01*
X156025291Y-40399811D01*
X155909886Y-40391483D01*
X155824636Y-40378430D01*
X155757542Y-40359602D01*
X155696607Y-40333952D01*
X155666203Y-40319000D01*
X155516981Y-40217041D01*
X155412529Y-40073370D01*
X155403923Y-40056720D01*
X155371689Y-39987245D01*
X155348427Y-39917052D01*
X155332692Y-39832154D01*
X155323036Y-39718570D01*
X155318013Y-39562315D01*
X155316176Y-39349405D01*
X155316000Y-39206796D01*
X155316000Y-38531230D01*
X155980308Y-38531230D01*
X155980308Y-39197314D01*
X155980308Y-39197314D01*
G37*
X155980308Y-39197314D02*
X155980667Y-39440149D01*
X155982798Y-39617373D01*
X155988279Y-39741531D01*
X155998689Y-39825167D01*
X156015607Y-39880823D01*
X156040612Y-39921044D01*
X156075284Y-39958374D01*
X156076224Y-39959314D01*
X156113636Y-39994231D01*
X156153646Y-40019444D01*
X156208798Y-40036534D01*
X156291635Y-40047078D01*
X156414702Y-40052656D01*
X156590541Y-40054847D01*
X156831696Y-40055230D01*
X157504308Y-40055230D01*
X157504308Y-40406923D01*
X156672434Y-40406923D01*
X156394566Y-40406482D01*
X156182852Y-40404461D01*
X156025291Y-40399811D01*
X155909886Y-40391483D01*
X155824636Y-40378430D01*
X155757542Y-40359602D01*
X155696607Y-40333952D01*
X155666203Y-40319000D01*
X155516981Y-40217041D01*
X155412529Y-40073370D01*
X155403923Y-40056720D01*
X155371689Y-39987245D01*
X155348427Y-39917052D01*
X155332692Y-39832154D01*
X155323036Y-39718570D01*
X155318013Y-39562315D01*
X155316176Y-39349405D01*
X155316000Y-39206796D01*
X155316000Y-38531230D01*
X155980308Y-38531230D01*
X155980308Y-39197314D01*
G36*
X161451077Y-38882923D02*
X159889802Y-38882923D01*
X159827508Y-38977994D01*
X159792442Y-39089362D01*
X159829325Y-39190732D01*
X159932087Y-39267541D01*
X159951535Y-39275562D01*
X160024185Y-39288672D01*
X160158443Y-39299778D01*
X160337770Y-39307986D01*
X160545629Y-39312403D01*
X160642775Y-39312915D01*
X160876338Y-39314018D01*
X161046130Y-39318241D01*
X161166517Y-39327154D01*
X161251864Y-39342329D01*
X161316540Y-39365335D01*
X161365505Y-39391924D01*
X161497880Y-39515042D01*
X161578549Y-39678998D01*
X161603122Y-39862428D01*
X161567208Y-40043967D01*
X161518682Y-40137375D01*
X161461585Y-40216431D01*
X161401662Y-40278354D01*
X161328969Y-40325224D01*
X161233561Y-40359121D01*
X161105493Y-40382122D01*
X160934823Y-40396309D01*
X160711604Y-40403760D01*
X160425893Y-40406555D01*
X160229923Y-40406862D01*
X159301846Y-40406923D01*
X159301846Y-40055230D01*
X160057790Y-40055230D01*
X160321521Y-40054621D01*
X160518186Y-40052150D01*
X160658866Y-40046852D01*
X160754643Y-40037762D01*
X160816599Y-40023915D01*
X160855816Y-40004347D01*
X160878405Y-39983769D01*
X160936508Y-39873833D01*
X160924101Y-39764954D01*
X160856228Y-39686215D01*
X160806730Y-39662108D01*
X160730062Y-39645015D01*
X160614211Y-39633901D01*
X160447161Y-39627728D01*
X160216899Y-39625462D01*
X160150903Y-39625384D01*
X159879027Y-39622982D01*
X159673023Y-39613620D01*
X159520699Y-39594069D01*
X159409862Y-39561097D01*
X159328318Y-39511473D01*
X159263876Y-39441966D01*
X159222110Y-39379256D01*
X159160707Y-39214272D01*
X159149104Y-39025259D01*
X159187466Y-38846776D01*
X159219225Y-38782103D01*
X159268871Y-38709156D01*
X159324941Y-38651815D01*
X159396981Y-38608221D01*
X159494540Y-38576518D01*
X159627166Y-38554850D01*
X159804406Y-38541360D01*
X160035808Y-38534192D01*
X160330921Y-38531488D01*
X160509367Y-38531230D01*
X161451077Y-38531230D01*
X161451077Y-38882923D01*
X161451077Y-38882923D01*
G37*
X161451077Y-38882923D02*
X159889802Y-38882923D01*
X159827508Y-38977994D01*
X159792442Y-39089362D01*
X159829325Y-39190732D01*
X159932087Y-39267541D01*
X159951535Y-39275562D01*
X160024185Y-39288672D01*
X160158443Y-39299778D01*
X160337770Y-39307986D01*
X160545629Y-39312403D01*
X160642775Y-39312915D01*
X160876338Y-39314018D01*
X161046130Y-39318241D01*
X161166517Y-39327154D01*
X161251864Y-39342329D01*
X161316540Y-39365335D01*
X161365505Y-39391924D01*
X161497880Y-39515042D01*
X161578549Y-39678998D01*
X161603122Y-39862428D01*
X161567208Y-40043967D01*
X161518682Y-40137375D01*
X161461585Y-40216431D01*
X161401662Y-40278354D01*
X161328969Y-40325224D01*
X161233561Y-40359121D01*
X161105493Y-40382122D01*
X160934823Y-40396309D01*
X160711604Y-40403760D01*
X160425893Y-40406555D01*
X160229923Y-40406862D01*
X159301846Y-40406923D01*
X159301846Y-40055230D01*
X160057790Y-40055230D01*
X160321521Y-40054621D01*
X160518186Y-40052150D01*
X160658866Y-40046852D01*
X160754643Y-40037762D01*
X160816599Y-40023915D01*
X160855816Y-40004347D01*
X160878405Y-39983769D01*
X160936508Y-39873833D01*
X160924101Y-39764954D01*
X160856228Y-39686215D01*
X160806730Y-39662108D01*
X160730062Y-39645015D01*
X160614211Y-39633901D01*
X160447161Y-39627728D01*
X160216899Y-39625462D01*
X160150903Y-39625384D01*
X159879027Y-39622982D01*
X159673023Y-39613620D01*
X159520699Y-39594069D01*
X159409862Y-39561097D01*
X159328318Y-39511473D01*
X159263876Y-39441966D01*
X159222110Y-39379256D01*
X159160707Y-39214272D01*
X159149104Y-39025259D01*
X159187466Y-38846776D01*
X159219225Y-38782103D01*
X159268871Y-38709156D01*
X159324941Y-38651815D01*
X159396981Y-38608221D01*
X159494540Y-38576518D01*
X159627166Y-38554850D01*
X159804406Y-38541360D01*
X160035808Y-38534192D01*
X160330921Y-38531488D01*
X160509367Y-38531230D01*
X161451077Y-38531230D01*
X161451077Y-38882923D01*
G36*
X161705077Y-38003692D02*
X154289043Y-38013562D01*
X153363127Y-38014703D01*
X152512554Y-38015549D01*
X151734515Y-38016086D01*
X151026201Y-38016298D01*
X150384800Y-38016170D01*
X149807504Y-38015689D01*
X149291504Y-38014839D01*
X148833988Y-38013605D01*
X148432147Y-38011973D01*
X148083173Y-38009928D01*
X147784254Y-38007455D01*
X147532581Y-38004539D01*
X147325345Y-38001166D01*
X147159735Y-37997320D01*
X147032942Y-37992988D01*
X146942157Y-37988154D01*
X146884569Y-37982803D01*
X146857368Y-37976921D01*
X146854392Y-37974485D01*
X146852368Y-37930551D01*
X146850532Y-37812691D01*
X146848889Y-37625130D01*
X146847445Y-37372096D01*
X146846206Y-37057815D01*
X146845178Y-36686513D01*
X146844367Y-36262419D01*
X146843778Y-35789757D01*
X146843418Y-35272756D01*
X146843292Y-34715642D01*
X146843407Y-34122640D01*
X146843767Y-33497979D01*
X146844380Y-32845885D01*
X146845251Y-32170584D01*
X146845810Y-31810000D01*
X146855429Y-25948461D01*
X147109846Y-25948461D01*
X147109846Y-37749692D01*
X148067231Y-37749692D01*
X148331461Y-37749258D01*
X148567754Y-37748039D01*
X148765541Y-37746158D01*
X148914251Y-37743737D01*
X149003317Y-37740900D01*
X149024615Y-37738568D01*
X149012289Y-37699064D01*
X148980126Y-37606961D01*
X148939499Y-37494337D01*
X148875734Y-37250854D01*
X148839409Y-36962609D01*
X148831255Y-36658288D01*
X148852003Y-36366577D01*
X148902384Y-36116163D01*
X148904221Y-36110049D01*
X149060515Y-35722098D01*
X149277180Y-35375841D01*
X149546667Y-35076974D01*
X149861426Y-34831195D01*
X150213908Y-34644200D01*
X150596563Y-34521685D01*
X151001842Y-34469348D01*
X151080589Y-34467808D01*
X151395178Y-34482754D01*
X151671321Y-34534244D01*
X151943257Y-34630103D01*
X152092154Y-34698989D01*
X152455615Y-34919215D01*
X152764293Y-35191101D01*
X153014322Y-35507526D01*
X153201841Y-35861370D01*
X153322984Y-36245511D01*
X153373888Y-36652829D01*
X153356882Y-37029916D01*
X153327279Y-37209882D01*
X153285782Y-37391174D01*
X153243394Y-37528657D01*
X153201317Y-37640969D01*
X153173492Y-37718325D01*
X153166789Y-37739923D01*
X153204794Y-37741585D01*
X153314546Y-37743159D01*
X153489637Y-37744619D01*
X153723659Y-37745942D01*
X154010205Y-37747104D01*
X154342867Y-37748080D01*
X154715237Y-37748847D01*
X155120909Y-37749381D01*
X155553475Y-37749658D01*
X155771783Y-37749692D01*
X158376797Y-37749692D01*
X157891706Y-37257758D01*
X157211478Y-36613027D01*
X156516749Y-36044352D01*
X155805605Y-35550657D01*
X155076132Y-35130864D01*
X154326417Y-34783897D01*
X153554545Y-34508677D01*
X152758603Y-34304128D01*
X152580615Y-34268606D01*
X152362315Y-34226616D01*
X152168437Y-34188159D01*
X152013103Y-34156128D01*
X151910437Y-34133418D01*
X151877231Y-34124526D01*
X151875018Y-34107226D01*
X151942047Y-34085830D01*
X152069587Y-34061575D01*
X152248909Y-34035696D01*
X152471281Y-34009431D01*
X152727974Y-33984016D01*
X153010257Y-33960686D01*
X153060044Y-33957025D01*
X153907564Y-33934111D01*
X154766554Y-33985525D01*
X155629990Y-34109656D01*
X156490850Y-34304898D01*
X157342110Y-34569643D01*
X158176748Y-34902281D01*
X158987740Y-35301206D01*
X159029365Y-35323860D01*
X159200041Y-35418571D01*
X159422508Y-35544084D01*
X159681228Y-35691517D01*
X159960662Y-35851986D01*
X160245274Y-36016609D01*
X160462432Y-36143099D01*
X160708117Y-36286252D01*
X160931571Y-36415584D01*
X161123997Y-36526074D01*
X161276598Y-36612699D01*
X161380576Y-36670438D01*
X161427136Y-36694269D01*
X161428528Y-36694615D01*
X161431220Y-36656282D01*
X161433819Y-36544256D01*
X161436308Y-36363000D01*
X161438669Y-36116974D01*
X161440881Y-35810642D01*
X161442927Y-35448463D01*
X161444788Y-35034899D01*
X161446444Y-34574413D01*
X161447878Y-34071466D01*
X161449071Y-33530519D01*
X161450004Y-32956033D01*
X161450657Y-32352472D01*
X161451014Y-31724295D01*
X161451077Y-31321538D01*
X161451077Y-25948461D01*
X147109846Y-25948461D01*
X146855429Y-25948461D01*
X146855846Y-25694461D01*
X161705077Y-25694461D01*
X161705077Y-38003692D01*
X161705077Y-38003692D01*
G37*
X161705077Y-38003692D02*
X154289043Y-38013562D01*
X153363127Y-38014703D01*
X152512554Y-38015549D01*
X151734515Y-38016086D01*
X151026201Y-38016298D01*
X150384800Y-38016170D01*
X149807504Y-38015689D01*
X149291504Y-38014839D01*
X148833988Y-38013605D01*
X148432147Y-38011973D01*
X148083173Y-38009928D01*
X147784254Y-38007455D01*
X147532581Y-38004539D01*
X147325345Y-38001166D01*
X147159735Y-37997320D01*
X147032942Y-37992988D01*
X146942157Y-37988154D01*
X146884569Y-37982803D01*
X146857368Y-37976921D01*
X146854392Y-37974485D01*
X146852368Y-37930551D01*
X146850532Y-37812691D01*
X146848889Y-37625130D01*
X146847445Y-37372096D01*
X146846206Y-37057815D01*
X146845178Y-36686513D01*
X146844367Y-36262419D01*
X146843778Y-35789757D01*
X146843418Y-35272756D01*
X146843292Y-34715642D01*
X146843407Y-34122640D01*
X146843767Y-33497979D01*
X146844380Y-32845885D01*
X146845251Y-32170584D01*
X146845810Y-31810000D01*
X146855429Y-25948461D01*
X147109846Y-25948461D01*
X147109846Y-37749692D01*
X148067231Y-37749692D01*
X148331461Y-37749258D01*
X148567754Y-37748039D01*
X148765541Y-37746158D01*
X148914251Y-37743737D01*
X149003317Y-37740900D01*
X149024615Y-37738568D01*
X149012289Y-37699064D01*
X148980126Y-37606961D01*
X148939499Y-37494337D01*
X148875734Y-37250854D01*
X148839409Y-36962609D01*
X148831255Y-36658288D01*
X148852003Y-36366577D01*
X148902384Y-36116163D01*
X148904221Y-36110049D01*
X149060515Y-35722098D01*
X149277180Y-35375841D01*
X149546667Y-35076974D01*
X149861426Y-34831195D01*
X150213908Y-34644200D01*
X150596563Y-34521685D01*
X151001842Y-34469348D01*
X151080589Y-34467808D01*
X151395178Y-34482754D01*
X151671321Y-34534244D01*
X151943257Y-34630103D01*
X152092154Y-34698989D01*
X152455615Y-34919215D01*
X152764293Y-35191101D01*
X153014322Y-35507526D01*
X153201841Y-35861370D01*
X153322984Y-36245511D01*
X153373888Y-36652829D01*
X153356882Y-37029916D01*
X153327279Y-37209882D01*
X153285782Y-37391174D01*
X153243394Y-37528657D01*
X153201317Y-37640969D01*
X153173492Y-37718325D01*
X153166789Y-37739923D01*
X153204794Y-37741585D01*
X153314546Y-37743159D01*
X153489637Y-37744619D01*
X153723659Y-37745942D01*
X154010205Y-37747104D01*
X154342867Y-37748080D01*
X154715237Y-37748847D01*
X155120909Y-37749381D01*
X155553475Y-37749658D01*
X155771783Y-37749692D01*
X158376797Y-37749692D01*
X157891706Y-37257758D01*
X157211478Y-36613027D01*
X156516749Y-36044352D01*
X155805605Y-35550657D01*
X155076132Y-35130864D01*
X154326417Y-34783897D01*
X153554545Y-34508677D01*
X152758603Y-34304128D01*
X152580615Y-34268606D01*
X152362315Y-34226616D01*
X152168437Y-34188159D01*
X152013103Y-34156128D01*
X151910437Y-34133418D01*
X151877231Y-34124526D01*
X151875018Y-34107226D01*
X151942047Y-34085830D01*
X152069587Y-34061575D01*
X152248909Y-34035696D01*
X152471281Y-34009431D01*
X152727974Y-33984016D01*
X153010257Y-33960686D01*
X153060044Y-33957025D01*
X153907564Y-33934111D01*
X154766554Y-33985525D01*
X155629990Y-34109656D01*
X156490850Y-34304898D01*
X157342110Y-34569643D01*
X158176748Y-34902281D01*
X158987740Y-35301206D01*
X159029365Y-35323860D01*
X159200041Y-35418571D01*
X159422508Y-35544084D01*
X159681228Y-35691517D01*
X159960662Y-35851986D01*
X160245274Y-36016609D01*
X160462432Y-36143099D01*
X160708117Y-36286252D01*
X160931571Y-36415584D01*
X161123997Y-36526074D01*
X161276598Y-36612699D01*
X161380576Y-36670438D01*
X161427136Y-36694269D01*
X161428528Y-36694615D01*
X161431220Y-36656282D01*
X161433819Y-36544256D01*
X161436308Y-36363000D01*
X161438669Y-36116974D01*
X161440881Y-35810642D01*
X161442927Y-35448463D01*
X161444788Y-35034899D01*
X161446444Y-34574413D01*
X161447878Y-34071466D01*
X161449071Y-33530519D01*
X161450004Y-32956033D01*
X161450657Y-32352472D01*
X161451014Y-31724295D01*
X161451077Y-31321538D01*
X161451077Y-25948461D01*
X147109846Y-25948461D01*
X146855429Y-25948461D01*
X146855846Y-25694461D01*
X161705077Y-25694461D01*
X161705077Y-38003692D01*
G36*
X151270153Y-26336797D02*
X151341733Y-26379002D01*
X151471063Y-26454168D01*
X151648034Y-26556491D01*
X151862535Y-26680164D01*
X152104457Y-26819380D01*
X152363689Y-26968335D01*
X152630122Y-27121221D01*
X152893646Y-27272233D01*
X153144150Y-27415565D01*
X153371525Y-27545409D01*
X153565661Y-27655960D01*
X153684472Y-27723344D01*
X153844897Y-27815922D01*
X153977066Y-27895684D01*
X154067913Y-27954493D01*
X154104371Y-27984208D01*
X154104549Y-27985006D01*
X154074102Y-28014742D01*
X153990771Y-28078973D01*
X153866650Y-28168768D01*
X153713833Y-28275194D01*
X153684538Y-28295204D01*
X152913531Y-28847227D01*
X152215878Y-29404317D01*
X151586779Y-29971616D01*
X151021435Y-30554268D01*
X150515046Y-31157417D01*
X150062812Y-31786204D01*
X149659934Y-32445775D01*
X149456386Y-32826000D01*
X149241126Y-33268850D01*
X149061790Y-33688258D01*
X148910940Y-34106124D01*
X148781139Y-34544347D01*
X148664948Y-35024826D01*
X148594444Y-35363868D01*
X148540140Y-35632454D01*
X148497947Y-35826242D01*
X148467263Y-35947545D01*
X148447487Y-35998677D01*
X148438017Y-35981952D01*
X148437222Y-35968435D01*
X148431327Y-35916675D01*
X148416434Y-35805936D01*
X148395057Y-35654541D01*
X148378705Y-35541846D01*
X148357064Y-35362580D01*
X148335743Y-35130034D01*
X148316670Y-34869065D01*
X148301776Y-34604530D01*
X148296796Y-34486769D01*
X148302475Y-33588929D01*
X148385959Y-32694195D01*
X148546918Y-31803859D01*
X148785024Y-30919216D01*
X149099947Y-30041559D01*
X149491360Y-29172181D01*
X149792765Y-28601171D01*
X149890807Y-28427716D01*
X150019410Y-28202957D01*
X150169353Y-27942859D01*
X150331410Y-27663387D01*
X150496360Y-27380506D01*
X150610006Y-27186627D01*
X151151537Y-26265065D01*
X151270153Y-26336797D01*
X151270153Y-26336797D01*
G37*
X151270153Y-26336797D02*
X151341733Y-26379002D01*
X151471063Y-26454168D01*
X151648034Y-26556491D01*
X151862535Y-26680164D01*
X152104457Y-26819380D01*
X152363689Y-26968335D01*
X152630122Y-27121221D01*
X152893646Y-27272233D01*
X153144150Y-27415565D01*
X153371525Y-27545409D01*
X153565661Y-27655960D01*
X153684472Y-27723344D01*
X153844897Y-27815922D01*
X153977066Y-27895684D01*
X154067913Y-27954493D01*
X154104371Y-27984208D01*
X154104549Y-27985006D01*
X154074102Y-28014742D01*
X153990771Y-28078973D01*
X153866650Y-28168768D01*
X153713833Y-28275194D01*
X153684538Y-28295204D01*
X152913531Y-28847227D01*
X152215878Y-29404317D01*
X151586779Y-29971616D01*
X151021435Y-30554268D01*
X150515046Y-31157417D01*
X150062812Y-31786204D01*
X149659934Y-32445775D01*
X149456386Y-32826000D01*
X149241126Y-33268850D01*
X149061790Y-33688258D01*
X148910940Y-34106124D01*
X148781139Y-34544347D01*
X148664948Y-35024826D01*
X148594444Y-35363868D01*
X148540140Y-35632454D01*
X148497947Y-35826242D01*
X148467263Y-35947545D01*
X148447487Y-35998677D01*
X148438017Y-35981952D01*
X148437222Y-35968435D01*
X148431327Y-35916675D01*
X148416434Y-35805936D01*
X148395057Y-35654541D01*
X148378705Y-35541846D01*
X148357064Y-35362580D01*
X148335743Y-35130034D01*
X148316670Y-34869065D01*
X148301776Y-34604530D01*
X148296796Y-34486769D01*
X148302475Y-33588929D01*
X148385959Y-32694195D01*
X148546918Y-31803859D01*
X148785024Y-30919216D01*
X149099947Y-30041559D01*
X149491360Y-29172181D01*
X149792765Y-28601171D01*
X149890807Y-28427716D01*
X150019410Y-28202957D01*
X150169353Y-27942859D01*
X150331410Y-27663387D01*
X150496360Y-27380506D01*
X150610006Y-27186627D01*
X151151537Y-26265065D01*
X151270153Y-26336797D01*
G36*
X158804447Y-31551334D02*
X159013065Y-31555786D01*
X160200615Y-31584515D01*
X160200615Y-33299411D01*
X160199970Y-33656879D01*
X160198125Y-33988957D01*
X160195214Y-34287769D01*
X160191373Y-34545439D01*
X160186737Y-34754090D01*
X160181440Y-34905845D01*
X160175617Y-34992827D01*
X160171308Y-35010958D01*
X160126968Y-34993015D01*
X160027489Y-34946540D01*
X159887371Y-34878471D01*
X159721116Y-34795749D01*
X159712154Y-34791240D01*
X158862649Y-34391877D01*
X158034848Y-34061333D01*
X157219088Y-33796841D01*
X156405708Y-33595636D01*
X155585044Y-33454953D01*
X154755981Y-33372580D01*
X153957547Y-33352883D01*
X153174176Y-33400702D01*
X152395285Y-33517586D01*
X151610288Y-33705082D01*
X150878679Y-33939456D01*
X150715248Y-33995373D01*
X150577975Y-34037715D01*
X150484102Y-34061434D01*
X150452900Y-34064094D01*
X150457091Y-34035636D01*
X150519555Y-33972746D01*
X150631617Y-33881313D01*
X150784601Y-33767225D01*
X150969830Y-33636371D01*
X151178629Y-33494640D01*
X151402322Y-33347920D01*
X151632231Y-33202100D01*
X151859683Y-33063070D01*
X152076000Y-32936716D01*
X152272506Y-32828929D01*
X152273502Y-32828405D01*
X152836536Y-32550016D01*
X153397407Y-32309299D01*
X153964431Y-32104685D01*
X154545923Y-31934602D01*
X155150202Y-31797481D01*
X155785582Y-31691751D01*
X156460380Y-31615842D01*
X157182913Y-31568183D01*
X157961497Y-31547204D01*
X158804447Y-31551334D01*
X158804447Y-31551334D01*
G37*
X158804447Y-31551334D02*
X159013065Y-31555786D01*
X160200615Y-31584515D01*
X160200615Y-33299411D01*
X160199970Y-33656879D01*
X160198125Y-33988957D01*
X160195214Y-34287769D01*
X160191373Y-34545439D01*
X160186737Y-34754090D01*
X160181440Y-34905845D01*
X160175617Y-34992827D01*
X160171308Y-35010958D01*
X160126968Y-34993015D01*
X160027489Y-34946540D01*
X159887371Y-34878471D01*
X159721116Y-34795749D01*
X159712154Y-34791240D01*
X158862649Y-34391877D01*
X158034848Y-34061333D01*
X157219088Y-33796841D01*
X156405708Y-33595636D01*
X155585044Y-33454953D01*
X154755981Y-33372580D01*
X153957547Y-33352883D01*
X153174176Y-33400702D01*
X152395285Y-33517586D01*
X151610288Y-33705082D01*
X150878679Y-33939456D01*
X150715248Y-33995373D01*
X150577975Y-34037715D01*
X150484102Y-34061434D01*
X150452900Y-34064094D01*
X150457091Y-34035636D01*
X150519555Y-33972746D01*
X150631617Y-33881313D01*
X150784601Y-33767225D01*
X150969830Y-33636371D01*
X151178629Y-33494640D01*
X151402322Y-33347920D01*
X151632231Y-33202100D01*
X151859683Y-33063070D01*
X152076000Y-32936716D01*
X152272506Y-32828929D01*
X152273502Y-32828405D01*
X152836536Y-32550016D01*
X153397407Y-32309299D01*
X153964431Y-32104685D01*
X154545923Y-31934602D01*
X155150202Y-31797481D01*
X155785582Y-31691751D01*
X156460380Y-31615842D01*
X157182913Y-31568183D01*
X157961497Y-31547204D01*
X158804447Y-31551334D01*
G36*
X156467159Y-27873641D02*
X156516689Y-27955866D01*
X156595921Y-28090141D01*
X156699903Y-28267877D01*
X156823683Y-28480485D01*
X156962311Y-28719377D01*
X157110833Y-28975962D01*
X157264299Y-29241652D01*
X157417756Y-29507858D01*
X157566254Y-29765991D01*
X157704841Y-30007461D01*
X157828564Y-30223679D01*
X157932472Y-30406057D01*
X158011614Y-30546005D01*
X158061038Y-30634934D01*
X158075995Y-30664319D01*
X158037043Y-30669750D01*
X157932456Y-30680583D01*
X157774479Y-30695651D01*
X157575353Y-30713787D01*
X157347424Y-30733813D01*
X156769228Y-30789748D01*
X156254120Y-30852884D01*
X155787184Y-30925535D01*
X155353506Y-31010014D01*
X154948485Y-31105971D01*
X154064322Y-31365423D01*
X153238974Y-31673571D01*
X152468129Y-32033036D01*
X151747476Y-32446437D01*
X151072705Y-32916395D01*
X150439502Y-33445528D01*
X149843558Y-34036457D01*
X149513222Y-34408615D01*
X149378032Y-34567940D01*
X149285510Y-34676112D01*
X149227592Y-34741427D01*
X149196209Y-34772178D01*
X149183297Y-34776661D01*
X149180789Y-34763170D01*
X149180923Y-34750331D01*
X149196611Y-34691419D01*
X149239499Y-34576350D01*
X149303326Y-34419598D01*
X149381830Y-34235633D01*
X149468747Y-34038927D01*
X149557815Y-33843952D01*
X149642773Y-33665180D01*
X149700806Y-33548923D01*
X150087884Y-32854164D01*
X150508847Y-32215008D01*
X150978014Y-31611391D01*
X151485838Y-31048000D01*
X151801642Y-30728650D01*
X152111897Y-30434998D01*
X152426283Y-30159895D01*
X152754479Y-29896191D01*
X153106165Y-29636737D01*
X153491019Y-29374385D01*
X153918722Y-29101984D01*
X154398952Y-28812386D01*
X154925231Y-28507648D01*
X155145810Y-28382363D01*
X155377545Y-28251517D01*
X155607337Y-28122431D01*
X155822088Y-28002424D01*
X156008696Y-27898814D01*
X156154063Y-27818923D01*
X156245089Y-27770069D01*
X156247297Y-27768925D01*
X156364713Y-27708207D01*
X156467159Y-27873641D01*
X156467159Y-27873641D01*
G37*
X156467159Y-27873641D02*
X156516689Y-27955866D01*
X156595921Y-28090141D01*
X156699903Y-28267877D01*
X156823683Y-28480485D01*
X156962311Y-28719377D01*
X157110833Y-28975962D01*
X157264299Y-29241652D01*
X157417756Y-29507858D01*
X157566254Y-29765991D01*
X157704841Y-30007461D01*
X157828564Y-30223679D01*
X157932472Y-30406057D01*
X158011614Y-30546005D01*
X158061038Y-30634934D01*
X158075995Y-30664319D01*
X158037043Y-30669750D01*
X157932456Y-30680583D01*
X157774479Y-30695651D01*
X157575353Y-30713787D01*
X157347424Y-30733813D01*
X156769228Y-30789748D01*
X156254120Y-30852884D01*
X155787184Y-30925535D01*
X155353506Y-31010014D01*
X154948485Y-31105971D01*
X154064322Y-31365423D01*
X153238974Y-31673571D01*
X152468129Y-32033036D01*
X151747476Y-32446437D01*
X151072705Y-32916395D01*
X150439502Y-33445528D01*
X149843558Y-34036457D01*
X149513222Y-34408615D01*
X149378032Y-34567940D01*
X149285510Y-34676112D01*
X149227592Y-34741427D01*
X149196209Y-34772178D01*
X149183297Y-34776661D01*
X149180789Y-34763170D01*
X149180923Y-34750331D01*
X149196611Y-34691419D01*
X149239499Y-34576350D01*
X149303326Y-34419598D01*
X149381830Y-34235633D01*
X149468747Y-34038927D01*
X149557815Y-33843952D01*
X149642773Y-33665180D01*
X149700806Y-33548923D01*
X150087884Y-32854164D01*
X150508847Y-32215008D01*
X150978014Y-31611391D01*
X151485838Y-31048000D01*
X151801642Y-30728650D01*
X152111897Y-30434998D01*
X152426283Y-30159895D01*
X152754479Y-29896191D01*
X153106165Y-29636737D01*
X153491019Y-29374385D01*
X153918722Y-29101984D01*
X154398952Y-28812386D01*
X154925231Y-28507648D01*
X155145810Y-28382363D01*
X155377545Y-28251517D01*
X155607337Y-28122431D01*
X155822088Y-28002424D01*
X156008696Y-27898814D01*
X156154063Y-27818923D01*
X156245089Y-27770069D01*
X156247297Y-27768925D01*
X156364713Y-27708207D01*
X156467159Y-27873641D01*
D14*
X53800000Y-57730000D02*
X52600000Y-57730000D01*
X52600000Y-55970000D02*
X53800000Y-55970000D01*
X53800000Y-52480000D02*
X52600000Y-52480000D01*
X52600000Y-50720000D02*
X53800000Y-50720000D01*
X55300000Y-67730000D02*
X54100000Y-67730000D01*
X54100000Y-65970000D02*
X55300000Y-65970000D01*
X55300000Y-62630000D02*
X54100000Y-62630000D01*
X54100000Y-60870000D02*
X55300000Y-60870000D01*
D13*
X48597240Y-49125000D02*
X48597240Y-47225000D01*
X48597240Y-47225000D02*
X48597240Y-44625000D01*
X48597240Y-44625000D02*
X48597240Y-41675000D01*
X48597240Y-41675000D02*
X48597240Y-37050000D01*
X48597240Y-37050000D02*
X48597240Y-33750000D01*
X48597240Y-33750000D02*
X27872240Y-33750000D01*
X27872240Y-33750000D02*
X27872240Y-49125000D01*
X40822240Y-49125000D02*
X41497240Y-49125000D01*
X41497240Y-49125000D02*
X48597240Y-49125000D01*
X27872240Y-49125000D02*
X40797240Y-49125000D01*
D14*
X48007240Y-49120000D02*
X39017240Y-49110000D01*
X36677240Y-49110000D02*
X29977240Y-49120000D01*
D13*
X48597240Y-65035840D02*
X48597240Y-63135840D01*
X48597240Y-63135840D02*
X48597240Y-60535840D01*
X48597240Y-60535840D02*
X48597240Y-57585840D01*
X48597240Y-57585840D02*
X48597240Y-52960840D01*
X48597240Y-52960840D02*
X48597240Y-49660840D01*
X48597240Y-49660840D02*
X27872240Y-49660840D01*
X27872240Y-49660840D02*
X27872240Y-65035840D01*
X40822240Y-65035840D02*
X41497240Y-65035840D01*
X41497240Y-65035840D02*
X48597240Y-65035840D01*
X27872240Y-65035840D02*
X40797240Y-65035840D01*
D14*
X48007240Y-65030840D02*
X39017240Y-65020840D01*
X36677240Y-65020840D02*
X29977240Y-65030840D01*
D13*
X161200000Y-90925000D02*
X161200000Y-90850000D01*
X161200000Y-90850000D02*
X159450000Y-90850000D01*
X161200000Y-92050000D02*
X161200000Y-91725000D01*
X161200000Y-91725000D02*
X161200000Y-90050000D01*
X161200000Y-90050000D02*
X161775000Y-90050000D01*
X161775000Y-90050000D02*
X162475000Y-90050000D01*
X162475000Y-90050000D02*
X165400000Y-90050000D01*
X165400000Y-90050000D02*
X167375000Y-90050000D01*
X167375000Y-90050000D02*
X167500000Y-90050000D01*
X167500000Y-90050000D02*
X167500000Y-98350000D01*
X167500000Y-98350000D02*
X161200000Y-98350000D01*
X161200000Y-98350000D02*
X161200000Y-92050000D01*
X161200000Y-101425000D02*
X161200000Y-101350000D01*
X161200000Y-101350000D02*
X159450000Y-101350000D01*
X161200000Y-102550000D02*
X161200000Y-102225000D01*
X161200000Y-102225000D02*
X161200000Y-100550000D01*
X161200000Y-100550000D02*
X161775000Y-100550000D01*
X161775000Y-100550000D02*
X162475000Y-100550000D01*
X162475000Y-100550000D02*
X165400000Y-100550000D01*
X165400000Y-100550000D02*
X167375000Y-100550000D01*
X167375000Y-100550000D02*
X167500000Y-100550000D01*
X167500000Y-100550000D02*
X167500000Y-108850000D01*
X167500000Y-108850000D02*
X161200000Y-108850000D01*
X161200000Y-108850000D02*
X161200000Y-102550000D01*
D14*
X96420000Y-90330000D02*
X94420000Y-90330000D01*
X94420000Y-93290000D02*
X96420000Y-93290000D01*
D13*
X168188095Y-72152381D02*
X168759524Y-72152381D01*
X168473809Y-73152381D02*
X168473809Y-72152381D01*
X169616667Y-73152381D02*
X169045238Y-73152381D01*
X169330952Y-73152381D02*
X169330952Y-72152381D01*
X169235714Y-72295238D01*
X169140476Y-72390476D01*
X169045238Y-72438095D01*
X172909621Y-87202269D02*
X171909621Y-87202269D01*
X172623907Y-86868935D01*
X171909621Y-86535602D01*
X172909621Y-86535602D01*
X172909621Y-85916555D02*
X172862002Y-86011793D01*
X172814383Y-86059412D01*
X172719145Y-86107031D01*
X172433430Y-86107031D01*
X172338192Y-86059412D01*
X172290573Y-86011793D01*
X172242954Y-85916555D01*
X172242954Y-85773697D01*
X172290573Y-85678459D01*
X172338192Y-85630840D01*
X172433430Y-85583221D01*
X172719145Y-85583221D01*
X172814383Y-85630840D01*
X172862002Y-85678459D01*
X172909621Y-85773697D01*
X172909621Y-85916555D01*
X172909621Y-84726078D02*
X171909621Y-84726078D01*
X172862002Y-84726078D02*
X172909621Y-84821316D01*
X172909621Y-85011793D01*
X172862002Y-85107031D01*
X172814383Y-85154650D01*
X172719145Y-85202269D01*
X172433430Y-85202269D01*
X172338192Y-85154650D01*
X172290573Y-85107031D01*
X172242954Y-85011793D01*
X172242954Y-84821316D01*
X172290573Y-84726078D01*
X172242954Y-83821316D02*
X172909621Y-83821316D01*
X172242954Y-84249888D02*
X172766764Y-84249888D01*
X172862002Y-84202269D01*
X172909621Y-84107031D01*
X172909621Y-83964173D01*
X172862002Y-83868935D01*
X172814383Y-83821316D01*
X172909621Y-83202269D02*
X172862002Y-83297507D01*
X172766764Y-83345126D01*
X171909621Y-83345126D01*
X172862002Y-82440363D02*
X172909621Y-82535601D01*
X172909621Y-82726078D01*
X172862002Y-82821316D01*
X172766764Y-82868935D01*
X172385811Y-82868935D01*
X172290573Y-82821316D01*
X172242954Y-82726078D01*
X172242954Y-82535601D01*
X172290573Y-82440363D01*
X172385811Y-82392744D01*
X172481050Y-82392744D01*
X172576288Y-82868935D01*
X172528669Y-81964173D02*
X172528669Y-81202268D01*
X171909621Y-80821316D02*
X172909621Y-80154649D01*
X171909621Y-80154649D02*
X172909621Y-80821316D01*
X172385811Y-79440363D02*
X172385811Y-79773697D01*
X172909621Y-79773697D02*
X171909621Y-79773697D01*
X171909621Y-79297506D01*
X172909621Y-78345125D02*
X172433430Y-78678459D01*
X172909621Y-78916554D02*
X171909621Y-78916554D01*
X171909621Y-78535601D01*
X171957240Y-78440363D01*
X172004859Y-78392744D01*
X172100097Y-78345125D01*
X172242954Y-78345125D01*
X172338192Y-78392744D01*
X172385811Y-78440363D01*
X172433430Y-78535601D01*
X172433430Y-78916554D01*
X172909621Y-77916554D02*
X171909621Y-77916554D01*
X172623907Y-77583220D01*
X171909621Y-77249887D01*
X172909621Y-77249887D01*
X172909621Y-76202268D02*
X172433430Y-76535602D01*
X172909621Y-76773697D02*
X171909621Y-76773697D01*
X171909621Y-76392744D01*
X171957240Y-76297506D01*
X172004859Y-76249887D01*
X172100097Y-76202268D01*
X172242954Y-76202268D01*
X172338192Y-76249887D01*
X172385811Y-76297506D01*
X172433430Y-76392744D01*
X172433430Y-76773697D01*
X172528669Y-75773697D02*
X172528669Y-75011792D01*
X172909621Y-74535602D02*
X171909621Y-74535602D01*
X171909621Y-74154649D01*
X171957240Y-74059411D01*
X172004859Y-74011792D01*
X172100097Y-73964173D01*
X172242954Y-73964173D01*
X172338192Y-74011792D01*
X172385811Y-74059411D01*
X172433430Y-74154649D01*
X172433430Y-74535602D01*
X171909621Y-73345126D02*
X171909621Y-73154649D01*
X171957240Y-73059411D01*
X172052478Y-72964173D01*
X172242954Y-72916554D01*
X172576288Y-72916554D01*
X172766764Y-72964173D01*
X172862002Y-73059411D01*
X172909621Y-73154649D01*
X172909621Y-73345126D01*
X172862002Y-73440364D01*
X172766764Y-73535602D01*
X172576288Y-73583221D01*
X172242954Y-73583221D01*
X172052478Y-73535602D01*
X171957240Y-73440364D01*
X171909621Y-73345126D01*
X172385811Y-72487983D02*
X172385811Y-72154649D01*
X172909621Y-72011792D02*
X172909621Y-72487983D01*
X171909621Y-72487983D01*
X171909621Y-72011792D01*
X172402381Y-105683333D02*
X173116667Y-105683333D01*
X173259524Y-105730953D01*
X173354762Y-105826191D01*
X173402381Y-105969048D01*
X173402381Y-106064286D01*
X172497619Y-105254762D02*
X172450000Y-105207143D01*
X172402381Y-105111905D01*
X172402381Y-104873809D01*
X172450000Y-104778571D01*
X172497619Y-104730952D01*
X172592857Y-104683333D01*
X172688095Y-104683333D01*
X172830952Y-104730952D01*
X173402381Y-105302381D01*
X173402381Y-104683333D01*
X189152381Y-105021429D02*
X188152381Y-105021429D01*
X189152381Y-104545239D02*
X188152381Y-104545239D01*
X189152381Y-103973810D01*
X188152381Y-103973810D01*
X189247619Y-103735715D02*
X189247619Y-102973810D01*
X188628571Y-102735715D02*
X188628571Y-102402381D01*
X189152381Y-102259524D02*
X189152381Y-102735715D01*
X188152381Y-102735715D01*
X188152381Y-102259524D01*
X188152381Y-101973810D02*
X188152381Y-101402381D01*
X189152381Y-101688096D02*
X188152381Y-101688096D01*
X189152381Y-101069048D02*
X188152381Y-101069048D01*
X188628571Y-101069048D02*
X188628571Y-100497619D01*
X189152381Y-100497619D02*
X188152381Y-100497619D01*
X188628571Y-100021429D02*
X188628571Y-99688095D01*
X189152381Y-99545238D02*
X189152381Y-100021429D01*
X188152381Y-100021429D01*
X188152381Y-99545238D01*
X189152381Y-98545238D02*
X188676190Y-98878572D01*
X189152381Y-99116667D02*
X188152381Y-99116667D01*
X188152381Y-98735714D01*
X188200000Y-98640476D01*
X188247619Y-98592857D01*
X188342857Y-98545238D01*
X188485714Y-98545238D01*
X188580952Y-98592857D01*
X188628571Y-98640476D01*
X188676190Y-98735714D01*
X188676190Y-99116667D01*
X189152381Y-98116667D02*
X188152381Y-98116667D01*
X189152381Y-97545238D01*
X188152381Y-97545238D01*
X188628571Y-97069048D02*
X188628571Y-96735714D01*
X189152381Y-96592857D02*
X189152381Y-97069048D01*
X188152381Y-97069048D01*
X188152381Y-96592857D01*
X188152381Y-96307143D02*
X188152381Y-95735714D01*
X189152381Y-96021429D02*
X188152381Y-96021429D01*
X114261905Y-95202381D02*
X114261905Y-96011905D01*
X114309524Y-96107143D01*
X114357143Y-96154762D01*
X114452381Y-96202381D01*
X114642858Y-96202381D01*
X114738096Y-96154762D01*
X114785715Y-96107143D01*
X114833334Y-96011905D01*
X114833334Y-95202381D01*
X115833334Y-96202381D02*
X115261905Y-96202381D01*
X115547619Y-96202381D02*
X115547619Y-95202381D01*
X115452381Y-95345238D01*
X115357143Y-95440476D01*
X115261905Y-95488095D01*
X116690477Y-95202381D02*
X116500000Y-95202381D01*
X116404762Y-95250000D01*
X116357143Y-95297619D01*
X116261905Y-95440476D01*
X116214286Y-95630952D01*
X116214286Y-96011905D01*
X116261905Y-96107143D01*
X116309524Y-96154762D01*
X116404762Y-96202381D01*
X116595239Y-96202381D01*
X116690477Y-96154762D01*
X116738096Y-96107143D01*
X116785715Y-96011905D01*
X116785715Y-95773810D01*
X116738096Y-95678571D01*
X116690477Y-95630952D01*
X116595239Y-95583333D01*
X116404762Y-95583333D01*
X116309524Y-95630952D01*
X116261905Y-95678571D01*
X116214286Y-95773810D01*
X135304762Y-95916667D02*
X135780953Y-95916667D01*
X135209524Y-96202381D02*
X135542857Y-95202381D01*
X135876191Y-96202381D01*
X136638096Y-95535714D02*
X136638096Y-96345238D01*
X136590477Y-96440476D01*
X136542858Y-96488095D01*
X136447619Y-96535714D01*
X136304762Y-96535714D01*
X136209524Y-96488095D01*
X136638096Y-96154762D02*
X136542858Y-96202381D01*
X136352381Y-96202381D01*
X136257143Y-96154762D01*
X136209524Y-96107143D01*
X136161905Y-96011905D01*
X136161905Y-95726190D01*
X136209524Y-95630952D01*
X136257143Y-95583333D01*
X136352381Y-95535714D01*
X136542858Y-95535714D01*
X136638096Y-95583333D01*
X137161905Y-96202381D02*
X137352381Y-96202381D01*
X137447620Y-96154762D01*
X137495239Y-96107143D01*
X137590477Y-95964286D01*
X137638096Y-95773810D01*
X137638096Y-95392857D01*
X137590477Y-95297619D01*
X137542858Y-95250000D01*
X137447620Y-95202381D01*
X137257143Y-95202381D01*
X137161905Y-95250000D01*
X137114286Y-95297619D01*
X137066667Y-95392857D01*
X137066667Y-95630952D01*
X137114286Y-95726190D01*
X137161905Y-95773810D01*
X137257143Y-95821429D01*
X137447620Y-95821429D01*
X137542858Y-95773810D01*
X137590477Y-95726190D01*
X137638096Y-95630952D01*
X138019048Y-95297619D02*
X138066667Y-95250000D01*
X138161905Y-95202381D01*
X138400001Y-95202381D01*
X138495239Y-95250000D01*
X138542858Y-95297619D01*
X138590477Y-95392857D01*
X138590477Y-95488095D01*
X138542858Y-95630952D01*
X137971429Y-96202381D01*
X138590477Y-96202381D01*
X139209524Y-95202381D02*
X139304763Y-95202381D01*
X139400001Y-95250000D01*
X139447620Y-95297619D01*
X139495239Y-95392857D01*
X139542858Y-95583333D01*
X139542858Y-95821429D01*
X139495239Y-96011905D01*
X139447620Y-96107143D01*
X139400001Y-96154762D01*
X139304763Y-96202381D01*
X139209524Y-96202381D01*
X139114286Y-96154762D01*
X139066667Y-96107143D01*
X139019048Y-96011905D01*
X138971429Y-95821429D01*
X138971429Y-95583333D01*
X139019048Y-95392857D01*
X139066667Y-95297619D01*
X139114286Y-95250000D01*
X139209524Y-95202381D01*
X140161905Y-95202381D02*
X140257144Y-95202381D01*
X140352382Y-95250000D01*
X140400001Y-95297619D01*
X140447620Y-95392857D01*
X140495239Y-95583333D01*
X140495239Y-95821429D01*
X140447620Y-96011905D01*
X140400001Y-96107143D01*
X140352382Y-96154762D01*
X140257144Y-96202381D01*
X140161905Y-96202381D01*
X140066667Y-96154762D01*
X140019048Y-96107143D01*
X139971429Y-96011905D01*
X139923810Y-95821429D01*
X139923810Y-95583333D01*
X139971429Y-95392857D01*
X140019048Y-95297619D01*
X140066667Y-95250000D01*
X140161905Y-95202381D01*
X64719145Y-85923221D02*
X64719145Y-86732745D01*
X64766764Y-86827983D01*
X64814383Y-86875602D01*
X64909621Y-86923221D01*
X65100098Y-86923221D01*
X65195336Y-86875602D01*
X65242955Y-86827983D01*
X65290574Y-86732745D01*
X65290574Y-85923221D01*
X66290574Y-86923221D02*
X65719145Y-86923221D01*
X66004859Y-86923221D02*
X66004859Y-85923221D01*
X65909621Y-86066078D01*
X65814383Y-86161316D01*
X65719145Y-86208935D01*
X66623907Y-85923221D02*
X67290574Y-85923221D01*
X66862002Y-86923221D01*
X58221429Y-91502381D02*
X58554762Y-92502381D01*
X58888096Y-91502381D01*
X59221429Y-92502381D02*
X59221429Y-91502381D01*
X60030953Y-91978571D02*
X60173810Y-92026190D01*
X60221429Y-92073810D01*
X60269048Y-92169048D01*
X60269048Y-92311905D01*
X60221429Y-92407143D01*
X60173810Y-92454762D01*
X60078572Y-92502381D01*
X59697619Y-92502381D01*
X59697619Y-91502381D01*
X60030953Y-91502381D01*
X60126191Y-91550000D01*
X60173810Y-91597619D01*
X60221429Y-91692857D01*
X60221429Y-91788095D01*
X60173810Y-91883333D01*
X60126191Y-91930952D01*
X60030953Y-91978571D01*
X59697619Y-91978571D01*
X61173810Y-92502381D02*
X60697619Y-92502381D01*
X60697619Y-91502381D01*
X61459524Y-92454762D02*
X61602381Y-92502381D01*
X61840477Y-92502381D01*
X61935715Y-92454762D01*
X61983334Y-92407143D01*
X62030953Y-92311905D01*
X62030953Y-92216667D01*
X61983334Y-92121429D01*
X61935715Y-92073810D01*
X61840477Y-92026190D01*
X61650000Y-91978571D01*
X61554762Y-91930952D01*
X61507143Y-91883333D01*
X61459524Y-91788095D01*
X61459524Y-91692857D01*
X61507143Y-91597619D01*
X61554762Y-91550000D01*
X61650000Y-91502381D01*
X61888096Y-91502381D01*
X62030953Y-91550000D01*
X62459524Y-92502381D02*
X62459524Y-91502381D01*
X62697619Y-91502381D01*
X62840477Y-91550000D01*
X62935715Y-91645238D01*
X62983334Y-91740476D01*
X63030953Y-91930952D01*
X63030953Y-92073810D01*
X62983334Y-92264286D01*
X62935715Y-92359524D01*
X62840477Y-92454762D01*
X62697619Y-92502381D01*
X62459524Y-92502381D01*
X63983334Y-92502381D02*
X63411905Y-92502381D01*
X63697619Y-92502381D02*
X63697619Y-91502381D01*
X63602381Y-91645238D01*
X63507143Y-91740476D01*
X63411905Y-91788095D01*
X64411905Y-92121429D02*
X65173810Y-92121429D01*
X65602381Y-92454762D02*
X65745238Y-92502381D01*
X65983334Y-92502381D01*
X66078572Y-92454762D01*
X66126191Y-92407143D01*
X66173810Y-92311905D01*
X66173810Y-92216667D01*
X66126191Y-92121429D01*
X66078572Y-92073810D01*
X65983334Y-92026190D01*
X65792857Y-91978571D01*
X65697619Y-91930952D01*
X65650000Y-91883333D01*
X65602381Y-91788095D01*
X65602381Y-91692857D01*
X65650000Y-91597619D01*
X65697619Y-91550000D01*
X65792857Y-91502381D01*
X66030953Y-91502381D01*
X66173810Y-91550000D01*
X67078572Y-91502381D02*
X66602381Y-91502381D01*
X66554762Y-91978571D01*
X66602381Y-91930952D01*
X66697619Y-91883333D01*
X66935715Y-91883333D01*
X67030953Y-91930952D01*
X67078572Y-91978571D01*
X67126191Y-92073810D01*
X67126191Y-92311905D01*
X67078572Y-92407143D01*
X67030953Y-92454762D01*
X66935715Y-92502381D01*
X66697619Y-92502381D01*
X66602381Y-92454762D01*
X66554762Y-92407143D01*
X67554762Y-92121429D02*
X68316667Y-92121429D01*
X68745238Y-92454762D02*
X68888095Y-92502381D01*
X69126191Y-92502381D01*
X69221429Y-92454762D01*
X69269048Y-92407143D01*
X69316667Y-92311905D01*
X69316667Y-92216667D01*
X69269048Y-92121429D01*
X69221429Y-92073810D01*
X69126191Y-92026190D01*
X68935714Y-91978571D01*
X68840476Y-91930952D01*
X68792857Y-91883333D01*
X68745238Y-91788095D01*
X68745238Y-91692857D01*
X68792857Y-91597619D01*
X68840476Y-91550000D01*
X68935714Y-91502381D01*
X69173810Y-91502381D01*
X69316667Y-91550000D01*
X70221429Y-91502381D02*
X69745238Y-91502381D01*
X69697619Y-91978571D01*
X69745238Y-91930952D01*
X69840476Y-91883333D01*
X70078572Y-91883333D01*
X70173810Y-91930952D01*
X70221429Y-91978571D01*
X70269048Y-92073810D01*
X70269048Y-92311905D01*
X70221429Y-92407143D01*
X70173810Y-92454762D01*
X70078572Y-92502381D01*
X69840476Y-92502381D01*
X69745238Y-92454762D01*
X69697619Y-92407143D01*
X70697619Y-92121429D02*
X71459524Y-92121429D01*
X71935714Y-92502381D02*
X71935714Y-91502381D01*
X72173809Y-91502381D01*
X72316667Y-91550000D01*
X72411905Y-91645238D01*
X72459524Y-91740476D01*
X72507143Y-91930952D01*
X72507143Y-92073810D01*
X72459524Y-92264286D01*
X72411905Y-92359524D01*
X72316667Y-92454762D01*
X72173809Y-92502381D01*
X71935714Y-92502381D01*
X72935714Y-92502381D02*
X72935714Y-91502381D01*
X73411904Y-92502381D02*
X73411904Y-91502381D01*
X73792857Y-91502381D01*
X73888095Y-91550000D01*
X73935714Y-91597619D01*
X73983333Y-91692857D01*
X73983333Y-91835714D01*
X73935714Y-91930952D01*
X73888095Y-91978571D01*
X73792857Y-92026190D01*
X73411904Y-92026190D01*
X64811905Y-108552381D02*
X64811905Y-109361905D01*
X64859524Y-109457143D01*
X64907143Y-109504762D01*
X65002381Y-109552381D01*
X65192858Y-109552381D01*
X65288096Y-109504762D01*
X65335715Y-109457143D01*
X65383334Y-109361905D01*
X65383334Y-108552381D01*
X66383334Y-109552381D02*
X65811905Y-109552381D01*
X66097619Y-109552381D02*
X66097619Y-108552381D01*
X66002381Y-108695238D01*
X65907143Y-108790476D01*
X65811905Y-108838095D01*
X66954762Y-108980952D02*
X66859524Y-108933333D01*
X66811905Y-108885714D01*
X66764286Y-108790476D01*
X66764286Y-108742857D01*
X66811905Y-108647619D01*
X66859524Y-108600000D01*
X66954762Y-108552381D01*
X67145239Y-108552381D01*
X67240477Y-108600000D01*
X67288096Y-108647619D01*
X67335715Y-108742857D01*
X67335715Y-108790476D01*
X67288096Y-108885714D01*
X67240477Y-108933333D01*
X67145239Y-108980952D01*
X66954762Y-108980952D01*
X66859524Y-109028571D01*
X66811905Y-109076190D01*
X66764286Y-109171429D01*
X66764286Y-109361905D01*
X66811905Y-109457143D01*
X66859524Y-109504762D01*
X66954762Y-109552381D01*
X67145239Y-109552381D01*
X67240477Y-109504762D01*
X67288096Y-109457143D01*
X67335715Y-109361905D01*
X67335715Y-109171429D01*
X67288096Y-109076190D01*
X67240477Y-109028571D01*
X67145239Y-108980952D01*
X60754762Y-103302381D02*
X60754762Y-102302381D01*
X61088096Y-103016667D01*
X61421429Y-102302381D01*
X61421429Y-103302381D01*
X61897619Y-102778571D02*
X62230953Y-102778571D01*
X62373810Y-103302381D02*
X61897619Y-103302381D01*
X61897619Y-102302381D01*
X62373810Y-102302381D01*
X62659524Y-102302381D02*
X62992857Y-103302381D01*
X63326191Y-102302381D01*
X64183334Y-103302381D02*
X63611905Y-103302381D01*
X63897619Y-103302381D02*
X63897619Y-102302381D01*
X63802381Y-102445238D01*
X63707143Y-102540476D01*
X63611905Y-102588095D01*
X64611905Y-103302381D02*
X64611905Y-102302381D01*
X64850000Y-102302381D01*
X64992858Y-102350000D01*
X65088096Y-102445238D01*
X65135715Y-102540476D01*
X65183334Y-102730952D01*
X65183334Y-102873810D01*
X65135715Y-103064286D01*
X65088096Y-103159524D01*
X64992858Y-103254762D01*
X64850000Y-103302381D01*
X64611905Y-103302381D01*
X65802381Y-102302381D02*
X65897620Y-102302381D01*
X65992858Y-102350000D01*
X66040477Y-102397619D01*
X66088096Y-102492857D01*
X66135715Y-102683333D01*
X66135715Y-102921429D01*
X66088096Y-103111905D01*
X66040477Y-103207143D01*
X65992858Y-103254762D01*
X65897620Y-103302381D01*
X65802381Y-103302381D01*
X65707143Y-103254762D01*
X65659524Y-103207143D01*
X65611905Y-103111905D01*
X65564286Y-102921429D01*
X65564286Y-102683333D01*
X65611905Y-102492857D01*
X65659524Y-102397619D01*
X65707143Y-102350000D01*
X65802381Y-102302381D01*
X67040477Y-102302381D02*
X66564286Y-102302381D01*
X66516667Y-102778571D01*
X66564286Y-102730952D01*
X66659524Y-102683333D01*
X66897620Y-102683333D01*
X66992858Y-102730952D01*
X67040477Y-102778571D01*
X67088096Y-102873810D01*
X67088096Y-103111905D01*
X67040477Y-103207143D01*
X66992858Y-103254762D01*
X66897620Y-103302381D01*
X66659524Y-103302381D01*
X66564286Y-103254762D01*
X66516667Y-103207143D01*
X68040477Y-103302381D02*
X67469048Y-103302381D01*
X67754762Y-103302381D02*
X67754762Y-102302381D01*
X67659524Y-102445238D01*
X67564286Y-102540476D01*
X67469048Y-102588095D01*
X68421429Y-102397619D02*
X68469048Y-102350000D01*
X68564286Y-102302381D01*
X68802382Y-102302381D01*
X68897620Y-102350000D01*
X68945239Y-102397619D01*
X68992858Y-102492857D01*
X68992858Y-102588095D01*
X68945239Y-102730952D01*
X68373810Y-103302381D01*
X68992858Y-103302381D01*
X69421429Y-103302381D02*
X69421429Y-102302381D01*
X69659524Y-102302381D01*
X69802382Y-102350000D01*
X69897620Y-102445238D01*
X69945239Y-102540476D01*
X69992858Y-102730952D01*
X69992858Y-102873810D01*
X69945239Y-103064286D01*
X69897620Y-103159524D01*
X69802382Y-103254762D01*
X69659524Y-103302381D01*
X69421429Y-103302381D01*
X70992858Y-103207143D02*
X70945239Y-103254762D01*
X70802382Y-103302381D01*
X70707144Y-103302381D01*
X70564286Y-103254762D01*
X70469048Y-103159524D01*
X70421429Y-103064286D01*
X70373810Y-102873810D01*
X70373810Y-102730952D01*
X70421429Y-102540476D01*
X70469048Y-102445238D01*
X70564286Y-102350000D01*
X70707144Y-102302381D01*
X70802382Y-102302381D01*
X70945239Y-102350000D01*
X70992858Y-102397619D01*
X34311905Y-82552381D02*
X34311905Y-81552381D01*
X34692858Y-81552381D01*
X34788096Y-81600000D01*
X34835715Y-81647619D01*
X34883334Y-81742857D01*
X34883334Y-81885714D01*
X34835715Y-81980952D01*
X34788096Y-82028571D01*
X34692858Y-82076190D01*
X34311905Y-82076190D01*
X35835715Y-82552381D02*
X35264286Y-82552381D01*
X35550000Y-82552381D02*
X35550000Y-81552381D01*
X35454762Y-81695238D01*
X35359524Y-81790476D01*
X35264286Y-81838095D01*
X37857143Y-92523809D02*
X37904762Y-92571428D01*
X37952381Y-92714285D01*
X37952381Y-92809523D01*
X37904762Y-92952381D01*
X37809524Y-93047619D01*
X37714286Y-93095238D01*
X37523810Y-93142857D01*
X37380952Y-93142857D01*
X37190476Y-93095238D01*
X37095238Y-93047619D01*
X37000000Y-92952381D01*
X36952381Y-92809523D01*
X36952381Y-92714285D01*
X37000000Y-92571428D01*
X37047619Y-92523809D01*
X36952381Y-91904762D02*
X36952381Y-91714285D01*
X37000000Y-91619047D01*
X37095238Y-91523809D01*
X37285714Y-91476190D01*
X37619048Y-91476190D01*
X37809524Y-91523809D01*
X37904762Y-91619047D01*
X37952381Y-91714285D01*
X37952381Y-91904762D01*
X37904762Y-92000000D01*
X37809524Y-92095238D01*
X37619048Y-92142857D01*
X37285714Y-92142857D01*
X37095238Y-92095238D01*
X37000000Y-92000000D01*
X36952381Y-91904762D01*
X37952381Y-91047619D02*
X36952381Y-91047619D01*
X37952381Y-90476190D01*
X36952381Y-90476190D01*
X37952381Y-90000000D02*
X36952381Y-90000000D01*
X37952381Y-89428571D01*
X36952381Y-89428571D01*
X38047619Y-89190476D02*
X38047619Y-88428571D01*
X36952381Y-88000000D02*
X36952381Y-87904761D01*
X37000000Y-87809523D01*
X37047619Y-87761904D01*
X37142857Y-87714285D01*
X37333333Y-87666666D01*
X37571429Y-87666666D01*
X37761905Y-87714285D01*
X37857143Y-87761904D01*
X37904762Y-87809523D01*
X37952381Y-87904761D01*
X37952381Y-88000000D01*
X37904762Y-88095238D01*
X37857143Y-88142857D01*
X37761905Y-88190476D01*
X37571429Y-88238095D01*
X37333333Y-88238095D01*
X37142857Y-88190476D01*
X37047619Y-88142857D01*
X37000000Y-88095238D01*
X36952381Y-88000000D01*
X37047619Y-87285714D02*
X37000000Y-87238095D01*
X36952381Y-87142857D01*
X36952381Y-86904761D01*
X37000000Y-86809523D01*
X37047619Y-86761904D01*
X37142857Y-86714285D01*
X37238095Y-86714285D01*
X37380952Y-86761904D01*
X37952381Y-87333333D01*
X37952381Y-86714285D01*
X36952381Y-86380952D02*
X37952381Y-85714285D01*
X36952381Y-85714285D02*
X37952381Y-86380952D01*
X36952381Y-85142857D02*
X36952381Y-85047618D01*
X37000000Y-84952380D01*
X37047619Y-84904761D01*
X37142857Y-84857142D01*
X37333333Y-84809523D01*
X37571429Y-84809523D01*
X37761905Y-84857142D01*
X37857143Y-84904761D01*
X37904762Y-84952380D01*
X37952381Y-85047618D01*
X37952381Y-85142857D01*
X37904762Y-85238095D01*
X37857143Y-85285714D01*
X37761905Y-85333333D01*
X37571429Y-85380952D01*
X37333333Y-85380952D01*
X37142857Y-85333333D01*
X37047619Y-85285714D01*
X37000000Y-85238095D01*
X36952381Y-85142857D01*
X37380952Y-84238095D02*
X37333333Y-84333333D01*
X37285714Y-84380952D01*
X37190476Y-84428571D01*
X37142857Y-84428571D01*
X37047619Y-84380952D01*
X37000000Y-84333333D01*
X36952381Y-84238095D01*
X36952381Y-84047618D01*
X37000000Y-83952380D01*
X37047619Y-83904761D01*
X37142857Y-83857142D01*
X37190476Y-83857142D01*
X37285714Y-83904761D01*
X37333333Y-83952380D01*
X37380952Y-84047618D01*
X37380952Y-84238095D01*
X37428571Y-84333333D01*
X37476190Y-84380952D01*
X37571429Y-84428571D01*
X37761905Y-84428571D01*
X37857143Y-84380952D01*
X37904762Y-84333333D01*
X37952381Y-84238095D01*
X37952381Y-84047618D01*
X37904762Y-83952380D01*
X37857143Y-83904761D01*
X37761905Y-83857142D01*
X37571429Y-83857142D01*
X37476190Y-83904761D01*
X37428571Y-83952380D01*
X37380952Y-84047618D01*
X187011905Y-80652381D02*
X187011905Y-79652381D01*
X187250000Y-79652381D01*
X187392858Y-79700000D01*
X187488096Y-79795238D01*
X187535715Y-79890476D01*
X187583334Y-80080952D01*
X187583334Y-80223810D01*
X187535715Y-80414286D01*
X187488096Y-80509524D01*
X187392858Y-80604762D01*
X187250000Y-80652381D01*
X187011905Y-80652381D01*
X188535715Y-80652381D02*
X187964286Y-80652381D01*
X188250000Y-80652381D02*
X188250000Y-79652381D01*
X188154762Y-79795238D01*
X188059524Y-79890476D01*
X187964286Y-79938095D01*
X186452381Y-83892857D02*
X186452381Y-84369048D01*
X185452381Y-84369048D01*
X185928571Y-83559524D02*
X185928571Y-83226190D01*
X186452381Y-83083333D02*
X186452381Y-83559524D01*
X185452381Y-83559524D01*
X185452381Y-83083333D01*
X186452381Y-82654762D02*
X185452381Y-82654762D01*
X185452381Y-82416667D01*
X185500000Y-82273809D01*
X185595238Y-82178571D01*
X185690476Y-82130952D01*
X185880952Y-82083333D01*
X186023810Y-82083333D01*
X186214286Y-82130952D01*
X186309524Y-82178571D01*
X186404762Y-82273809D01*
X186452381Y-82416667D01*
X186452381Y-82654762D01*
X140916667Y-58052381D02*
X140916667Y-58766667D01*
X140869047Y-58909524D01*
X140773809Y-59004762D01*
X140630952Y-59052381D01*
X140535714Y-59052381D01*
X141916667Y-59052381D02*
X141345238Y-59052381D01*
X141630952Y-59052381D02*
X141630952Y-58052381D01*
X141535714Y-58195238D01*
X141440476Y-58290476D01*
X141345238Y-58338095D01*
X132075811Y-68909411D02*
X132123430Y-68766554D01*
X132171050Y-68718935D01*
X132266288Y-68671316D01*
X132409145Y-68671316D01*
X132504383Y-68718935D01*
X132552002Y-68766554D01*
X132599621Y-68861792D01*
X132599621Y-69242745D01*
X131599621Y-69242745D01*
X131599621Y-68909411D01*
X131647240Y-68814173D01*
X131694859Y-68766554D01*
X131790097Y-68718935D01*
X131885335Y-68718935D01*
X131980573Y-68766554D01*
X132028192Y-68814173D01*
X132075811Y-68909411D01*
X132075811Y-69242745D01*
X132075811Y-67909411D02*
X132123430Y-67766554D01*
X132171050Y-67718935D01*
X132266288Y-67671316D01*
X132409145Y-67671316D01*
X132504383Y-67718935D01*
X132552002Y-67766554D01*
X132599621Y-67861792D01*
X132599621Y-68242745D01*
X131599621Y-68242745D01*
X131599621Y-67909411D01*
X131647240Y-67814173D01*
X131694859Y-67766554D01*
X131790097Y-67718935D01*
X131885335Y-67718935D01*
X131980573Y-67766554D01*
X132028192Y-67814173D01*
X132075811Y-67909411D01*
X132075811Y-68242745D01*
X132075811Y-66909411D02*
X132123430Y-66766554D01*
X132171050Y-66718935D01*
X132266288Y-66671316D01*
X132409145Y-66671316D01*
X132504383Y-66718935D01*
X132552002Y-66766554D01*
X132599621Y-66861792D01*
X132599621Y-67242745D01*
X131599621Y-67242745D01*
X131599621Y-66909411D01*
X131647240Y-66814173D01*
X131694859Y-66766554D01*
X131790097Y-66718935D01*
X131885335Y-66718935D01*
X131980573Y-66766554D01*
X132028192Y-66814173D01*
X132075811Y-66909411D01*
X132075811Y-67242745D01*
X39230574Y-71293221D02*
X38897240Y-70817030D01*
X38659145Y-71293221D02*
X38659145Y-70293221D01*
X39040098Y-70293221D01*
X39135336Y-70340840D01*
X39182955Y-70388459D01*
X39230574Y-70483697D01*
X39230574Y-70626554D01*
X39182955Y-70721792D01*
X39135336Y-70769411D01*
X39040098Y-70817030D01*
X38659145Y-70817030D01*
X39563907Y-70293221D02*
X40230574Y-70293221D01*
X39802002Y-71293221D01*
X34809524Y-72385714D02*
X34809524Y-73052381D01*
X34571428Y-72004762D02*
X34333333Y-72719048D01*
X34952381Y-72719048D01*
X35333333Y-73052381D02*
X35333333Y-72052381D01*
X35428571Y-72671429D02*
X35714286Y-73052381D01*
X35714286Y-72385714D02*
X35333333Y-72766667D01*
X36047619Y-72052381D02*
X36714286Y-72052381D01*
X36285714Y-73052381D01*
X39183334Y-74802381D02*
X38850000Y-74326190D01*
X38611905Y-74802381D02*
X38611905Y-73802381D01*
X38992858Y-73802381D01*
X39088096Y-73850000D01*
X39135715Y-73897619D01*
X39183334Y-73992857D01*
X39183334Y-74135714D01*
X39135715Y-74230952D01*
X39088096Y-74278571D01*
X38992858Y-74326190D01*
X38611905Y-74326190D01*
X39754762Y-74230952D02*
X39659524Y-74183333D01*
X39611905Y-74135714D01*
X39564286Y-74040476D01*
X39564286Y-73992857D01*
X39611905Y-73897619D01*
X39659524Y-73850000D01*
X39754762Y-73802381D01*
X39945239Y-73802381D01*
X40040477Y-73850000D01*
X40088096Y-73897619D01*
X40135715Y-73992857D01*
X40135715Y-74040476D01*
X40088096Y-74135714D01*
X40040477Y-74183333D01*
X39945239Y-74230952D01*
X39754762Y-74230952D01*
X39659524Y-74278571D01*
X39611905Y-74326190D01*
X39564286Y-74421429D01*
X39564286Y-74611905D01*
X39611905Y-74707143D01*
X39659524Y-74754762D01*
X39754762Y-74802381D01*
X39945239Y-74802381D01*
X40040477Y-74754762D01*
X40088096Y-74707143D01*
X40135715Y-74611905D01*
X40135715Y-74421429D01*
X40088096Y-74326190D01*
X40040477Y-74278571D01*
X39945239Y-74230952D01*
X34809524Y-75785714D02*
X34809524Y-76452381D01*
X34571428Y-75404762D02*
X34333333Y-76119048D01*
X34952381Y-76119048D01*
X35333333Y-76452381D02*
X35333333Y-75452381D01*
X35428571Y-76071429D02*
X35714286Y-76452381D01*
X35714286Y-75785714D02*
X35333333Y-76166667D01*
X36047619Y-75452381D02*
X36714286Y-75452381D01*
X36285714Y-76452381D01*
X40030574Y-26543221D02*
X39697240Y-26067030D01*
X39459145Y-26543221D02*
X39459145Y-25543221D01*
X39840098Y-25543221D01*
X39935336Y-25590840D01*
X39982955Y-25638459D01*
X40030574Y-25733697D01*
X40030574Y-25876554D01*
X39982955Y-25971792D01*
X39935336Y-26019411D01*
X39840098Y-26067030D01*
X39459145Y-26067030D01*
X40506764Y-26543221D02*
X40697240Y-26543221D01*
X40792479Y-26495602D01*
X40840098Y-26447983D01*
X40935336Y-26305126D01*
X40982955Y-26114650D01*
X40982955Y-25733697D01*
X40935336Y-25638459D01*
X40887717Y-25590840D01*
X40792479Y-25543221D01*
X40602002Y-25543221D01*
X40506764Y-25590840D01*
X40459145Y-25638459D01*
X40411526Y-25733697D01*
X40411526Y-25971792D01*
X40459145Y-26067030D01*
X40506764Y-26114650D01*
X40602002Y-26162269D01*
X40792479Y-26162269D01*
X40887717Y-26114650D01*
X40935336Y-26067030D01*
X40982955Y-25971792D01*
X35559524Y-27735714D02*
X35559524Y-28402381D01*
X35321428Y-27354762D02*
X35083333Y-28069048D01*
X35702381Y-28069048D01*
X36083333Y-28402381D02*
X36083333Y-27402381D01*
X36178571Y-28021429D02*
X36464286Y-28402381D01*
X36464286Y-27735714D02*
X36083333Y-28116667D01*
X36797619Y-27402381D02*
X37464286Y-27402381D01*
X37035714Y-28402381D01*
X39557143Y-23352381D02*
X39223809Y-22876190D01*
X38985714Y-23352381D02*
X38985714Y-22352381D01*
X39366667Y-22352381D01*
X39461905Y-22400000D01*
X39509524Y-22447619D01*
X39557143Y-22542857D01*
X39557143Y-22685714D01*
X39509524Y-22780952D01*
X39461905Y-22828571D01*
X39366667Y-22876190D01*
X38985714Y-22876190D01*
X40509524Y-23352381D02*
X39938095Y-23352381D01*
X40223809Y-23352381D02*
X40223809Y-22352381D01*
X40128571Y-22495238D01*
X40033333Y-22590476D01*
X39938095Y-22638095D01*
X41128571Y-22352381D02*
X41223810Y-22352381D01*
X41319048Y-22400000D01*
X41366667Y-22447619D01*
X41414286Y-22542857D01*
X41461905Y-22733333D01*
X41461905Y-22971429D01*
X41414286Y-23161905D01*
X41366667Y-23257143D01*
X41319048Y-23304762D01*
X41223810Y-23352381D01*
X41128571Y-23352381D01*
X41033333Y-23304762D01*
X40985714Y-23257143D01*
X40938095Y-23161905D01*
X40890476Y-22971429D01*
X40890476Y-22733333D01*
X40938095Y-22542857D01*
X40985714Y-22447619D01*
X41033333Y-22400000D01*
X41128571Y-22352381D01*
X35509524Y-24285714D02*
X35509524Y-24952381D01*
X35271428Y-23904762D02*
X35033333Y-24619048D01*
X35652381Y-24619048D01*
X36033333Y-24952381D02*
X36033333Y-23952381D01*
X36128571Y-24571429D02*
X36414286Y-24952381D01*
X36414286Y-24285714D02*
X36033333Y-24666667D01*
X36747619Y-23952381D02*
X37414286Y-23952381D01*
X36985714Y-24952381D01*
X60209935Y-51935021D02*
X60209935Y-52744545D01*
X60257554Y-52839783D01*
X60305173Y-52887402D01*
X60400411Y-52935021D01*
X60590888Y-52935021D01*
X60686126Y-52887402D01*
X60733745Y-52839783D01*
X60781364Y-52744545D01*
X60781364Y-51935021D01*
X61162316Y-51935021D02*
X61781364Y-51935021D01*
X61448030Y-52315973D01*
X61590888Y-52315973D01*
X61686126Y-52363592D01*
X61733745Y-52411211D01*
X61781364Y-52506450D01*
X61781364Y-52744545D01*
X61733745Y-52839783D01*
X61686126Y-52887402D01*
X61590888Y-52935021D01*
X61305173Y-52935021D01*
X61209935Y-52887402D01*
X61162316Y-52839783D01*
X58513145Y-56075221D02*
X59179812Y-56075221D01*
X58751240Y-57075221D01*
X59989336Y-56408554D02*
X59989336Y-57075221D01*
X59751240Y-56027602D02*
X59513145Y-56741888D01*
X60132193Y-56741888D01*
X61036955Y-57075221D02*
X60465526Y-57075221D01*
X60751240Y-57075221D02*
X60751240Y-56075221D01*
X60656002Y-56218078D01*
X60560764Y-56313316D01*
X60465526Y-56360935D01*
X61989336Y-56122840D02*
X61894098Y-56075221D01*
X61751241Y-56075221D01*
X61608383Y-56122840D01*
X61513145Y-56218078D01*
X61465526Y-56313316D01*
X61417907Y-56503792D01*
X61417907Y-56646650D01*
X61465526Y-56837126D01*
X61513145Y-56932364D01*
X61608383Y-57027602D01*
X61751241Y-57075221D01*
X61846479Y-57075221D01*
X61989336Y-57027602D01*
X62036955Y-56979983D01*
X62036955Y-56646650D01*
X61846479Y-56646650D01*
X62370288Y-56075221D02*
X63036955Y-56075221D01*
X62608383Y-57075221D01*
X63846479Y-56408554D02*
X63846479Y-57075221D01*
X63608383Y-56027602D02*
X63370288Y-56741888D01*
X63989336Y-56741888D01*
X60209935Y-46435021D02*
X60209935Y-47244545D01*
X60257554Y-47339783D01*
X60305173Y-47387402D01*
X60400411Y-47435021D01*
X60590888Y-47435021D01*
X60686126Y-47387402D01*
X60733745Y-47339783D01*
X60781364Y-47244545D01*
X60781364Y-46435021D01*
X61686126Y-46768354D02*
X61686126Y-47435021D01*
X61448030Y-46387402D02*
X61209935Y-47101688D01*
X61828983Y-47101688D01*
X58513145Y-50575221D02*
X59179812Y-50575221D01*
X58751240Y-51575221D01*
X59989336Y-50908554D02*
X59989336Y-51575221D01*
X59751240Y-50527602D02*
X59513145Y-51241888D01*
X60132193Y-51241888D01*
X61036955Y-51575221D02*
X60465526Y-51575221D01*
X60751240Y-51575221D02*
X60751240Y-50575221D01*
X60656002Y-50718078D01*
X60560764Y-50813316D01*
X60465526Y-50860935D01*
X61989336Y-50622840D02*
X61894098Y-50575221D01*
X61751241Y-50575221D01*
X61608383Y-50622840D01*
X61513145Y-50718078D01*
X61465526Y-50813316D01*
X61417907Y-51003792D01*
X61417907Y-51146650D01*
X61465526Y-51337126D01*
X61513145Y-51432364D01*
X61608383Y-51527602D01*
X61751241Y-51575221D01*
X61846479Y-51575221D01*
X61989336Y-51527602D01*
X62036955Y-51479983D01*
X62036955Y-51146650D01*
X61846479Y-51146650D01*
X62370288Y-50575221D02*
X63036955Y-50575221D01*
X62608383Y-51575221D01*
X63846479Y-50908554D02*
X63846479Y-51575221D01*
X63608383Y-50527602D02*
X63370288Y-51241888D01*
X63989336Y-51241888D01*
X60209935Y-63235021D02*
X60209935Y-64044545D01*
X60257554Y-64139783D01*
X60305173Y-64187402D01*
X60400411Y-64235021D01*
X60590888Y-64235021D01*
X60686126Y-64187402D01*
X60733745Y-64139783D01*
X60781364Y-64044545D01*
X60781364Y-63235021D01*
X61733745Y-63235021D02*
X61257554Y-63235021D01*
X61209935Y-63711211D01*
X61257554Y-63663592D01*
X61352792Y-63615973D01*
X61590888Y-63615973D01*
X61686126Y-63663592D01*
X61733745Y-63711211D01*
X61781364Y-63806450D01*
X61781364Y-64044545D01*
X61733745Y-64139783D01*
X61686126Y-64187402D01*
X61590888Y-64235021D01*
X61352792Y-64235021D01*
X61257554Y-64187402D01*
X61209935Y-64139783D01*
X58513145Y-67375221D02*
X59179812Y-67375221D01*
X58751240Y-68375221D01*
X59989336Y-67708554D02*
X59989336Y-68375221D01*
X59751240Y-67327602D02*
X59513145Y-68041888D01*
X60132193Y-68041888D01*
X61036955Y-68375221D02*
X60465526Y-68375221D01*
X60751240Y-68375221D02*
X60751240Y-67375221D01*
X60656002Y-67518078D01*
X60560764Y-67613316D01*
X60465526Y-67660935D01*
X61989336Y-67422840D02*
X61894098Y-67375221D01*
X61751241Y-67375221D01*
X61608383Y-67422840D01*
X61513145Y-67518078D01*
X61465526Y-67613316D01*
X61417907Y-67803792D01*
X61417907Y-67946650D01*
X61465526Y-68137126D01*
X61513145Y-68232364D01*
X61608383Y-68327602D01*
X61751241Y-68375221D01*
X61846479Y-68375221D01*
X61989336Y-68327602D01*
X62036955Y-68279983D01*
X62036955Y-67946650D01*
X61846479Y-67946650D01*
X62370288Y-67375221D02*
X63036955Y-67375221D01*
X62608383Y-68375221D01*
X63846479Y-67708554D02*
X63846479Y-68375221D01*
X63608383Y-67327602D02*
X63370288Y-68041888D01*
X63989336Y-68041888D01*
X60209935Y-57535021D02*
X60209935Y-58344545D01*
X60257554Y-58439783D01*
X60305173Y-58487402D01*
X60400411Y-58535021D01*
X60590888Y-58535021D01*
X60686126Y-58487402D01*
X60733745Y-58439783D01*
X60781364Y-58344545D01*
X60781364Y-57535021D01*
X61686126Y-57535021D02*
X61495649Y-57535021D01*
X61400411Y-57582640D01*
X61352792Y-57630259D01*
X61257554Y-57773116D01*
X61209935Y-57963592D01*
X61209935Y-58344545D01*
X61257554Y-58439783D01*
X61305173Y-58487402D01*
X61400411Y-58535021D01*
X61590888Y-58535021D01*
X61686126Y-58487402D01*
X61733745Y-58439783D01*
X61781364Y-58344545D01*
X61781364Y-58106450D01*
X61733745Y-58011211D01*
X61686126Y-57963592D01*
X61590888Y-57915973D01*
X61400411Y-57915973D01*
X61305173Y-57963592D01*
X61257554Y-58011211D01*
X61209935Y-58106450D01*
X58513145Y-61675221D02*
X59179812Y-61675221D01*
X58751240Y-62675221D01*
X59989336Y-62008554D02*
X59989336Y-62675221D01*
X59751240Y-61627602D02*
X59513145Y-62341888D01*
X60132193Y-62341888D01*
X61036955Y-62675221D02*
X60465526Y-62675221D01*
X60751240Y-62675221D02*
X60751240Y-61675221D01*
X60656002Y-61818078D01*
X60560764Y-61913316D01*
X60465526Y-61960935D01*
X61989336Y-61722840D02*
X61894098Y-61675221D01*
X61751241Y-61675221D01*
X61608383Y-61722840D01*
X61513145Y-61818078D01*
X61465526Y-61913316D01*
X61417907Y-62103792D01*
X61417907Y-62246650D01*
X61465526Y-62437126D01*
X61513145Y-62532364D01*
X61608383Y-62627602D01*
X61751241Y-62675221D01*
X61846479Y-62675221D01*
X61989336Y-62627602D01*
X62036955Y-62579983D01*
X62036955Y-62246650D01*
X61846479Y-62246650D01*
X62370288Y-61675221D02*
X63036955Y-61675221D01*
X62608383Y-62675221D01*
X63846479Y-62008554D02*
X63846479Y-62675221D01*
X63608383Y-61627602D02*
X63370288Y-62341888D01*
X63989336Y-62341888D01*
X111090855Y-51661541D02*
X111090855Y-52471065D01*
X111138474Y-52566303D01*
X111186093Y-52613922D01*
X111281331Y-52661541D01*
X111471808Y-52661541D01*
X111567046Y-52613922D01*
X111614665Y-52566303D01*
X111662284Y-52471065D01*
X111662284Y-51661541D01*
X112043236Y-51661541D02*
X112709903Y-51661541D01*
X112281331Y-52661541D01*
X114102381Y-56666666D02*
X114102381Y-57238095D01*
X114102381Y-56952381D02*
X113102381Y-56952381D01*
X113245238Y-57047619D01*
X113340476Y-57142857D01*
X113388095Y-57238095D01*
X113150000Y-55714285D02*
X113102381Y-55809523D01*
X113102381Y-55952380D01*
X113150000Y-56095238D01*
X113245238Y-56190476D01*
X113340476Y-56238095D01*
X113530952Y-56285714D01*
X113673810Y-56285714D01*
X113864286Y-56238095D01*
X113959524Y-56190476D01*
X114054762Y-56095238D01*
X114102381Y-55952380D01*
X114102381Y-55857142D01*
X114054762Y-55714285D01*
X114007143Y-55666666D01*
X113673810Y-55666666D01*
X113673810Y-55857142D01*
X113102381Y-55047619D02*
X113102381Y-54952380D01*
X113150000Y-54857142D01*
X113197619Y-54809523D01*
X113292857Y-54761904D01*
X113483333Y-54714285D01*
X113721429Y-54714285D01*
X113911905Y-54761904D01*
X114007143Y-54809523D01*
X114054762Y-54857142D01*
X114102381Y-54952380D01*
X114102381Y-55047619D01*
X114054762Y-55142857D01*
X114007143Y-55190476D01*
X113911905Y-55238095D01*
X113721429Y-55285714D01*
X113483333Y-55285714D01*
X113292857Y-55238095D01*
X113197619Y-55190476D01*
X113150000Y-55142857D01*
X113102381Y-55047619D01*
X113435714Y-53857142D02*
X114102381Y-53857142D01*
X113054762Y-54095238D02*
X113769048Y-54333333D01*
X113769048Y-53714285D01*
X66338095Y-34652381D02*
X66338095Y-35461905D01*
X66385714Y-35557143D01*
X66433333Y-35604762D01*
X66528571Y-35652381D01*
X66719048Y-35652381D01*
X66814286Y-35604762D01*
X66861905Y-35557143D01*
X66909524Y-35461905D01*
X66909524Y-34652381D01*
X67528571Y-35080952D02*
X67433333Y-35033333D01*
X67385714Y-34985714D01*
X67338095Y-34890476D01*
X67338095Y-34842857D01*
X67385714Y-34747619D01*
X67433333Y-34700000D01*
X67528571Y-34652381D01*
X67719048Y-34652381D01*
X67814286Y-34700000D01*
X67861905Y-34747619D01*
X67909524Y-34842857D01*
X67909524Y-34890476D01*
X67861905Y-34985714D01*
X67814286Y-35033333D01*
X67719048Y-35080952D01*
X67528571Y-35080952D01*
X67433333Y-35128571D01*
X67385714Y-35176190D01*
X67338095Y-35271429D01*
X67338095Y-35461905D01*
X67385714Y-35557143D01*
X67433333Y-35604762D01*
X67528571Y-35652381D01*
X67719048Y-35652381D01*
X67814286Y-35604762D01*
X67861905Y-35557143D01*
X67909524Y-35461905D01*
X67909524Y-35271429D01*
X67861905Y-35176190D01*
X67814286Y-35128571D01*
X67719048Y-35080952D01*
X69452381Y-40242857D02*
X69452381Y-40814286D01*
X69452381Y-40528572D02*
X68452381Y-40528572D01*
X68595238Y-40623810D01*
X68690476Y-40719048D01*
X68738095Y-40814286D01*
X68500000Y-39290476D02*
X68452381Y-39385714D01*
X68452381Y-39528571D01*
X68500000Y-39671429D01*
X68595238Y-39766667D01*
X68690476Y-39814286D01*
X68880952Y-39861905D01*
X69023810Y-39861905D01*
X69214286Y-39814286D01*
X69309524Y-39766667D01*
X69404762Y-39671429D01*
X69452381Y-39528571D01*
X69452381Y-39433333D01*
X69404762Y-39290476D01*
X69357143Y-39242857D01*
X69023810Y-39242857D01*
X69023810Y-39433333D01*
X69452381Y-38290476D02*
X69452381Y-38861905D01*
X69452381Y-38576191D02*
X68452381Y-38576191D01*
X68595238Y-38671429D01*
X68690476Y-38766667D01*
X68738095Y-38861905D01*
X68547619Y-37909524D02*
X68500000Y-37861905D01*
X68452381Y-37766667D01*
X68452381Y-37528571D01*
X68500000Y-37433333D01*
X68547619Y-37385714D01*
X68642857Y-37338095D01*
X68738095Y-37338095D01*
X68880952Y-37385714D01*
X69452381Y-37957143D01*
X69452381Y-37338095D01*
X68452381Y-36433333D02*
X68452381Y-36909524D01*
X68928571Y-36957143D01*
X68880952Y-36909524D01*
X68833333Y-36814286D01*
X68833333Y-36576190D01*
X68880952Y-36480952D01*
X68928571Y-36433333D01*
X69023810Y-36385714D01*
X69261905Y-36385714D01*
X69357143Y-36433333D01*
X69404762Y-36480952D01*
X69452381Y-36576190D01*
X69452381Y-36814286D01*
X69404762Y-36909524D01*
X69357143Y-36957143D01*
X71438095Y-34652381D02*
X71438095Y-35461905D01*
X71485714Y-35557143D01*
X71533333Y-35604762D01*
X71628571Y-35652381D01*
X71819048Y-35652381D01*
X71914286Y-35604762D01*
X71961905Y-35557143D01*
X72009524Y-35461905D01*
X72009524Y-34652381D01*
X72533333Y-35652381D02*
X72723809Y-35652381D01*
X72819048Y-35604762D01*
X72866667Y-35557143D01*
X72961905Y-35414286D01*
X73009524Y-35223810D01*
X73009524Y-34842857D01*
X72961905Y-34747619D01*
X72914286Y-34700000D01*
X72819048Y-34652381D01*
X72628571Y-34652381D01*
X72533333Y-34700000D01*
X72485714Y-34747619D01*
X72438095Y-34842857D01*
X72438095Y-35080952D01*
X72485714Y-35176190D01*
X72533333Y-35223810D01*
X72628571Y-35271429D01*
X72819048Y-35271429D01*
X72914286Y-35223810D01*
X72961905Y-35176190D01*
X73009524Y-35080952D01*
X74549621Y-40233697D02*
X74549621Y-40805126D01*
X74549621Y-40519412D02*
X73549621Y-40519412D01*
X73692478Y-40614650D01*
X73787716Y-40709888D01*
X73835335Y-40805126D01*
X73597240Y-39281316D02*
X73549621Y-39376554D01*
X73549621Y-39519411D01*
X73597240Y-39662269D01*
X73692478Y-39757507D01*
X73787716Y-39805126D01*
X73978192Y-39852745D01*
X74121050Y-39852745D01*
X74311526Y-39805126D01*
X74406764Y-39757507D01*
X74502002Y-39662269D01*
X74549621Y-39519411D01*
X74549621Y-39424173D01*
X74502002Y-39281316D01*
X74454383Y-39233697D01*
X74121050Y-39233697D01*
X74121050Y-39424173D01*
X74549621Y-38281316D02*
X74549621Y-38852745D01*
X74549621Y-38567031D02*
X73549621Y-38567031D01*
X73692478Y-38662269D01*
X73787716Y-38757507D01*
X73835335Y-38852745D01*
X73644859Y-37900364D02*
X73597240Y-37852745D01*
X73549621Y-37757507D01*
X73549621Y-37519411D01*
X73597240Y-37424173D01*
X73644859Y-37376554D01*
X73740097Y-37328935D01*
X73835335Y-37328935D01*
X73978192Y-37376554D01*
X74549621Y-37947983D01*
X74549621Y-37328935D01*
X73549621Y-36424173D02*
X73549621Y-36900364D01*
X74025811Y-36947983D01*
X73978192Y-36900364D01*
X73930573Y-36805126D01*
X73930573Y-36567030D01*
X73978192Y-36471792D01*
X74025811Y-36424173D01*
X74121050Y-36376554D01*
X74359145Y-36376554D01*
X74454383Y-36424173D01*
X74502002Y-36471792D01*
X74549621Y-36567030D01*
X74549621Y-36805126D01*
X74502002Y-36900364D01*
X74454383Y-36947983D01*
X76261905Y-34652381D02*
X76261905Y-35461905D01*
X76309524Y-35557143D01*
X76357143Y-35604762D01*
X76452381Y-35652381D01*
X76642858Y-35652381D01*
X76738096Y-35604762D01*
X76785715Y-35557143D01*
X76833334Y-35461905D01*
X76833334Y-34652381D01*
X77833334Y-35652381D02*
X77261905Y-35652381D01*
X77547619Y-35652381D02*
X77547619Y-34652381D01*
X77452381Y-34795238D01*
X77357143Y-34890476D01*
X77261905Y-34938095D01*
X78452381Y-34652381D02*
X78547620Y-34652381D01*
X78642858Y-34700000D01*
X78690477Y-34747619D01*
X78738096Y-34842857D01*
X78785715Y-35033333D01*
X78785715Y-35271429D01*
X78738096Y-35461905D01*
X78690477Y-35557143D01*
X78642858Y-35604762D01*
X78547620Y-35652381D01*
X78452381Y-35652381D01*
X78357143Y-35604762D01*
X78309524Y-35557143D01*
X78261905Y-35461905D01*
X78214286Y-35271429D01*
X78214286Y-35033333D01*
X78261905Y-34842857D01*
X78309524Y-34747619D01*
X78357143Y-34700000D01*
X78452381Y-34652381D01*
X79849621Y-40233697D02*
X79849621Y-40805126D01*
X79849621Y-40519412D02*
X78849621Y-40519412D01*
X78992478Y-40614650D01*
X79087716Y-40709888D01*
X79135335Y-40805126D01*
X78897240Y-39281316D02*
X78849621Y-39376554D01*
X78849621Y-39519411D01*
X78897240Y-39662269D01*
X78992478Y-39757507D01*
X79087716Y-39805126D01*
X79278192Y-39852745D01*
X79421050Y-39852745D01*
X79611526Y-39805126D01*
X79706764Y-39757507D01*
X79802002Y-39662269D01*
X79849621Y-39519411D01*
X79849621Y-39424173D01*
X79802002Y-39281316D01*
X79754383Y-39233697D01*
X79421050Y-39233697D01*
X79421050Y-39424173D01*
X79849621Y-38281316D02*
X79849621Y-38852745D01*
X79849621Y-38567031D02*
X78849621Y-38567031D01*
X78992478Y-38662269D01*
X79087716Y-38757507D01*
X79135335Y-38852745D01*
X78944859Y-37900364D02*
X78897240Y-37852745D01*
X78849621Y-37757507D01*
X78849621Y-37519411D01*
X78897240Y-37424173D01*
X78944859Y-37376554D01*
X79040097Y-37328935D01*
X79135335Y-37328935D01*
X79278192Y-37376554D01*
X79849621Y-37947983D01*
X79849621Y-37328935D01*
X78849621Y-36424173D02*
X78849621Y-36900364D01*
X79325811Y-36947983D01*
X79278192Y-36900364D01*
X79230573Y-36805126D01*
X79230573Y-36567030D01*
X79278192Y-36471792D01*
X79325811Y-36424173D01*
X79421050Y-36376554D01*
X79659145Y-36376554D01*
X79754383Y-36424173D01*
X79802002Y-36471792D01*
X79849621Y-36567030D01*
X79849621Y-36805126D01*
X79802002Y-36900364D01*
X79754383Y-36947983D01*
X81661905Y-34652381D02*
X81661905Y-35461905D01*
X81709524Y-35557143D01*
X81757143Y-35604762D01*
X81852381Y-35652381D01*
X82042858Y-35652381D01*
X82138096Y-35604762D01*
X82185715Y-35557143D01*
X82233334Y-35461905D01*
X82233334Y-34652381D01*
X83233334Y-35652381D02*
X82661905Y-35652381D01*
X82947619Y-35652381D02*
X82947619Y-34652381D01*
X82852381Y-34795238D01*
X82757143Y-34890476D01*
X82661905Y-34938095D01*
X84185715Y-35652381D02*
X83614286Y-35652381D01*
X83900000Y-35652381D02*
X83900000Y-34652381D01*
X83804762Y-34795238D01*
X83709524Y-34890476D01*
X83614286Y-34938095D01*
X85502381Y-40242857D02*
X85502381Y-40814286D01*
X85502381Y-40528572D02*
X84502381Y-40528572D01*
X84645238Y-40623810D01*
X84740476Y-40719048D01*
X84788095Y-40814286D01*
X84550000Y-39290476D02*
X84502381Y-39385714D01*
X84502381Y-39528571D01*
X84550000Y-39671429D01*
X84645238Y-39766667D01*
X84740476Y-39814286D01*
X84930952Y-39861905D01*
X85073810Y-39861905D01*
X85264286Y-39814286D01*
X85359524Y-39766667D01*
X85454762Y-39671429D01*
X85502381Y-39528571D01*
X85502381Y-39433333D01*
X85454762Y-39290476D01*
X85407143Y-39242857D01*
X85073810Y-39242857D01*
X85073810Y-39433333D01*
X85502381Y-38290476D02*
X85502381Y-38861905D01*
X85502381Y-38576191D02*
X84502381Y-38576191D01*
X84645238Y-38671429D01*
X84740476Y-38766667D01*
X84788095Y-38861905D01*
X84597619Y-37909524D02*
X84550000Y-37861905D01*
X84502381Y-37766667D01*
X84502381Y-37528571D01*
X84550000Y-37433333D01*
X84597619Y-37385714D01*
X84692857Y-37338095D01*
X84788095Y-37338095D01*
X84930952Y-37385714D01*
X85502381Y-37957143D01*
X85502381Y-37338095D01*
X84502381Y-36433333D02*
X84502381Y-36909524D01*
X84978571Y-36957143D01*
X84930952Y-36909524D01*
X84883333Y-36814286D01*
X84883333Y-36576190D01*
X84930952Y-36480952D01*
X84978571Y-36433333D01*
X85073810Y-36385714D01*
X85311905Y-36385714D01*
X85407143Y-36433333D01*
X85454762Y-36480952D01*
X85502381Y-36576190D01*
X85502381Y-36814286D01*
X85454762Y-36909524D01*
X85407143Y-36957143D01*
X43461905Y-65302381D02*
X43461905Y-66111905D01*
X43509524Y-66207143D01*
X43557143Y-66254762D01*
X43652381Y-66302381D01*
X43842858Y-66302381D01*
X43938096Y-66254762D01*
X43985715Y-66207143D01*
X44033334Y-66111905D01*
X44033334Y-65302381D01*
X45033334Y-66302381D02*
X44461905Y-66302381D01*
X44747619Y-66302381D02*
X44747619Y-65302381D01*
X44652381Y-65445238D01*
X44557143Y-65540476D01*
X44461905Y-65588095D01*
X45890477Y-65635714D02*
X45890477Y-66302381D01*
X45652381Y-65254762D02*
X45414286Y-65969048D01*
X46033334Y-65969048D01*
X42716666Y-69516667D02*
X43116666Y-69516667D01*
X42916666Y-70216667D02*
X42916666Y-69516667D01*
X43316665Y-70183333D02*
X43416665Y-70216667D01*
X43583332Y-70216667D01*
X43649999Y-70183333D01*
X43683332Y-70150000D01*
X43716665Y-70083333D01*
X43716665Y-70016667D01*
X43683332Y-69950000D01*
X43649999Y-69916667D01*
X43583332Y-69883333D01*
X43449999Y-69850000D01*
X43383332Y-69816667D01*
X43349999Y-69783333D01*
X43316665Y-69716667D01*
X43316665Y-69650000D01*
X43349999Y-69583333D01*
X43383332Y-69550000D01*
X43449999Y-69516667D01*
X43616665Y-69516667D01*
X43716665Y-69550000D01*
X44349999Y-69516667D02*
X44016666Y-69516667D01*
X43983332Y-69850000D01*
X44016666Y-69816667D01*
X44083332Y-69783333D01*
X44249999Y-69783333D01*
X44316666Y-69816667D01*
X44349999Y-69850000D01*
X44383332Y-69916667D01*
X44383332Y-70083333D01*
X44349999Y-70150000D01*
X44316666Y-70183333D01*
X44249999Y-70216667D01*
X44083332Y-70216667D01*
X44016666Y-70183333D01*
X43983332Y-70150000D01*
X44649999Y-70016667D02*
X44983333Y-70016667D01*
X44583333Y-70216667D02*
X44816666Y-69516667D01*
X45049999Y-70216667D01*
X45249999Y-69583333D02*
X45283333Y-69550000D01*
X45349999Y-69516667D01*
X45516666Y-69516667D01*
X45583333Y-69550000D01*
X45616666Y-69583333D01*
X45649999Y-69650000D01*
X45649999Y-69716667D01*
X45616666Y-69816667D01*
X45216666Y-70216667D01*
X45649999Y-70216667D01*
X46316666Y-70216667D02*
X45916666Y-70216667D01*
X46116666Y-70216667D02*
X46116666Y-69516667D01*
X46050000Y-69616667D01*
X45983333Y-69683333D01*
X45916666Y-69716667D01*
X46550000Y-69516667D02*
X46983333Y-69516667D01*
X46750000Y-69783333D01*
X46850000Y-69783333D01*
X46916667Y-69816667D01*
X46950000Y-69850000D01*
X46983333Y-69916667D01*
X46983333Y-70083333D01*
X46950000Y-70150000D01*
X46916667Y-70183333D01*
X46850000Y-70216667D01*
X46650000Y-70216667D01*
X46583333Y-70183333D01*
X46550000Y-70150000D01*
X47583334Y-69516667D02*
X47450000Y-69516667D01*
X47383334Y-69550000D01*
X47350000Y-69583333D01*
X47283334Y-69683333D01*
X47250000Y-69816667D01*
X47250000Y-70083333D01*
X47283334Y-70150000D01*
X47316667Y-70183333D01*
X47383334Y-70216667D01*
X47516667Y-70216667D01*
X47583334Y-70183333D01*
X47616667Y-70150000D01*
X47650000Y-70083333D01*
X47650000Y-69916667D01*
X47616667Y-69850000D01*
X47583334Y-69816667D01*
X47516667Y-69783333D01*
X47383334Y-69783333D01*
X47316667Y-69816667D01*
X47283334Y-69850000D01*
X47250000Y-69916667D01*
X48250001Y-69516667D02*
X48116667Y-69516667D01*
X48050001Y-69550000D01*
X48016667Y-69583333D01*
X47950001Y-69683333D01*
X47916667Y-69816667D01*
X47916667Y-70083333D01*
X47950001Y-70150000D01*
X47983334Y-70183333D01*
X48050001Y-70216667D01*
X48183334Y-70216667D01*
X48250001Y-70183333D01*
X48283334Y-70150000D01*
X48316667Y-70083333D01*
X48316667Y-69916667D01*
X48283334Y-69850000D01*
X48250001Y-69816667D01*
X48183334Y-69783333D01*
X48050001Y-69783333D01*
X47983334Y-69816667D01*
X47950001Y-69850000D01*
X47916667Y-69916667D01*
X43333745Y-28735021D02*
X43333745Y-29544545D01*
X43381364Y-29639783D01*
X43428983Y-29687402D01*
X43524221Y-29735021D01*
X43714698Y-29735021D01*
X43809936Y-29687402D01*
X43857555Y-29639783D01*
X43905174Y-29544545D01*
X43905174Y-28735021D01*
X44905174Y-29735021D02*
X44333745Y-29735021D01*
X44619459Y-29735021D02*
X44619459Y-28735021D01*
X44524221Y-28877878D01*
X44428983Y-28973116D01*
X44333745Y-29020735D01*
X45809936Y-28735021D02*
X45333745Y-28735021D01*
X45286126Y-29211211D01*
X45333745Y-29163592D01*
X45428983Y-29115973D01*
X45667079Y-29115973D01*
X45762317Y-29163592D01*
X45809936Y-29211211D01*
X45857555Y-29306450D01*
X45857555Y-29544545D01*
X45809936Y-29639783D01*
X45762317Y-29687402D01*
X45667079Y-29735021D01*
X45428983Y-29735021D01*
X45333745Y-29687402D01*
X45286126Y-29639783D01*
D16*
X43676193Y-32826190D02*
X43961907Y-32826190D01*
X43819050Y-33326190D02*
X43819050Y-32826190D01*
X44104764Y-33302381D02*
X44176193Y-33326190D01*
X44295240Y-33326190D01*
X44342859Y-33302381D01*
X44366669Y-33278571D01*
X44390478Y-33230952D01*
X44390478Y-33183333D01*
X44366669Y-33135714D01*
X44342859Y-33111905D01*
X44295240Y-33088095D01*
X44200002Y-33064286D01*
X44152383Y-33040476D01*
X44128574Y-33016667D01*
X44104764Y-32969048D01*
X44104764Y-32921429D01*
X44128574Y-32873810D01*
X44152383Y-32850000D01*
X44200002Y-32826190D01*
X44319050Y-32826190D01*
X44390478Y-32850000D01*
X44842859Y-32826190D02*
X44604764Y-32826190D01*
X44580954Y-33064286D01*
X44604764Y-33040476D01*
X44652383Y-33016667D01*
X44771430Y-33016667D01*
X44819049Y-33040476D01*
X44842859Y-33064286D01*
X44866668Y-33111905D01*
X44866668Y-33230952D01*
X44842859Y-33278571D01*
X44819049Y-33302381D01*
X44771430Y-33326190D01*
X44652383Y-33326190D01*
X44604764Y-33302381D01*
X44580954Y-33278571D01*
X45057144Y-33183333D02*
X45295239Y-33183333D01*
X45009525Y-33326190D02*
X45176192Y-32826190D01*
X45342858Y-33326190D01*
X45485715Y-32873810D02*
X45509525Y-32850000D01*
X45557144Y-32826190D01*
X45676191Y-32826190D01*
X45723810Y-32850000D01*
X45747620Y-32873810D01*
X45771429Y-32921429D01*
X45771429Y-32969048D01*
X45747620Y-33040476D01*
X45461906Y-33326190D01*
X45771429Y-33326190D01*
X46247619Y-33326190D02*
X45961905Y-33326190D01*
X46104762Y-33326190D02*
X46104762Y-32826190D01*
X46057143Y-32897619D01*
X46009524Y-32945238D01*
X45961905Y-32969048D01*
X46414286Y-32826190D02*
X46723809Y-32826190D01*
X46557143Y-33016667D01*
X46628571Y-33016667D01*
X46676190Y-33040476D01*
X46700000Y-33064286D01*
X46723809Y-33111905D01*
X46723809Y-33230952D01*
X46700000Y-33278571D01*
X46676190Y-33302381D01*
X46628571Y-33326190D01*
X46485714Y-33326190D01*
X46438095Y-33302381D01*
X46414286Y-33278571D01*
X47152380Y-32826190D02*
X47057142Y-32826190D01*
X47009523Y-32850000D01*
X46985714Y-32873810D01*
X46938095Y-32945238D01*
X46914285Y-33040476D01*
X46914285Y-33230952D01*
X46938095Y-33278571D01*
X46961904Y-33302381D01*
X47009523Y-33326190D01*
X47104761Y-33326190D01*
X47152380Y-33302381D01*
X47176190Y-33278571D01*
X47199999Y-33230952D01*
X47199999Y-33111905D01*
X47176190Y-33064286D01*
X47152380Y-33040476D01*
X47104761Y-33016667D01*
X47009523Y-33016667D01*
X46961904Y-33040476D01*
X46938095Y-33064286D01*
X46914285Y-33111905D01*
X47628570Y-32826190D02*
X47533332Y-32826190D01*
X47485713Y-32850000D01*
X47461904Y-32873810D01*
X47414285Y-32945238D01*
X47390475Y-33040476D01*
X47390475Y-33230952D01*
X47414285Y-33278571D01*
X47438094Y-33302381D01*
X47485713Y-33326190D01*
X47580951Y-33326190D01*
X47628570Y-33302381D01*
X47652380Y-33278571D01*
X47676189Y-33230952D01*
X47676189Y-33111905D01*
X47652380Y-33064286D01*
X47628570Y-33040476D01*
X47580951Y-33016667D01*
X47485713Y-33016667D01*
X47438094Y-33040476D01*
X47414285Y-33064286D01*
X47390475Y-33111905D01*
D13*
X52557143Y-55602381D02*
X52223809Y-55126190D01*
X51985714Y-55602381D02*
X51985714Y-54602381D01*
X52366667Y-54602381D01*
X52461905Y-54650000D01*
X52509524Y-54697619D01*
X52557143Y-54792857D01*
X52557143Y-54935714D01*
X52509524Y-55030952D01*
X52461905Y-55078571D01*
X52366667Y-55126190D01*
X51985714Y-55126190D01*
X53509524Y-55602381D02*
X52938095Y-55602381D01*
X53223809Y-55602381D02*
X53223809Y-54602381D01*
X53128571Y-54745238D01*
X53033333Y-54840476D01*
X52938095Y-54888095D01*
X53985714Y-55602381D02*
X54176190Y-55602381D01*
X54271429Y-55554762D01*
X54319048Y-55507143D01*
X54414286Y-55364286D01*
X54461905Y-55173810D01*
X54461905Y-54792857D01*
X54414286Y-54697619D01*
X54366667Y-54650000D01*
X54271429Y-54602381D01*
X54080952Y-54602381D01*
X53985714Y-54650000D01*
X53938095Y-54697619D01*
X53890476Y-54792857D01*
X53890476Y-55030952D01*
X53938095Y-55126190D01*
X53985714Y-55173810D01*
X54080952Y-55221429D01*
X54271429Y-55221429D01*
X54366667Y-55173810D01*
X54414286Y-55126190D01*
X54461905Y-55030952D01*
X52604762Y-59052381D02*
X52033333Y-59052381D01*
X52319047Y-59052381D02*
X52319047Y-58052381D01*
X52223809Y-58195238D01*
X52128571Y-58290476D01*
X52033333Y-58338095D01*
X53223809Y-58052381D02*
X53319048Y-58052381D01*
X53414286Y-58100000D01*
X53461905Y-58147619D01*
X53509524Y-58242857D01*
X53557143Y-58433333D01*
X53557143Y-58671429D01*
X53509524Y-58861905D01*
X53461905Y-58957143D01*
X53414286Y-59004762D01*
X53319048Y-59052381D01*
X53223809Y-59052381D01*
X53128571Y-59004762D01*
X53080952Y-58957143D01*
X53033333Y-58861905D01*
X52985714Y-58671429D01*
X52985714Y-58433333D01*
X53033333Y-58242857D01*
X53080952Y-58147619D01*
X53128571Y-58100000D01*
X53223809Y-58052381D01*
X53985714Y-59052381D02*
X53985714Y-58052381D01*
X54080952Y-58671429D02*
X54366667Y-59052381D01*
X54366667Y-58385714D02*
X53985714Y-58766667D01*
X52607143Y-50402381D02*
X52273809Y-49926190D01*
X52035714Y-50402381D02*
X52035714Y-49402381D01*
X52416667Y-49402381D01*
X52511905Y-49450000D01*
X52559524Y-49497619D01*
X52607143Y-49592857D01*
X52607143Y-49735714D01*
X52559524Y-49830952D01*
X52511905Y-49878571D01*
X52416667Y-49926190D01*
X52035714Y-49926190D01*
X52988095Y-49497619D02*
X53035714Y-49450000D01*
X53130952Y-49402381D01*
X53369048Y-49402381D01*
X53464286Y-49450000D01*
X53511905Y-49497619D01*
X53559524Y-49592857D01*
X53559524Y-49688095D01*
X53511905Y-49830952D01*
X52940476Y-50402381D01*
X53559524Y-50402381D01*
X54178571Y-49402381D02*
X54273810Y-49402381D01*
X54369048Y-49450000D01*
X54416667Y-49497619D01*
X54464286Y-49592857D01*
X54511905Y-49783333D01*
X54511905Y-50021429D01*
X54464286Y-50211905D01*
X54416667Y-50307143D01*
X54369048Y-50354762D01*
X54273810Y-50402381D01*
X54178571Y-50402381D01*
X54083333Y-50354762D01*
X54035714Y-50307143D01*
X53988095Y-50211905D01*
X53940476Y-50021429D01*
X53940476Y-49783333D01*
X53988095Y-49592857D01*
X54035714Y-49497619D01*
X54083333Y-49450000D01*
X54178571Y-49402381D01*
X52604762Y-53802381D02*
X52033333Y-53802381D01*
X52319047Y-53802381D02*
X52319047Y-52802381D01*
X52223809Y-52945238D01*
X52128571Y-53040476D01*
X52033333Y-53088095D01*
X53223809Y-52802381D02*
X53319048Y-52802381D01*
X53414286Y-52850000D01*
X53461905Y-52897619D01*
X53509524Y-52992857D01*
X53557143Y-53183333D01*
X53557143Y-53421429D01*
X53509524Y-53611905D01*
X53461905Y-53707143D01*
X53414286Y-53754762D01*
X53319048Y-53802381D01*
X53223809Y-53802381D01*
X53128571Y-53754762D01*
X53080952Y-53707143D01*
X53033333Y-53611905D01*
X52985714Y-53421429D01*
X52985714Y-53183333D01*
X53033333Y-52992857D01*
X53080952Y-52897619D01*
X53128571Y-52850000D01*
X53223809Y-52802381D01*
X53985714Y-53802381D02*
X53985714Y-52802381D01*
X54080952Y-53421429D02*
X54366667Y-53802381D01*
X54366667Y-53135714D02*
X53985714Y-53516667D01*
X54057143Y-65602381D02*
X53723809Y-65126190D01*
X53485714Y-65602381D02*
X53485714Y-64602381D01*
X53866667Y-64602381D01*
X53961905Y-64650000D01*
X54009524Y-64697619D01*
X54057143Y-64792857D01*
X54057143Y-64935714D01*
X54009524Y-65030952D01*
X53961905Y-65078571D01*
X53866667Y-65126190D01*
X53485714Y-65126190D01*
X54438095Y-64697619D02*
X54485714Y-64650000D01*
X54580952Y-64602381D01*
X54819048Y-64602381D01*
X54914286Y-64650000D01*
X54961905Y-64697619D01*
X55009524Y-64792857D01*
X55009524Y-64888095D01*
X54961905Y-65030952D01*
X54390476Y-65602381D01*
X55009524Y-65602381D01*
X55961905Y-65602381D02*
X55390476Y-65602381D01*
X55676190Y-65602381D02*
X55676190Y-64602381D01*
X55580952Y-64745238D01*
X55485714Y-64840476D01*
X55390476Y-64888095D01*
X54104762Y-69052381D02*
X53533333Y-69052381D01*
X53819047Y-69052381D02*
X53819047Y-68052381D01*
X53723809Y-68195238D01*
X53628571Y-68290476D01*
X53533333Y-68338095D01*
X54723809Y-68052381D02*
X54819048Y-68052381D01*
X54914286Y-68100000D01*
X54961905Y-68147619D01*
X55009524Y-68242857D01*
X55057143Y-68433333D01*
X55057143Y-68671429D01*
X55009524Y-68861905D01*
X54961905Y-68957143D01*
X54914286Y-69004762D01*
X54819048Y-69052381D01*
X54723809Y-69052381D01*
X54628571Y-69004762D01*
X54580952Y-68957143D01*
X54533333Y-68861905D01*
X54485714Y-68671429D01*
X54485714Y-68433333D01*
X54533333Y-68242857D01*
X54580952Y-68147619D01*
X54628571Y-68100000D01*
X54723809Y-68052381D01*
X55485714Y-69052381D02*
X55485714Y-68052381D01*
X55580952Y-68671429D02*
X55866667Y-69052381D01*
X55866667Y-68385714D02*
X55485714Y-68766667D01*
X54057143Y-60502381D02*
X53723809Y-60026190D01*
X53485714Y-60502381D02*
X53485714Y-59502381D01*
X53866667Y-59502381D01*
X53961905Y-59550000D01*
X54009524Y-59597619D01*
X54057143Y-59692857D01*
X54057143Y-59835714D01*
X54009524Y-59930952D01*
X53961905Y-59978571D01*
X53866667Y-60026190D01*
X53485714Y-60026190D01*
X54438095Y-59597619D02*
X54485714Y-59550000D01*
X54580952Y-59502381D01*
X54819048Y-59502381D01*
X54914286Y-59550000D01*
X54961905Y-59597619D01*
X55009524Y-59692857D01*
X55009524Y-59788095D01*
X54961905Y-59930952D01*
X54390476Y-60502381D01*
X55009524Y-60502381D01*
X55390476Y-59597619D02*
X55438095Y-59550000D01*
X55533333Y-59502381D01*
X55771429Y-59502381D01*
X55866667Y-59550000D01*
X55914286Y-59597619D01*
X55961905Y-59692857D01*
X55961905Y-59788095D01*
X55914286Y-59930952D01*
X55342857Y-60502381D01*
X55961905Y-60502381D01*
X54104762Y-63952381D02*
X53533333Y-63952381D01*
X53819047Y-63952381D02*
X53819047Y-62952381D01*
X53723809Y-63095238D01*
X53628571Y-63190476D01*
X53533333Y-63238095D01*
X54723809Y-62952381D02*
X54819048Y-62952381D01*
X54914286Y-63000000D01*
X54961905Y-63047619D01*
X55009524Y-63142857D01*
X55057143Y-63333333D01*
X55057143Y-63571429D01*
X55009524Y-63761905D01*
X54961905Y-63857143D01*
X54914286Y-63904762D01*
X54819048Y-63952381D01*
X54723809Y-63952381D01*
X54628571Y-63904762D01*
X54580952Y-63857143D01*
X54533333Y-63761905D01*
X54485714Y-63571429D01*
X54485714Y-63333333D01*
X54533333Y-63142857D01*
X54580952Y-63047619D01*
X54628571Y-63000000D01*
X54723809Y-62952381D01*
X55485714Y-63952381D02*
X55485714Y-62952381D01*
X55580952Y-63571429D02*
X55866667Y-63952381D01*
X55866667Y-63285714D02*
X55485714Y-63666667D01*
X48852381Y-35262493D02*
X49566667Y-35262493D01*
X49709524Y-35310113D01*
X49804762Y-35405351D01*
X49852381Y-35548208D01*
X49852381Y-35643446D01*
X49185714Y-34357731D02*
X49852381Y-34357731D01*
X48804762Y-34595827D02*
X49519048Y-34833922D01*
X49519048Y-34214874D01*
X37892857Y-44350589D02*
X37930952Y-44236303D01*
X37969048Y-44198208D01*
X38045238Y-44160113D01*
X38159524Y-44160113D01*
X38235714Y-44198208D01*
X38273810Y-44236303D01*
X38311905Y-44312494D01*
X38311905Y-44617256D01*
X37511905Y-44617256D01*
X37511905Y-44350589D01*
X37550000Y-44274399D01*
X37588095Y-44236303D01*
X37664286Y-44198208D01*
X37740476Y-44198208D01*
X37816667Y-44236303D01*
X37854762Y-44274399D01*
X37892857Y-44350589D01*
X37892857Y-44617256D01*
X37892857Y-43817256D02*
X37892857Y-43550589D01*
X38311905Y-43436303D02*
X38311905Y-43817256D01*
X37511905Y-43817256D01*
X37511905Y-43436303D01*
X38311905Y-42636303D02*
X37930952Y-42902970D01*
X38311905Y-43093446D02*
X37511905Y-43093446D01*
X37511905Y-42788684D01*
X37550000Y-42712493D01*
X37588095Y-42674398D01*
X37664286Y-42636303D01*
X37778571Y-42636303D01*
X37854762Y-42674398D01*
X37892857Y-42712493D01*
X37930952Y-42788684D01*
X37930952Y-43093446D01*
X37550000Y-41874398D02*
X37511905Y-41950589D01*
X37511905Y-42064874D01*
X37550000Y-42179160D01*
X37626190Y-42255351D01*
X37702381Y-42293446D01*
X37854762Y-42331541D01*
X37969048Y-42331541D01*
X38121429Y-42293446D01*
X38197619Y-42255351D01*
X38273810Y-42179160D01*
X38311905Y-42064874D01*
X38311905Y-41988684D01*
X38273810Y-41874398D01*
X38235714Y-41836303D01*
X37969048Y-41836303D01*
X37969048Y-41988684D01*
X37511905Y-41341065D02*
X37511905Y-41188684D01*
X37550000Y-41112493D01*
X37626190Y-41036303D01*
X37778571Y-40998208D01*
X38045238Y-40998208D01*
X38197619Y-41036303D01*
X38273810Y-41112493D01*
X38311905Y-41188684D01*
X38311905Y-41341065D01*
X38273810Y-41417255D01*
X38197619Y-41493446D01*
X38045238Y-41531541D01*
X37778571Y-41531541D01*
X37626190Y-41493446D01*
X37550000Y-41417255D01*
X37511905Y-41341065D01*
X37511905Y-40731541D02*
X37511905Y-40198208D01*
X38311905Y-40731541D01*
X38311905Y-40198208D01*
X38388095Y-40083922D02*
X38388095Y-39474398D01*
X37511905Y-39131541D02*
X37511905Y-39055350D01*
X37550000Y-38979160D01*
X37588095Y-38941065D01*
X37664286Y-38902969D01*
X37816667Y-38864874D01*
X38007143Y-38864874D01*
X38159524Y-38902969D01*
X38235714Y-38941065D01*
X38273810Y-38979160D01*
X38311905Y-39055350D01*
X38311905Y-39131541D01*
X38273810Y-39207731D01*
X38235714Y-39245827D01*
X38159524Y-39283922D01*
X38007143Y-39322017D01*
X37816667Y-39322017D01*
X37664286Y-39283922D01*
X37588095Y-39245827D01*
X37550000Y-39207731D01*
X37511905Y-39131541D01*
X37588095Y-38560112D02*
X37550000Y-38522017D01*
X37511905Y-38445826D01*
X37511905Y-38255350D01*
X37550000Y-38179160D01*
X37588095Y-38141064D01*
X37664286Y-38102969D01*
X37740476Y-38102969D01*
X37854762Y-38141064D01*
X38311905Y-38598207D01*
X38311905Y-38102969D01*
X48852381Y-51173333D02*
X49566667Y-51173333D01*
X49709524Y-51220953D01*
X49804762Y-51316191D01*
X49852381Y-51459048D01*
X49852381Y-51554286D01*
X48852381Y-50792381D02*
X48852381Y-50173333D01*
X49233333Y-50506667D01*
X49233333Y-50363809D01*
X49280952Y-50268571D01*
X49328571Y-50220952D01*
X49423810Y-50173333D01*
X49661905Y-50173333D01*
X49757143Y-50220952D01*
X49804762Y-50268571D01*
X49852381Y-50363809D01*
X49852381Y-50649524D01*
X49804762Y-50744762D01*
X49757143Y-50792381D01*
X37892857Y-60261429D02*
X37930952Y-60147143D01*
X37969048Y-60109048D01*
X38045238Y-60070953D01*
X38159524Y-60070953D01*
X38235714Y-60109048D01*
X38273810Y-60147143D01*
X38311905Y-60223334D01*
X38311905Y-60528096D01*
X37511905Y-60528096D01*
X37511905Y-60261429D01*
X37550000Y-60185239D01*
X37588095Y-60147143D01*
X37664286Y-60109048D01*
X37740476Y-60109048D01*
X37816667Y-60147143D01*
X37854762Y-60185239D01*
X37892857Y-60261429D01*
X37892857Y-60528096D01*
X37892857Y-59728096D02*
X37892857Y-59461429D01*
X38311905Y-59347143D02*
X38311905Y-59728096D01*
X37511905Y-59728096D01*
X37511905Y-59347143D01*
X38311905Y-58547143D02*
X37930952Y-58813810D01*
X38311905Y-59004286D02*
X37511905Y-59004286D01*
X37511905Y-58699524D01*
X37550000Y-58623333D01*
X37588095Y-58585238D01*
X37664286Y-58547143D01*
X37778571Y-58547143D01*
X37854762Y-58585238D01*
X37892857Y-58623333D01*
X37930952Y-58699524D01*
X37930952Y-59004286D01*
X37550000Y-57785238D02*
X37511905Y-57861429D01*
X37511905Y-57975714D01*
X37550000Y-58090000D01*
X37626190Y-58166191D01*
X37702381Y-58204286D01*
X37854762Y-58242381D01*
X37969048Y-58242381D01*
X38121429Y-58204286D01*
X38197619Y-58166191D01*
X38273810Y-58090000D01*
X38311905Y-57975714D01*
X38311905Y-57899524D01*
X38273810Y-57785238D01*
X38235714Y-57747143D01*
X37969048Y-57747143D01*
X37969048Y-57899524D01*
X37511905Y-57251905D02*
X37511905Y-57099524D01*
X37550000Y-57023333D01*
X37626190Y-56947143D01*
X37778571Y-56909048D01*
X38045238Y-56909048D01*
X38197619Y-56947143D01*
X38273810Y-57023333D01*
X38311905Y-57099524D01*
X38311905Y-57251905D01*
X38273810Y-57328095D01*
X38197619Y-57404286D01*
X38045238Y-57442381D01*
X37778571Y-57442381D01*
X37626190Y-57404286D01*
X37550000Y-57328095D01*
X37511905Y-57251905D01*
X37511905Y-56642381D02*
X37511905Y-56109048D01*
X38311905Y-56642381D01*
X38311905Y-56109048D01*
X38388095Y-55994762D02*
X38388095Y-55385238D01*
X37511905Y-55042381D02*
X37511905Y-54966190D01*
X37550000Y-54890000D01*
X37588095Y-54851905D01*
X37664286Y-54813809D01*
X37816667Y-54775714D01*
X38007143Y-54775714D01*
X38159524Y-54813809D01*
X38235714Y-54851905D01*
X38273810Y-54890000D01*
X38311905Y-54966190D01*
X38311905Y-55042381D01*
X38273810Y-55118571D01*
X38235714Y-55156667D01*
X38159524Y-55194762D01*
X38007143Y-55232857D01*
X37816667Y-55232857D01*
X37664286Y-55194762D01*
X37588095Y-55156667D01*
X37550000Y-55118571D01*
X37511905Y-55042381D01*
X38311905Y-54013809D02*
X38311905Y-54470952D01*
X38311905Y-54242381D02*
X37511905Y-54242381D01*
X37626190Y-54318571D01*
X37702381Y-54394762D01*
X37740476Y-54470952D01*
X161577999Y-89077731D02*
X161720856Y-89125350D01*
X161768475Y-89172970D01*
X161816094Y-89268208D01*
X161816094Y-89411065D01*
X161768475Y-89506303D01*
X161720856Y-89553922D01*
X161625618Y-89601541D01*
X161244665Y-89601541D01*
X161244665Y-88601541D01*
X161577999Y-88601541D01*
X161673237Y-88649160D01*
X161720856Y-88696779D01*
X161768475Y-88792017D01*
X161768475Y-88887255D01*
X161720856Y-88982493D01*
X161673237Y-89030112D01*
X161577999Y-89077731D01*
X161244665Y-89077731D01*
X162816094Y-89601541D02*
X162482760Y-89125350D01*
X162244665Y-89601541D02*
X162244665Y-88601541D01*
X162625618Y-88601541D01*
X162720856Y-88649160D01*
X162768475Y-88696779D01*
X162816094Y-88792017D01*
X162816094Y-88934874D01*
X162768475Y-89030112D01*
X162720856Y-89077731D01*
X162625618Y-89125350D01*
X162244665Y-89125350D01*
X163768475Y-89601541D02*
X163197046Y-89601541D01*
X163482760Y-89601541D02*
X163482760Y-88601541D01*
X163387522Y-88744398D01*
X163292284Y-88839636D01*
X163197046Y-88887255D01*
X158685141Y-98494398D02*
X157685141Y-98494398D01*
X157685141Y-98256303D01*
X157732760Y-98113445D01*
X157827998Y-98018207D01*
X157923236Y-97970588D01*
X158113712Y-97922969D01*
X158256570Y-97922969D01*
X158447046Y-97970588D01*
X158542284Y-98018207D01*
X158637522Y-98113445D01*
X158685141Y-98256303D01*
X158685141Y-98494398D01*
X158685141Y-97494398D02*
X158018474Y-97494398D01*
X157685141Y-97494398D02*
X157732760Y-97542017D01*
X157780379Y-97494398D01*
X157732760Y-97446779D01*
X157685141Y-97494398D01*
X157780379Y-97494398D01*
X158685141Y-96875351D02*
X158637522Y-96970589D01*
X158589903Y-97018208D01*
X158494665Y-97065827D01*
X158208950Y-97065827D01*
X158113712Y-97018208D01*
X158066093Y-96970589D01*
X158018474Y-96875351D01*
X158018474Y-96732493D01*
X158066093Y-96637255D01*
X158113712Y-96589636D01*
X158208950Y-96542017D01*
X158494665Y-96542017D01*
X158589903Y-96589636D01*
X158637522Y-96637255D01*
X158685141Y-96732493D01*
X158685141Y-96875351D01*
X158685141Y-95684874D02*
X157685141Y-95684874D01*
X158637522Y-95684874D02*
X158685141Y-95780112D01*
X158685141Y-95970589D01*
X158637522Y-96065827D01*
X158589903Y-96113446D01*
X158494665Y-96161065D01*
X158208950Y-96161065D01*
X158113712Y-96113446D01*
X158066093Y-96065827D01*
X158018474Y-95970589D01*
X158018474Y-95780112D01*
X158066093Y-95684874D01*
X158637522Y-94827731D02*
X158685141Y-94922969D01*
X158685141Y-95113446D01*
X158637522Y-95208684D01*
X158542284Y-95256303D01*
X158161331Y-95256303D01*
X158066093Y-95208684D01*
X158018474Y-95113446D01*
X158018474Y-94922969D01*
X158066093Y-94827731D01*
X158161331Y-94780112D01*
X158256570Y-94780112D01*
X158351808Y-95256303D01*
X158780379Y-94589636D02*
X158780379Y-93827731D01*
X158161331Y-93256302D02*
X158208950Y-93113445D01*
X158256570Y-93065826D01*
X158351808Y-93018207D01*
X158494665Y-93018207D01*
X158589903Y-93065826D01*
X158637522Y-93113445D01*
X158685141Y-93208683D01*
X158685141Y-93589636D01*
X157685141Y-93589636D01*
X157685141Y-93256302D01*
X157732760Y-93161064D01*
X157780379Y-93113445D01*
X157875617Y-93065826D01*
X157970855Y-93065826D01*
X158066093Y-93113445D01*
X158113712Y-93161064D01*
X158161331Y-93256302D01*
X158161331Y-93589636D01*
X158685141Y-92589636D02*
X158018474Y-92589636D01*
X158208950Y-92589636D02*
X158113712Y-92542017D01*
X158066093Y-92494398D01*
X158018474Y-92399160D01*
X158018474Y-92303921D01*
X158685141Y-91970588D02*
X158018474Y-91970588D01*
X157685141Y-91970588D02*
X157732760Y-92018207D01*
X157780379Y-91970588D01*
X157732760Y-91922969D01*
X157685141Y-91970588D01*
X157780379Y-91970588D01*
X158685141Y-91065826D02*
X157685141Y-91065826D01*
X158637522Y-91065826D02*
X158685141Y-91161064D01*
X158685141Y-91351541D01*
X158637522Y-91446779D01*
X158589903Y-91494398D01*
X158494665Y-91542017D01*
X158208950Y-91542017D01*
X158113712Y-91494398D01*
X158066093Y-91446779D01*
X158018474Y-91351541D01*
X158018474Y-91161064D01*
X158066093Y-91065826D01*
X158018474Y-90161064D02*
X158827998Y-90161064D01*
X158923236Y-90208683D01*
X158970855Y-90256302D01*
X159018474Y-90351541D01*
X159018474Y-90494398D01*
X158970855Y-90589636D01*
X158637522Y-90161064D02*
X158685141Y-90256302D01*
X158685141Y-90446779D01*
X158637522Y-90542017D01*
X158589903Y-90589636D01*
X158494665Y-90637255D01*
X158208950Y-90637255D01*
X158113712Y-90589636D01*
X158066093Y-90542017D01*
X158018474Y-90446779D01*
X158018474Y-90256302D01*
X158066093Y-90161064D01*
X158637522Y-89303921D02*
X158685141Y-89399159D01*
X158685141Y-89589636D01*
X158637522Y-89684874D01*
X158542284Y-89732493D01*
X158161331Y-89732493D01*
X158066093Y-89684874D01*
X158018474Y-89589636D01*
X158018474Y-89399159D01*
X158066093Y-89303921D01*
X158161331Y-89256302D01*
X158256570Y-89256302D01*
X158351808Y-89732493D01*
X161577999Y-99577731D02*
X161720856Y-99625350D01*
X161768475Y-99672970D01*
X161816094Y-99768208D01*
X161816094Y-99911065D01*
X161768475Y-100006303D01*
X161720856Y-100053922D01*
X161625618Y-100101541D01*
X161244665Y-100101541D01*
X161244665Y-99101541D01*
X161577999Y-99101541D01*
X161673237Y-99149160D01*
X161720856Y-99196779D01*
X161768475Y-99292017D01*
X161768475Y-99387255D01*
X161720856Y-99482493D01*
X161673237Y-99530112D01*
X161577999Y-99577731D01*
X161244665Y-99577731D01*
X162816094Y-100101541D02*
X162482760Y-99625350D01*
X162244665Y-100101541D02*
X162244665Y-99101541D01*
X162625618Y-99101541D01*
X162720856Y-99149160D01*
X162768475Y-99196779D01*
X162816094Y-99292017D01*
X162816094Y-99434874D01*
X162768475Y-99530112D01*
X162720856Y-99577731D01*
X162625618Y-99625350D01*
X162244665Y-99625350D01*
X163197046Y-99196779D02*
X163244665Y-99149160D01*
X163339903Y-99101541D01*
X163577999Y-99101541D01*
X163673237Y-99149160D01*
X163720856Y-99196779D01*
X163768475Y-99292017D01*
X163768475Y-99387255D01*
X163720856Y-99530112D01*
X163149427Y-100101541D01*
X163768475Y-100101541D01*
X158685141Y-108994398D02*
X157685141Y-108994398D01*
X157685141Y-108756303D01*
X157732760Y-108613445D01*
X157827998Y-108518207D01*
X157923236Y-108470588D01*
X158113712Y-108422969D01*
X158256570Y-108422969D01*
X158447046Y-108470588D01*
X158542284Y-108518207D01*
X158637522Y-108613445D01*
X158685141Y-108756303D01*
X158685141Y-108994398D01*
X158685141Y-107994398D02*
X158018474Y-107994398D01*
X157685141Y-107994398D02*
X157732760Y-108042017D01*
X157780379Y-107994398D01*
X157732760Y-107946779D01*
X157685141Y-107994398D01*
X157780379Y-107994398D01*
X158685141Y-107375351D02*
X158637522Y-107470589D01*
X158589903Y-107518208D01*
X158494665Y-107565827D01*
X158208950Y-107565827D01*
X158113712Y-107518208D01*
X158066093Y-107470589D01*
X158018474Y-107375351D01*
X158018474Y-107232493D01*
X158066093Y-107137255D01*
X158113712Y-107089636D01*
X158208950Y-107042017D01*
X158494665Y-107042017D01*
X158589903Y-107089636D01*
X158637522Y-107137255D01*
X158685141Y-107232493D01*
X158685141Y-107375351D01*
X158685141Y-106184874D02*
X157685141Y-106184874D01*
X158637522Y-106184874D02*
X158685141Y-106280112D01*
X158685141Y-106470589D01*
X158637522Y-106565827D01*
X158589903Y-106613446D01*
X158494665Y-106661065D01*
X158208950Y-106661065D01*
X158113712Y-106613446D01*
X158066093Y-106565827D01*
X158018474Y-106470589D01*
X158018474Y-106280112D01*
X158066093Y-106184874D01*
X158637522Y-105327731D02*
X158685141Y-105422969D01*
X158685141Y-105613446D01*
X158637522Y-105708684D01*
X158542284Y-105756303D01*
X158161331Y-105756303D01*
X158066093Y-105708684D01*
X158018474Y-105613446D01*
X158018474Y-105422969D01*
X158066093Y-105327731D01*
X158161331Y-105280112D01*
X158256570Y-105280112D01*
X158351808Y-105756303D01*
X158780379Y-105089636D02*
X158780379Y-104327731D01*
X158161331Y-103756302D02*
X158208950Y-103613445D01*
X158256570Y-103565826D01*
X158351808Y-103518207D01*
X158494665Y-103518207D01*
X158589903Y-103565826D01*
X158637522Y-103613445D01*
X158685141Y-103708683D01*
X158685141Y-104089636D01*
X157685141Y-104089636D01*
X157685141Y-103756302D01*
X157732760Y-103661064D01*
X157780379Y-103613445D01*
X157875617Y-103565826D01*
X157970855Y-103565826D01*
X158066093Y-103613445D01*
X158113712Y-103661064D01*
X158161331Y-103756302D01*
X158161331Y-104089636D01*
X158685141Y-103089636D02*
X158018474Y-103089636D01*
X158208950Y-103089636D02*
X158113712Y-103042017D01*
X158066093Y-102994398D01*
X158018474Y-102899160D01*
X158018474Y-102803921D01*
X158685141Y-102470588D02*
X158018474Y-102470588D01*
X157685141Y-102470588D02*
X157732760Y-102518207D01*
X157780379Y-102470588D01*
X157732760Y-102422969D01*
X157685141Y-102470588D01*
X157780379Y-102470588D01*
X158685141Y-101565826D02*
X157685141Y-101565826D01*
X158637522Y-101565826D02*
X158685141Y-101661064D01*
X158685141Y-101851541D01*
X158637522Y-101946779D01*
X158589903Y-101994398D01*
X158494665Y-102042017D01*
X158208950Y-102042017D01*
X158113712Y-101994398D01*
X158066093Y-101946779D01*
X158018474Y-101851541D01*
X158018474Y-101661064D01*
X158066093Y-101565826D01*
X158018474Y-100661064D02*
X158827998Y-100661064D01*
X158923236Y-100708683D01*
X158970855Y-100756302D01*
X159018474Y-100851541D01*
X159018474Y-100994398D01*
X158970855Y-101089636D01*
X158637522Y-100661064D02*
X158685141Y-100756302D01*
X158685141Y-100946779D01*
X158637522Y-101042017D01*
X158589903Y-101089636D01*
X158494665Y-101137255D01*
X158208950Y-101137255D01*
X158113712Y-101089636D01*
X158066093Y-101042017D01*
X158018474Y-100946779D01*
X158018474Y-100756302D01*
X158066093Y-100661064D01*
X158637522Y-99803921D02*
X158685141Y-99899159D01*
X158685141Y-100089636D01*
X158637522Y-100184874D01*
X158542284Y-100232493D01*
X158161331Y-100232493D01*
X158066093Y-100184874D01*
X158018474Y-100089636D01*
X158018474Y-99899159D01*
X158066093Y-99803921D01*
X158161331Y-99756302D01*
X158256570Y-99756302D01*
X158351808Y-100232493D01*
X95253334Y-89917143D02*
X95205715Y-89964762D01*
X95062858Y-90012381D01*
X94967620Y-90012381D01*
X94824762Y-89964762D01*
X94729524Y-89869524D01*
X94681905Y-89774286D01*
X94634286Y-89583810D01*
X94634286Y-89440952D01*
X94681905Y-89250476D01*
X94729524Y-89155238D01*
X94824762Y-89060000D01*
X94967620Y-89012381D01*
X95062858Y-89012381D01*
X95205715Y-89060000D01*
X95253334Y-89107619D01*
X96205715Y-90012381D02*
X95634286Y-90012381D01*
X95920000Y-90012381D02*
X95920000Y-89012381D01*
X95824762Y-89155238D01*
X95729524Y-89250476D01*
X95634286Y-89298095D01*
X93967143Y-94395714D02*
X93967143Y-95062381D01*
X93729047Y-94014762D02*
X93490952Y-94729048D01*
X94110000Y-94729048D01*
X94395714Y-94062381D02*
X95062381Y-94062381D01*
X94633809Y-95062381D01*
X95633809Y-94062381D02*
X95729048Y-94062381D01*
X95824286Y-94110000D01*
X95871905Y-94157619D01*
X95919524Y-94252857D01*
X95967143Y-94443333D01*
X95967143Y-94681429D01*
X95919524Y-94871905D01*
X95871905Y-94967143D01*
X95824286Y-95014762D01*
X95729048Y-95062381D01*
X95633809Y-95062381D01*
X95538571Y-95014762D01*
X95490952Y-94967143D01*
X95443333Y-94871905D01*
X95395714Y-94681429D01*
X95395714Y-94443333D01*
X95443333Y-94252857D01*
X95490952Y-94157619D01*
X95538571Y-94110000D01*
X95633809Y-94062381D01*
X96824286Y-94395714D02*
X96824286Y-95062381D01*
X96395714Y-94395714D02*
X96395714Y-94919524D01*
X96443333Y-95014762D01*
X96538571Y-95062381D01*
X96681429Y-95062381D01*
X96776667Y-95014762D01*
X96824286Y-94967143D01*
X97633810Y-94538571D02*
X97300476Y-94538571D01*
X97300476Y-95062381D02*
X97300476Y-94062381D01*
X97776667Y-94062381D01*
D17*
G36*
X185423000Y-55163000D02*
X185350057Y-55163000D01*
X163387000Y-55153057D01*
X163387000Y-52810196D01*
X163396804Y-46457000D01*
X185423000Y-46457000D01*
X185423000Y-55163000D01*
X185423000Y-55163000D01*
G37*
X185423000Y-55163000D02*
X185350057Y-55163000D01*
X163387000Y-55153057D01*
X163387000Y-52810196D01*
X163396804Y-46457000D01*
X185423000Y-46457000D01*
X185423000Y-55163000D01*
M02*
