G04 #@! TF.FileFunction,Paste,Top*
%FSLAX46Y46*%
G04 Gerber Fmt 4.6, Leading zero omitted, Abs format (unit mm)*
G04 Created by KiCad (PCBNEW 4.0.7-e2-6376~58~ubuntu16.04.1) date Fri Dec  1 14:53:18 2017*
%MOMM*%
%LPD*%
G01*
G04 APERTURE LIST*
%ADD10C,0.100000*%
%ADD11R,1.140000X0.620000*%
%ADD12R,1.500000X1.300000*%
%ADD13R,0.750000X0.350000*%
%ADD14R,0.400000X1.500000*%
%ADD15R,1.900000X1.000000*%
%ADD16R,2.000000X2.500000*%
G04 APERTURE END LIST*
D10*
D11*
X170732240Y-74980840D03*
X170732240Y-76230840D03*
X170732240Y-77505840D03*
X170732240Y-78780840D03*
X170732240Y-80055840D03*
X170732240Y-81330840D03*
X170732240Y-82605840D03*
X170732240Y-83855840D03*
X162207240Y-74955840D03*
X162207240Y-82605840D03*
X162207240Y-81330840D03*
X162207240Y-80055840D03*
X162207240Y-78805840D03*
X162207240Y-77530840D03*
X162207240Y-76205840D03*
X162207240Y-83855840D03*
D12*
X38047240Y-72540840D03*
X40747240Y-72540840D03*
X38050000Y-75950000D03*
X40750000Y-75950000D03*
X38847240Y-27790840D03*
X41547240Y-27790840D03*
X38847240Y-24390840D03*
X41547240Y-24390840D03*
D13*
X59197240Y-55565840D03*
X59197240Y-54915840D03*
X59197240Y-54265840D03*
X59197240Y-53615840D03*
X62797240Y-55565840D03*
X62797240Y-54915840D03*
X62797240Y-53615840D03*
X62797240Y-54265840D03*
X59197240Y-50065840D03*
X59197240Y-49415840D03*
X59197240Y-48765840D03*
X59197240Y-48115840D03*
X62797240Y-50065840D03*
X62797240Y-49415840D03*
X62797240Y-48115840D03*
X62797240Y-48765840D03*
X59197240Y-66865840D03*
X59197240Y-66215840D03*
X59197240Y-65565840D03*
X59197240Y-64915840D03*
X62797240Y-66865840D03*
X62797240Y-66215840D03*
X62797240Y-64915840D03*
X62797240Y-65565840D03*
X59197240Y-61165840D03*
X59197240Y-60515840D03*
X59197240Y-59865840D03*
X59197240Y-59215840D03*
X62797240Y-61165840D03*
X62797240Y-60515840D03*
X62797240Y-59215840D03*
X62797240Y-59865840D03*
D14*
X111000000Y-56830000D03*
X111650000Y-56830000D03*
X112300000Y-56830000D03*
X112300000Y-54170000D03*
X111000000Y-54170000D03*
X66250000Y-39930000D03*
X66900000Y-39930000D03*
X67550000Y-39930000D03*
X67550000Y-37270000D03*
X66250000Y-37270000D03*
X71447240Y-39920840D03*
X72097240Y-39920840D03*
X72747240Y-39920840D03*
X72747240Y-37260840D03*
X71447240Y-37260840D03*
X76747240Y-39920840D03*
X77397240Y-39920840D03*
X78047240Y-39920840D03*
X78047240Y-37260840D03*
X76747240Y-37260840D03*
X82247240Y-39920840D03*
X82897240Y-39920840D03*
X83547240Y-39920840D03*
X83547240Y-37260840D03*
X82247240Y-37260840D03*
D13*
X42900000Y-68775000D03*
X42900000Y-68125000D03*
X42900000Y-67475000D03*
X42900000Y-66825000D03*
X46500000Y-68775000D03*
X46500000Y-68125000D03*
X46500000Y-66825000D03*
X46500000Y-67475000D03*
X42797240Y-32365840D03*
X42797240Y-31715840D03*
X42797240Y-31065840D03*
X42797240Y-30415840D03*
X46397240Y-32365840D03*
X46397240Y-31715840D03*
X46397240Y-30415840D03*
X46397240Y-31065840D03*
D12*
X51850000Y-56850000D03*
X54550000Y-56850000D03*
X51850000Y-51600000D03*
X54550000Y-51600000D03*
X53350000Y-66850000D03*
X56050000Y-66850000D03*
X53350000Y-61750000D03*
X56050000Y-61750000D03*
D15*
X160300000Y-96750000D03*
X168375000Y-96750000D03*
X160325000Y-91650000D03*
X168375000Y-91650000D03*
X160300000Y-107250000D03*
X168375000Y-107250000D03*
X160325000Y-102150000D03*
X168375000Y-102150000D03*
D16*
X93420000Y-91810000D03*
X97420000Y-91810000D03*
M02*
