G04 #@! TF.FileFunction,Other,User*
%FSLAX46Y46*%
G04 Gerber Fmt 4.6, Leading zero omitted, Abs format (unit mm)*
G04 Created by KiCad (PCBNEW 4.0.7-e2-6376~58~ubuntu16.04.1) date Fri Dec  1 14:53:18 2017*
%MOMM*%
%LPD*%
G01*
G04 APERTURE LIST*
%ADD10C,0.100000*%
%ADD11C,0.050000*%
G04 APERTURE END LIST*
D10*
D11*
X54150000Y-63200000D02*
X49450000Y-63200000D01*
X54150000Y-63200000D02*
X54150000Y-65000000D01*
X49450000Y-65000000D02*
X49450000Y-63200000D01*
X49450000Y-65000000D02*
X54150000Y-65000000D01*
X54100000Y-55850000D02*
X49400000Y-55850000D01*
X54100000Y-55850000D02*
X54100000Y-57650000D01*
X49400000Y-57650000D02*
X49400000Y-55850000D01*
X49400000Y-57650000D02*
X54100000Y-57650000D01*
X53950000Y-40000000D02*
X49250000Y-40000000D01*
X53950000Y-40000000D02*
X53950000Y-41800000D01*
X49250000Y-41800000D02*
X49250000Y-40000000D01*
X49250000Y-41800000D02*
X53950000Y-41800000D01*
X54050000Y-47400000D02*
X49350000Y-47400000D01*
X54050000Y-47400000D02*
X54050000Y-49200000D01*
X49350000Y-49200000D02*
X49350000Y-47400000D01*
X49350000Y-49200000D02*
X54050000Y-49200000D01*
X64950000Y-92280000D02*
X69450000Y-92280000D01*
X64950000Y-92280000D02*
X64950000Y-90530000D01*
X69450000Y-90530000D02*
X69450000Y-92280000D01*
X69450000Y-90530000D02*
X64950000Y-90530000D01*
X54907240Y-108620840D02*
X50407240Y-108620840D01*
X54907240Y-108620840D02*
X54907240Y-110370840D01*
X50407240Y-110370840D02*
X50407240Y-108620840D01*
X50407240Y-110370840D02*
X54907240Y-110370840D01*
X64650000Y-96300000D02*
X69350000Y-96300000D01*
X64650000Y-96300000D02*
X64650000Y-94500000D01*
X69350000Y-94500000D02*
X69350000Y-96300000D01*
X69350000Y-94500000D02*
X64650000Y-94500000D01*
X69350000Y-99300000D02*
X64650000Y-99300000D01*
X69350000Y-99300000D02*
X69350000Y-101100000D01*
X64650000Y-101100000D02*
X64650000Y-99300000D01*
X64650000Y-101100000D02*
X69350000Y-101100000D01*
X54950000Y-105100000D02*
X50250000Y-105100000D01*
X54950000Y-105100000D02*
X54950000Y-106900000D01*
X50250000Y-106900000D02*
X50250000Y-105100000D01*
X50250000Y-106900000D02*
X54950000Y-106900000D01*
X50250000Y-103400000D02*
X54950000Y-103400000D01*
X50250000Y-103400000D02*
X50250000Y-101600000D01*
X54950000Y-101600000D02*
X54950000Y-103400000D01*
X54950000Y-101600000D02*
X50250000Y-101600000D01*
X183577240Y-88720840D02*
X188277240Y-88720840D01*
X183577240Y-88720840D02*
X183577240Y-86920840D01*
X188277240Y-86920840D02*
X188277240Y-88720840D01*
X188277240Y-86920840D02*
X183577240Y-86920840D01*
X180777240Y-69730840D02*
X176077240Y-69730840D01*
X180777240Y-69730840D02*
X180777240Y-71530840D01*
X176077240Y-71530840D02*
X176077240Y-69730840D01*
X176077240Y-71530840D02*
X180777240Y-71530840D01*
X62247240Y-90890840D02*
X55747240Y-90890840D01*
X62247240Y-90890840D02*
X62247240Y-93890840D01*
X55747240Y-93890840D02*
X55747240Y-90890840D01*
X55747240Y-93890840D02*
X62247240Y-93890840D01*
X55647240Y-62690840D02*
X60347240Y-62690840D01*
X55647240Y-62690840D02*
X55647240Y-60890840D01*
X60347240Y-60890840D02*
X60347240Y-62690840D01*
X60347240Y-60890840D02*
X55647240Y-60890840D01*
X55647240Y-47090840D02*
X60347240Y-47090840D01*
X55647240Y-47090840D02*
X55647240Y-45290840D01*
X60347240Y-45290840D02*
X60347240Y-47090840D01*
X60347240Y-45290840D02*
X55647240Y-45290840D01*
X66897240Y-68740840D02*
X66897240Y-64040840D01*
X66897240Y-68740840D02*
X65097240Y-68740840D01*
X65097240Y-64040840D02*
X66897240Y-64040840D01*
X65097240Y-64040840D02*
X65097240Y-68740840D01*
X66897240Y-53140840D02*
X66897240Y-48440840D01*
X66897240Y-53140840D02*
X65097240Y-53140840D01*
X65097240Y-48440840D02*
X66897240Y-48440840D01*
X65097240Y-48440840D02*
X65097240Y-53140840D01*
X76997240Y-59390840D02*
X76997240Y-62190840D01*
X72197240Y-62190840D02*
X72197240Y-59390840D01*
X72197240Y-62190840D02*
X76997240Y-62190840D01*
X72997240Y-59390840D02*
X76197240Y-59390840D01*
X76997240Y-43790840D02*
X76997240Y-46590840D01*
X72197240Y-46590840D02*
X72197240Y-43790840D01*
X72197240Y-46590840D02*
X76997240Y-46590840D01*
X72997240Y-43790840D02*
X76197240Y-43790840D01*
X92060000Y-103390000D02*
X99560000Y-103390000D01*
X92060000Y-103390000D02*
X92060000Y-100290000D01*
X99560000Y-100290000D02*
X99560000Y-103390000D01*
X99560000Y-100290000D02*
X92060000Y-100290000D01*
X92080000Y-96820000D02*
X99580000Y-96820000D01*
X92080000Y-96820000D02*
X92080000Y-93720000D01*
X99580000Y-93720000D02*
X99580000Y-96820000D01*
X99580000Y-93720000D02*
X92080000Y-93720000D01*
X61840000Y-62480000D02*
X67240000Y-62480000D01*
X67240000Y-62480000D02*
X67240000Y-58980000D01*
X67240000Y-58980000D02*
X61840000Y-58980000D01*
X61840000Y-58980000D02*
X61840000Y-62480000D01*
X61890000Y-46890000D02*
X67290000Y-46890000D01*
X67290000Y-46890000D02*
X67290000Y-43390000D01*
X67290000Y-43390000D02*
X61890000Y-43390000D01*
X61890000Y-43390000D02*
X61890000Y-46890000D01*
X183070000Y-78010000D02*
X188470000Y-78010000D01*
X188470000Y-78010000D02*
X188470000Y-74510000D01*
X188470000Y-74510000D02*
X183070000Y-74510000D01*
X183070000Y-74510000D02*
X183070000Y-78010000D01*
M02*
