G04 #@! TF.FileFunction,Copper,L1,Top,Signal*
%FSLAX46Y46*%
G04 Gerber Fmt 4.6, Leading zero omitted, Abs format (unit mm)*
G04 Created by KiCad (PCBNEW 4.0.4+e1-6308~48~ubuntu15.10.1-stable) date Wed Sep 13 16:31:06 2017*
%MOMM*%
%LPD*%
G01*
G04 APERTURE LIST*
%ADD10C,0.100000*%
%ADD11C,0.400000*%
%ADD12C,0.300000*%
%ADD13R,1.250000X1.000000*%
%ADD14R,1.600000X1.600000*%
%ADD15O,1.600000X2.000000*%
%ADD16R,1.700000X1.700000*%
%ADD17O,1.700000X1.700000*%
%ADD18R,0.350000X0.750000*%
%ADD19C,0.600000*%
%ADD20C,0.250000*%
%ADD21C,0.500000*%
%ADD22C,0.254000*%
G04 APERTURE END LIST*
D10*
D11*
X173872445Y-90786857D02*
X173776017Y-90872571D01*
X173508159Y-90958286D01*
X173336730Y-90958286D01*
X173090302Y-90872571D01*
X172940302Y-90701143D01*
X172876016Y-90529714D01*
X172833159Y-90186857D01*
X172865302Y-89929714D01*
X172993873Y-89586857D01*
X173101016Y-89415429D01*
X173293873Y-89244000D01*
X173561730Y-89158286D01*
X173733159Y-89158286D01*
X173979588Y-89244000D01*
X174054588Y-89329714D01*
X174879587Y-90958286D02*
X174718874Y-90872571D01*
X174643873Y-90786857D01*
X174579587Y-90615429D01*
X174643873Y-90101143D01*
X174751016Y-89929714D01*
X174847445Y-89844000D01*
X175029587Y-89758286D01*
X175286730Y-89758286D01*
X175447445Y-89844000D01*
X175522445Y-89929714D01*
X175586730Y-90101143D01*
X175522444Y-90615429D01*
X175415302Y-90786857D01*
X175318874Y-90872571D01*
X175136730Y-90958286D01*
X174879587Y-90958286D01*
X177172444Y-89758286D02*
X177022444Y-90958286D01*
X176401015Y-89758286D02*
X176283158Y-90701143D01*
X176347445Y-90872571D01*
X176508158Y-90958286D01*
X176765301Y-90958286D01*
X176947445Y-90872571D01*
X177043873Y-90786857D01*
X178029586Y-89758286D02*
X177879586Y-90958286D01*
X178008158Y-89929714D02*
X178104587Y-89844000D01*
X178286729Y-89758286D01*
X178543872Y-89758286D01*
X178704587Y-89844000D01*
X178768872Y-90015429D01*
X178651015Y-90958286D01*
X179401015Y-89758286D02*
X180086729Y-89758286D01*
X179733157Y-89158286D02*
X179540300Y-90701143D01*
X179604587Y-90872571D01*
X179765300Y-90958286D01*
X179936729Y-90958286D01*
X180536728Y-90958286D02*
X180686728Y-89758286D01*
X180761728Y-89158286D02*
X180665300Y-89244000D01*
X180740300Y-89329714D01*
X180836729Y-89244000D01*
X180761728Y-89158286D01*
X180740300Y-89329714D01*
X181543871Y-89758286D02*
X181393871Y-90958286D01*
X181522443Y-89929714D02*
X181618872Y-89844000D01*
X181801014Y-89758286D01*
X182058157Y-89758286D01*
X182218872Y-89844000D01*
X182283157Y-90015429D01*
X182165300Y-90958286D01*
X183943871Y-89758286D02*
X183761728Y-91215429D01*
X183654586Y-91386857D01*
X183558157Y-91472571D01*
X183376014Y-91558286D01*
X183118871Y-91558286D01*
X182958157Y-91472571D01*
X183804586Y-90872571D02*
X183622442Y-90958286D01*
X183279585Y-90958286D01*
X183118872Y-90872571D01*
X183043871Y-90786857D01*
X182979585Y-90615429D01*
X183043871Y-90101143D01*
X183151014Y-89929714D01*
X183247443Y-89844000D01*
X183429585Y-89758286D01*
X183772442Y-89758286D01*
X183933157Y-89844000D01*
X184651013Y-90958286D02*
X184876013Y-89158286D01*
X185561728Y-89158286D01*
X185722442Y-89244000D01*
X185797443Y-89329714D01*
X185861728Y-89501143D01*
X185829585Y-89758286D01*
X185722443Y-89929714D01*
X185626013Y-90015429D01*
X185443871Y-90101143D01*
X184758156Y-90101143D01*
X187479585Y-90958286D02*
X186986728Y-90101143D01*
X186451013Y-90958286D02*
X186676013Y-89158286D01*
X187361728Y-89158286D01*
X187522442Y-89244000D01*
X187597443Y-89329714D01*
X187661728Y-89501143D01*
X187629585Y-89758286D01*
X187522443Y-89929714D01*
X187426013Y-90015429D01*
X187243871Y-90101143D01*
X186558156Y-90101143D01*
X188476013Y-89158286D02*
X188293870Y-90615429D01*
X188358157Y-90786857D01*
X188433157Y-90872571D01*
X188593871Y-90958286D01*
X188936728Y-90958286D01*
X189118871Y-90872571D01*
X189215300Y-90786857D01*
X189322442Y-90615429D01*
X189504585Y-89158286D01*
X175018872Y-93972571D02*
X175179586Y-94058286D01*
X175522443Y-94058286D01*
X175704586Y-93972571D01*
X175811729Y-93801143D01*
X175822443Y-93715429D01*
X175758157Y-93544000D01*
X175597443Y-93458286D01*
X175340300Y-93458286D01*
X175179586Y-93372571D01*
X175115300Y-93201143D01*
X175126014Y-93115429D01*
X175233157Y-92944000D01*
X175415300Y-92858286D01*
X175672443Y-92858286D01*
X175833157Y-92944000D01*
X177247444Y-93972571D02*
X177065300Y-94058286D01*
X176722443Y-94058286D01*
X176561729Y-93972571D01*
X176497443Y-93801143D01*
X176583157Y-93115429D01*
X176690300Y-92944000D01*
X176872443Y-92858286D01*
X177215300Y-92858286D01*
X177376015Y-92944000D01*
X177440300Y-93115429D01*
X177418872Y-93286857D01*
X176540300Y-93458286D01*
X177986729Y-92858286D02*
X178672443Y-92858286D01*
X178318871Y-92258286D02*
X178126014Y-93801143D01*
X178190301Y-93972571D01*
X178351014Y-94058286D01*
X178522443Y-94058286D01*
X180643872Y-92172571D02*
X178811729Y-94486857D01*
X181126014Y-92429714D02*
X181222442Y-92344000D01*
X181404585Y-92258286D01*
X181833156Y-92258286D01*
X181993871Y-92344000D01*
X182068871Y-92429714D01*
X182133157Y-92601143D01*
X182111729Y-92772571D01*
X181993871Y-93029714D01*
X180836728Y-94058286D01*
X181951014Y-94058286D01*
X183290300Y-92258286D02*
X183461728Y-92258286D01*
X183622443Y-92344000D01*
X183697443Y-92429714D01*
X183761728Y-92601143D01*
X183804586Y-92944000D01*
X183751015Y-93372571D01*
X183622442Y-93715429D01*
X183515300Y-93886857D01*
X183418872Y-93972571D01*
X183236728Y-94058286D01*
X183065300Y-94058286D01*
X182904586Y-93972571D01*
X182829586Y-93886857D01*
X182765299Y-93715429D01*
X182722443Y-93372571D01*
X182776014Y-92944000D01*
X182904585Y-92601143D01*
X183011729Y-92429714D01*
X183108157Y-92344000D01*
X183290300Y-92258286D01*
X185379586Y-94058286D02*
X184351014Y-94058286D01*
X184865300Y-94058286D02*
X185090300Y-92258286D01*
X184886728Y-92515429D01*
X184693872Y-92686857D01*
X184511729Y-92772571D01*
X186204586Y-92258286D02*
X187404586Y-92258286D01*
X186408157Y-94058286D01*
D12*
X147698272Y-95125157D02*
X147912558Y-95196586D01*
X147983986Y-95268014D01*
X148055415Y-95410871D01*
X148055415Y-95625157D01*
X147983986Y-95768014D01*
X147912558Y-95839443D01*
X147769700Y-95910871D01*
X147198272Y-95910871D01*
X147198272Y-94410871D01*
X147698272Y-94410871D01*
X147841129Y-94482300D01*
X147912558Y-94553729D01*
X147983986Y-94696586D01*
X147983986Y-94839443D01*
X147912558Y-94982300D01*
X147841129Y-95053729D01*
X147698272Y-95125157D01*
X147198272Y-95125157D01*
X148698272Y-95125157D02*
X149198272Y-95125157D01*
X149412558Y-95910871D02*
X148698272Y-95910871D01*
X148698272Y-94410871D01*
X149412558Y-94410871D01*
X150912558Y-95910871D02*
X150412558Y-95196586D01*
X150055415Y-95910871D02*
X150055415Y-94410871D01*
X150626843Y-94410871D01*
X150769701Y-94482300D01*
X150841129Y-94553729D01*
X150912558Y-94696586D01*
X150912558Y-94910871D01*
X150841129Y-95053729D01*
X150769701Y-95125157D01*
X150626843Y-95196586D01*
X150055415Y-95196586D01*
X152341129Y-94482300D02*
X152198272Y-94410871D01*
X151983986Y-94410871D01*
X151769701Y-94482300D01*
X151626843Y-94625157D01*
X151555415Y-94768014D01*
X151483986Y-95053729D01*
X151483986Y-95268014D01*
X151555415Y-95553729D01*
X151626843Y-95696586D01*
X151769701Y-95839443D01*
X151983986Y-95910871D01*
X152126843Y-95910871D01*
X152341129Y-95839443D01*
X152412558Y-95768014D01*
X152412558Y-95268014D01*
X152126843Y-95268014D01*
X153341129Y-94410871D02*
X153626843Y-94410871D01*
X153769701Y-94482300D01*
X153912558Y-94625157D01*
X153983986Y-94910871D01*
X153983986Y-95410871D01*
X153912558Y-95696586D01*
X153769701Y-95839443D01*
X153626843Y-95910871D01*
X153341129Y-95910871D01*
X153198272Y-95839443D01*
X153055415Y-95696586D01*
X152983986Y-95410871D01*
X152983986Y-94910871D01*
X153055415Y-94625157D01*
X153198272Y-94482300D01*
X153341129Y-94410871D01*
X154483987Y-94410871D02*
X155483987Y-94410871D01*
X154483987Y-95910871D01*
X155483987Y-95910871D01*
X150412558Y-98460871D02*
X149555415Y-98460871D01*
X149983987Y-98460871D02*
X149983987Y-96960871D01*
X149841130Y-97175157D01*
X149698272Y-97318014D01*
X149555415Y-97389443D01*
X152126843Y-97103729D02*
X152198272Y-97032300D01*
X152341129Y-96960871D01*
X152698272Y-96960871D01*
X152841129Y-97032300D01*
X152912558Y-97103729D01*
X152983986Y-97246586D01*
X152983986Y-97389443D01*
X152912558Y-97603729D01*
X152055415Y-98460871D01*
X152983986Y-98460871D01*
X123477543Y-96075971D02*
X122763257Y-96075971D01*
X122763257Y-94575971D01*
X123977543Y-96075971D02*
X123977543Y-94575971D01*
X124834686Y-96075971D01*
X124834686Y-94575971D01*
X126263258Y-96075971D02*
X125548972Y-96075971D01*
X125548972Y-94575971D01*
X126691829Y-96004543D02*
X126906115Y-96075971D01*
X127263258Y-96075971D01*
X127406115Y-96004543D01*
X127477544Y-95933114D01*
X127548972Y-95790257D01*
X127548972Y-95647400D01*
X127477544Y-95504543D01*
X127406115Y-95433114D01*
X127263258Y-95361686D01*
X126977544Y-95290257D01*
X126834686Y-95218829D01*
X126763258Y-95147400D01*
X126691829Y-95004543D01*
X126691829Y-94861686D01*
X126763258Y-94718829D01*
X126834686Y-94647400D01*
X126977544Y-94575971D01*
X127334686Y-94575971D01*
X127548972Y-94647400D01*
X121691830Y-98625971D02*
X120834687Y-98625971D01*
X121263259Y-98625971D02*
X121263259Y-97125971D01*
X121120402Y-97340257D01*
X120977544Y-97483114D01*
X120834687Y-97554543D01*
X123406115Y-97268829D02*
X123477544Y-97197400D01*
X123620401Y-97125971D01*
X123977544Y-97125971D01*
X124120401Y-97197400D01*
X124191830Y-97268829D01*
X124263258Y-97411686D01*
X124263258Y-97554543D01*
X124191830Y-97768829D01*
X123334687Y-98625971D01*
X124263258Y-98625971D01*
X125906115Y-97125971D02*
X126834686Y-97125971D01*
X126334686Y-97697400D01*
X126548972Y-97697400D01*
X126691829Y-97768829D01*
X126763258Y-97840257D01*
X126834686Y-97983114D01*
X126834686Y-98340257D01*
X126763258Y-98483114D01*
X126691829Y-98554543D01*
X126548972Y-98625971D01*
X126120400Y-98625971D01*
X125977543Y-98554543D01*
X125906115Y-98483114D01*
X129263257Y-97625971D02*
X129263257Y-98625971D01*
X128906114Y-97054543D02*
X128548971Y-98125971D01*
X129477543Y-98125971D01*
D13*
X142494000Y-89976200D03*
X142494000Y-87976200D03*
X155727400Y-116671600D03*
X155727400Y-114671600D03*
X140893800Y-116874800D03*
X140893800Y-114874800D03*
X133273800Y-116824000D03*
X133273800Y-114824000D03*
X126568200Y-116900200D03*
X126568200Y-114900200D03*
D14*
X171996100Y-79603600D03*
D15*
X171996100Y-82243600D03*
X169456100Y-79503600D03*
X169456100Y-82243600D03*
X166916100Y-79503600D03*
X166916100Y-82243600D03*
X164376100Y-79503600D03*
X164376100Y-82243600D03*
X161836100Y-79503600D03*
X161836100Y-82243600D03*
X159296100Y-79503600D03*
X159296100Y-82243600D03*
X156756100Y-79503600D03*
X156756100Y-82243600D03*
X154216100Y-79503600D03*
X154216100Y-82243600D03*
X151676100Y-79503600D03*
X151676100Y-82243600D03*
X149136100Y-79503600D03*
X149136100Y-82243600D03*
X146596100Y-79503600D03*
X146596100Y-82243600D03*
X144056100Y-79503600D03*
X144056100Y-82243600D03*
X141516100Y-79503600D03*
X141516100Y-82243600D03*
X138976100Y-79503600D03*
X138976100Y-82243600D03*
X136436100Y-79503600D03*
X136436100Y-82243600D03*
X133896100Y-79503600D03*
X133896100Y-82243600D03*
X131356100Y-79503600D03*
X131356100Y-82243600D03*
X128816100Y-79503600D03*
X128816100Y-82243600D03*
X126276100Y-79503600D03*
X126276100Y-82243600D03*
X123736100Y-79503600D03*
X123736100Y-82243600D03*
X121196100Y-79503600D03*
X121196100Y-82243600D03*
X118656100Y-79503600D03*
X118656100Y-82243600D03*
X116116100Y-79503600D03*
X116116100Y-82243600D03*
D14*
X171996100Y-127863600D03*
D15*
X171996100Y-130503600D03*
X169456100Y-127763600D03*
X169456100Y-130503600D03*
X166916100Y-127763600D03*
X166916100Y-130503600D03*
X164376100Y-127763600D03*
X164376100Y-130503600D03*
X161836100Y-127763600D03*
X161836100Y-130503600D03*
X159296100Y-127763600D03*
X159296100Y-130503600D03*
X156756100Y-127763600D03*
X156756100Y-130503600D03*
X154216100Y-127763600D03*
X154216100Y-130503600D03*
X151676100Y-127763600D03*
X151676100Y-130503600D03*
X149136100Y-127763600D03*
X149136100Y-130503600D03*
X146596100Y-127763600D03*
X146596100Y-130503600D03*
X144056100Y-127763600D03*
X144056100Y-130503600D03*
X141516100Y-127763600D03*
X141516100Y-130503600D03*
X138976100Y-127763600D03*
X138976100Y-130503600D03*
X136436100Y-127763600D03*
X136436100Y-130503600D03*
X133896100Y-127763600D03*
X133896100Y-130503600D03*
X131356100Y-127763600D03*
X131356100Y-130503600D03*
X128816100Y-127763600D03*
X128816100Y-130503600D03*
X126276100Y-127763600D03*
X126276100Y-130503600D03*
X123736100Y-127763600D03*
X123736100Y-130503600D03*
X121196100Y-127763600D03*
X121196100Y-130503600D03*
X118656100Y-127763600D03*
X118656100Y-130503600D03*
X116116100Y-127763600D03*
X116116100Y-130503600D03*
D16*
X149987000Y-100711000D03*
D17*
X152527000Y-100711000D03*
X149987000Y-103251000D03*
X152527000Y-103251000D03*
D16*
X129032000Y-101092000D03*
D17*
X129032000Y-103632000D03*
X126492000Y-101092000D03*
X126492000Y-103632000D03*
X123952000Y-101092000D03*
X123952000Y-103632000D03*
X121412000Y-101092000D03*
X121412000Y-103632000D03*
D18*
X140222880Y-92356080D03*
X139572880Y-92356080D03*
X138922880Y-92356080D03*
X138272880Y-92356080D03*
X140222880Y-88756080D03*
X139572880Y-88756080D03*
X138272880Y-88756080D03*
X138922880Y-88756080D03*
X151552000Y-114252600D03*
X152202000Y-114252600D03*
X152852000Y-114252600D03*
X153502000Y-114252600D03*
X151552000Y-117852600D03*
X152202000Y-117852600D03*
X153502000Y-117852600D03*
X152852000Y-117852600D03*
X115738000Y-114151000D03*
X116388000Y-114151000D03*
X117038000Y-114151000D03*
X117688000Y-114151000D03*
X115738000Y-117751000D03*
X116388000Y-117751000D03*
X117688000Y-117751000D03*
X117038000Y-117751000D03*
X122469000Y-114278000D03*
X123119000Y-114278000D03*
X123769000Y-114278000D03*
X124419000Y-114278000D03*
X122469000Y-117878000D03*
X123119000Y-117878000D03*
X124419000Y-117878000D03*
X123769000Y-117878000D03*
X129454000Y-114151000D03*
X130104000Y-114151000D03*
X130754000Y-114151000D03*
X131404000Y-114151000D03*
X129454000Y-117751000D03*
X130104000Y-117751000D03*
X131404000Y-117751000D03*
X130754000Y-117751000D03*
X136566000Y-114151000D03*
X137216000Y-114151000D03*
X137866000Y-114151000D03*
X138516000Y-114151000D03*
X136566000Y-117751000D03*
X137216000Y-117751000D03*
X138516000Y-117751000D03*
X137866000Y-117751000D03*
D13*
X119913400Y-116773200D03*
X119913400Y-114773200D03*
D19*
X144983200Y-97663000D03*
X145694400Y-105765600D03*
X145542000Y-123291600D03*
X145237200Y-111861600D03*
X144754600Y-86791800D03*
X143256000Y-95834200D03*
X137236200Y-102514400D03*
X132232400Y-108966000D03*
X135001000Y-100660200D03*
X127101600Y-111074200D03*
X114998500Y-103708200D03*
X121424700Y-110413800D03*
D11*
X149987000Y-103251000D02*
X148209000Y-103251000D01*
X148209000Y-103251000D02*
X145694400Y-105765600D01*
X151552000Y-114252600D02*
X147628200Y-114252600D01*
X145542000Y-123291600D02*
X145516600Y-123266200D01*
X147628200Y-114252600D02*
X145237200Y-111861600D01*
X140222880Y-92356080D02*
X140222880Y-92801080D01*
X140222880Y-92801080D02*
X143256000Y-95834200D01*
X136566000Y-114151000D02*
X136566000Y-113299600D01*
X136566000Y-113299600D02*
X132232400Y-108966000D01*
X129454000Y-114151000D02*
X129454000Y-113528200D01*
X127101600Y-112674400D02*
X127101600Y-111074200D01*
X128117600Y-113690400D02*
X127101600Y-112674400D01*
X129291800Y-113690400D02*
X128117600Y-113690400D01*
X129454000Y-113528200D02*
X129291800Y-113690400D01*
X122469000Y-114278000D02*
X122469000Y-114239400D01*
X122469000Y-114239400D02*
X122082200Y-113852600D01*
D20*
X121424700Y-113329000D02*
X121424700Y-110413800D01*
X120901100Y-113852600D02*
X121424700Y-113329000D01*
X115298700Y-104008400D02*
X114998500Y-103708200D01*
D21*
X122093200Y-113852600D02*
X122082200Y-113852600D01*
X122082200Y-113852600D02*
X120901100Y-113852600D01*
X115298700Y-113814500D02*
X115298700Y-113622300D01*
D11*
X115738000Y-114061600D02*
X115298700Y-113622300D01*
X115738000Y-114151000D02*
X115738000Y-114061600D01*
D21*
X115298700Y-113622300D02*
X115298700Y-104008400D01*
D11*
X152527000Y-105740200D02*
X152527000Y-103251000D01*
X151552000Y-114316100D02*
X151552000Y-106715200D01*
X151552000Y-106715200D02*
X152527000Y-105740200D01*
X117038000Y-114151000D02*
X117038000Y-117751000D01*
X152852000Y-117852600D02*
X152852000Y-117215800D01*
X152852000Y-117215800D02*
X152852000Y-114252600D01*
X137866000Y-114151000D02*
X137866000Y-117368200D01*
X137866000Y-117368200D02*
X137866000Y-117751000D01*
X130754000Y-117751000D02*
X130754000Y-117292000D01*
X130754000Y-117292000D02*
X130754000Y-114151000D01*
X123769000Y-114278000D02*
X123769000Y-117322600D01*
X123769000Y-117322600D02*
X123769000Y-117878000D01*
X130754000Y-117751000D02*
X131404000Y-117751000D01*
X123769000Y-117878000D02*
X124419000Y-117878000D01*
X117038000Y-117751000D02*
X117688000Y-117751000D01*
X138930500Y-90551000D02*
X138930500Y-90431500D01*
X168148000Y-89941400D02*
X168325800Y-89763600D01*
X139420600Y-89941400D02*
X168148000Y-89941400D01*
X138930500Y-90431500D02*
X139420600Y-89941400D01*
X138930500Y-92439900D02*
X138930500Y-90551000D01*
X168325800Y-109029500D02*
X168325800Y-89763600D01*
X160782000Y-116573300D02*
X168325800Y-109029500D01*
X168325800Y-89763600D02*
X169456100Y-88633300D01*
X138930500Y-90551000D02*
X138930500Y-88839900D01*
X152852000Y-117916100D02*
X153187400Y-117916100D01*
X155257500Y-116573300D02*
X160782000Y-116573300D01*
X153914700Y-117916100D02*
X155257500Y-116573300D01*
X152476200Y-116840000D02*
X152852000Y-117215800D01*
X138887200Y-116840000D02*
X152476200Y-116840000D01*
X137337800Y-116840000D02*
X137866000Y-117368200D01*
X131724400Y-116840000D02*
X137337800Y-116840000D01*
X130302000Y-116840000D02*
X130754000Y-117292000D01*
X124917200Y-116840000D02*
X130302000Y-116840000D01*
X123113800Y-116763800D02*
X123769000Y-117419000D01*
X123769000Y-117419000D02*
X123743600Y-117419000D01*
X123743600Y-117419000D02*
X123647200Y-117322600D01*
X123647200Y-117322600D02*
X123769000Y-117322600D01*
X138516000Y-117751000D02*
X137866000Y-117751000D01*
X138516000Y-117211200D02*
X138887200Y-116840000D01*
X131404000Y-117160400D02*
X131724400Y-116840000D01*
X124419000Y-117338200D02*
X124917200Y-116840000D01*
X118338600Y-116763800D02*
X123113800Y-116763800D01*
X138516000Y-117751000D02*
X138516000Y-117211200D01*
X131404000Y-117751000D02*
X131404000Y-117160400D01*
X124419000Y-117878000D02*
X124419000Y-117338200D01*
X117688000Y-117751000D02*
X117688000Y-117414400D01*
X117688000Y-117414400D02*
X118338600Y-116763800D01*
X138280500Y-88839900D02*
X138930500Y-88839900D01*
X153502000Y-117916100D02*
X153914700Y-117916100D01*
X153187400Y-117916100D02*
X153502000Y-117916100D01*
X169456100Y-88633300D02*
X169456100Y-79603600D01*
D20*
X159296100Y-127825500D02*
X159296100Y-127863600D01*
D11*
X118656100Y-127863600D02*
X118656100Y-122923300D01*
X122469000Y-119110400D02*
X122469000Y-117878000D01*
X118656100Y-122923300D02*
X122469000Y-119110400D01*
X126492000Y-101092000D02*
X125222000Y-102362000D01*
X125222000Y-102362000D02*
X125222000Y-106032300D01*
X125222000Y-106032300D02*
X131404000Y-112214300D01*
X131404000Y-112214300D02*
X131404000Y-114151000D01*
X125222000Y-106032300D02*
X125222000Y-102362000D01*
X123952000Y-101092000D02*
X122694700Y-102349300D01*
X122694700Y-102349300D02*
X122694700Y-107365800D01*
X122694700Y-107365800D02*
X124419000Y-109090100D01*
X124419000Y-109090100D02*
X124419000Y-114278000D01*
X119176800Y-101092000D02*
X121412000Y-101092000D01*
X117688000Y-102580800D02*
X119176800Y-101092000D01*
X117688000Y-114151000D02*
X117688000Y-102580800D01*
X153502000Y-114316100D02*
X153502000Y-112626500D01*
X154093700Y-112034800D02*
X154093700Y-102277700D01*
X153502000Y-112626500D02*
X154093700Y-112034800D01*
X154093700Y-102277700D02*
X152527000Y-100711000D01*
X138280500Y-92439900D02*
X138280500Y-95557700D01*
X143433800Y-100711000D02*
X149987000Y-100711000D01*
X138280500Y-95557700D02*
X143433800Y-100711000D01*
X139580500Y-88839900D02*
X139580500Y-85656300D01*
X139580500Y-85656300D02*
X137833100Y-83908900D01*
X137833100Y-80746600D02*
X138976100Y-79603600D01*
X137833100Y-83908900D02*
X137833100Y-80746600D01*
X140222880Y-88756080D02*
X140222880Y-87843720D01*
X144056100Y-84010500D02*
X144056100Y-82143600D01*
X140222880Y-87843720D02*
X144056100Y-84010500D01*
X116388000Y-117751000D02*
X116388000Y-120477400D01*
X117398800Y-129120900D02*
X116116100Y-130403600D01*
X117398800Y-121488200D02*
X117398800Y-129120900D01*
X116388000Y-120477400D02*
X117398800Y-121488200D01*
D20*
X116116100Y-130403600D02*
X116141500Y-130403600D01*
D11*
X116116100Y-127863600D02*
X116116100Y-121323100D01*
X115738000Y-120945000D02*
X115738000Y-117751000D01*
X116116100Y-121323100D02*
X115738000Y-120945000D01*
X130104000Y-117751000D02*
X130104000Y-120136800D01*
X122504200Y-129095500D02*
X121196100Y-130403600D01*
X122504200Y-125044200D02*
X122504200Y-129095500D01*
X126238000Y-121310400D02*
X122504200Y-125044200D01*
X128930400Y-121310400D02*
X126238000Y-121310400D01*
X130104000Y-120136800D02*
X128930400Y-121310400D01*
D20*
X121196100Y-130403600D02*
X121335800Y-130403600D01*
D11*
X121196100Y-127863600D02*
X121196100Y-124472700D01*
X129454000Y-119237400D02*
X129454000Y-117751000D01*
X128625600Y-120065800D02*
X129454000Y-119237400D01*
X125603000Y-120065800D02*
X128625600Y-120065800D01*
X121196100Y-124472700D02*
X125603000Y-120065800D01*
X152217100Y-117846200D02*
X152217100Y-120733800D01*
X152217100Y-120733800D02*
X158026100Y-126542800D01*
X158026100Y-126542800D02*
X158026100Y-129133600D01*
X158026100Y-129133600D02*
X159296100Y-130403600D01*
X151552000Y-117916100D02*
X151552000Y-123878700D01*
X151552000Y-123878700D02*
X154216100Y-126542800D01*
X154216100Y-126542800D02*
X154216100Y-127863600D01*
X123119000Y-117878000D02*
X123119000Y-120213000D01*
X119938800Y-129120900D02*
X118656100Y-130403600D01*
X119938800Y-123393200D02*
X119938800Y-129120900D01*
X123119000Y-120213000D02*
X119938800Y-123393200D01*
D20*
X118656100Y-130403600D02*
X118821200Y-130403600D01*
D11*
X123736100Y-127863600D02*
X123736100Y-125666500D01*
X136566000Y-120685200D02*
X136566000Y-117751000D01*
X134874000Y-122377200D02*
X136566000Y-120685200D01*
X127025400Y-122377200D02*
X134874000Y-122377200D01*
X123736100Y-125666500D02*
X127025400Y-122377200D01*
X137216000Y-117751000D02*
X137216000Y-121940200D01*
X125018800Y-129120900D02*
X123736100Y-130403600D01*
X125018800Y-126339600D02*
X125018800Y-129120900D01*
X127762000Y-123596400D02*
X125018800Y-126339600D01*
X135559800Y-123596400D02*
X127762000Y-123596400D01*
X137216000Y-121940200D02*
X135559800Y-123596400D01*
X138516000Y-114151000D02*
X138516000Y-109280600D01*
X130327400Y-101092000D02*
X129032000Y-101092000D01*
X138516000Y-109280600D02*
X130327400Y-101092000D01*
D22*
G36*
X114684166Y-79150714D02*
X114836629Y-79376600D01*
X115989100Y-79376600D01*
X115989100Y-79356600D01*
X116243100Y-79356600D01*
X116243100Y-79376600D01*
X116263100Y-79376600D01*
X116263100Y-79630600D01*
X116243100Y-79630600D01*
X116243100Y-82116600D01*
X116263100Y-82116600D01*
X116263100Y-82370600D01*
X116243100Y-82370600D01*
X116243100Y-83713515D01*
X116465139Y-83835504D01*
X116522830Y-83825042D01*
X117020524Y-83564237D01*
X117199343Y-83349949D01*
X117434927Y-83702525D01*
X117995206Y-84076892D01*
X118656100Y-84208352D01*
X119316994Y-84076892D01*
X119877273Y-83702525D01*
X119926100Y-83629450D01*
X119974927Y-83702525D01*
X120535206Y-84076892D01*
X121196100Y-84208352D01*
X121856994Y-84076892D01*
X122417273Y-83702525D01*
X122466100Y-83629450D01*
X122514927Y-83702525D01*
X123075206Y-84076892D01*
X123736100Y-84208352D01*
X124396994Y-84076892D01*
X124957273Y-83702525D01*
X125006100Y-83629450D01*
X125054927Y-83702525D01*
X125615206Y-84076892D01*
X126276100Y-84208352D01*
X126936994Y-84076892D01*
X127497273Y-83702525D01*
X127546100Y-83629450D01*
X127594927Y-83702525D01*
X128155206Y-84076892D01*
X128816100Y-84208352D01*
X129476994Y-84076892D01*
X130037273Y-83702525D01*
X130086100Y-83629450D01*
X130134927Y-83702525D01*
X130695206Y-84076892D01*
X131356100Y-84208352D01*
X132016994Y-84076892D01*
X132577273Y-83702525D01*
X132626100Y-83629450D01*
X132674927Y-83702525D01*
X133235206Y-84076892D01*
X133896100Y-84208352D01*
X134556994Y-84076892D01*
X135117273Y-83702525D01*
X135166100Y-83629450D01*
X135214927Y-83702525D01*
X135775206Y-84076892D01*
X136436100Y-84208352D01*
X136753122Y-84145292D01*
X136791888Y-84340184D01*
X137036191Y-84705809D01*
X138453500Y-86123118D01*
X138453500Y-87437057D01*
X138447880Y-87435919D01*
X138097880Y-87435919D01*
X137754354Y-87500558D01*
X137438847Y-87703581D01*
X137227184Y-88013359D01*
X137152719Y-88381080D01*
X137152719Y-89131080D01*
X137217358Y-89474606D01*
X137420381Y-89790113D01*
X137730159Y-90001776D01*
X137803500Y-90016628D01*
X137803500Y-91091311D01*
X137754354Y-91100558D01*
X137438847Y-91303581D01*
X137227184Y-91613359D01*
X137152719Y-91981080D01*
X137152719Y-92731080D01*
X137153500Y-92735231D01*
X137153500Y-95557700D01*
X137239288Y-95988984D01*
X137483591Y-96354609D01*
X142636891Y-101507910D01*
X143002516Y-101752212D01*
X143433800Y-101838000D01*
X148243960Y-101838000D01*
X148256478Y-101904526D01*
X148459501Y-102220033D01*
X148765465Y-102429090D01*
X148715355Y-102484076D01*
X148545524Y-102894110D01*
X148666845Y-103124000D01*
X149860000Y-103124000D01*
X149860000Y-103104000D01*
X150114000Y-103104000D01*
X150114000Y-103124000D01*
X152400000Y-103124000D01*
X152400000Y-103104000D01*
X152654000Y-103104000D01*
X152654000Y-103124000D01*
X152674000Y-103124000D01*
X152674000Y-103378000D01*
X152654000Y-103378000D01*
X152654000Y-104571819D01*
X152883892Y-104692486D01*
X152966700Y-104653597D01*
X152966700Y-111567982D01*
X152705091Y-111829591D01*
X152460788Y-112195216D01*
X152375000Y-112626500D01*
X152375000Y-112932439D01*
X152027000Y-112932439D01*
X151683474Y-112997078D01*
X151367967Y-113200101D01*
X151325461Y-113262311D01*
X151305750Y-113242600D01*
X151250690Y-113242600D01*
X151017301Y-113339273D01*
X150838673Y-113517902D01*
X150742000Y-113751291D01*
X150742000Y-113966850D01*
X150900750Y-114125600D01*
X151081839Y-114125600D01*
X151081839Y-114379600D01*
X150900750Y-114379600D01*
X150742000Y-114538350D01*
X150742000Y-114753909D01*
X150838673Y-114987298D01*
X151017301Y-115165927D01*
X151250690Y-115262600D01*
X151305750Y-115262600D01*
X151322961Y-115245389D01*
X151349501Y-115286633D01*
X151659279Y-115498296D01*
X151725000Y-115511605D01*
X151725000Y-115713000D01*
X142192249Y-115713000D01*
X142093874Y-115645783D01*
X142153800Y-115501109D01*
X142153800Y-115160550D01*
X141995050Y-115001800D01*
X141020800Y-115001800D01*
X141020800Y-115021800D01*
X140766800Y-115021800D01*
X140766800Y-115001800D01*
X139792550Y-115001800D01*
X139633800Y-115160550D01*
X139633800Y-115501109D01*
X139692906Y-115643803D01*
X139609767Y-115697301D01*
X139599040Y-115713000D01*
X138993000Y-115713000D01*
X138993000Y-115414336D01*
X139034526Y-115406522D01*
X139350033Y-115203499D01*
X139561696Y-114893721D01*
X139633800Y-114537659D01*
X139633800Y-114589050D01*
X139792550Y-114747800D01*
X140766800Y-114747800D01*
X140766800Y-113898550D01*
X141020800Y-113898550D01*
X141020800Y-114747800D01*
X141995050Y-114747800D01*
X142153800Y-114589050D01*
X142153800Y-114248491D01*
X142057127Y-114015102D01*
X141878499Y-113836473D01*
X141645110Y-113739800D01*
X141179550Y-113739800D01*
X141020800Y-113898550D01*
X140766800Y-113898550D01*
X140608050Y-113739800D01*
X140142490Y-113739800D01*
X139909101Y-113836473D01*
X139730473Y-114015102D01*
X139636161Y-114242791D01*
X139636161Y-114185382D01*
X139643000Y-114151000D01*
X139643000Y-109280600D01*
X139557212Y-108849316D01*
X139312909Y-108483691D01*
X134437108Y-103607890D01*
X148545524Y-103607890D01*
X148715355Y-104017924D01*
X149105642Y-104446183D01*
X149630108Y-104692486D01*
X149860000Y-104571819D01*
X149860000Y-103378000D01*
X150114000Y-103378000D01*
X150114000Y-104571819D01*
X150343892Y-104692486D01*
X150868358Y-104446183D01*
X151257000Y-104019729D01*
X151645642Y-104446183D01*
X152170108Y-104692486D01*
X152400000Y-104571819D01*
X152400000Y-103378000D01*
X150114000Y-103378000D01*
X149860000Y-103378000D01*
X148666845Y-103378000D01*
X148545524Y-103607890D01*
X134437108Y-103607890D01*
X131124309Y-100295091D01*
X130795855Y-100075625D01*
X130762522Y-99898474D01*
X130618828Y-99675167D01*
X130618828Y-93270400D01*
X119621973Y-93270400D01*
X119621973Y-99965000D01*
X119176800Y-99965000D01*
X118745516Y-100050788D01*
X118379891Y-100295091D01*
X116891091Y-101783891D01*
X116646788Y-102149516D01*
X116561000Y-102580800D01*
X116561000Y-112830839D01*
X116213000Y-112830839D01*
X115869474Y-112895478D01*
X115553967Y-113098501D01*
X115511461Y-113160711D01*
X115491750Y-113141000D01*
X115436690Y-113141000D01*
X115203301Y-113237673D01*
X115024673Y-113416302D01*
X114928000Y-113649691D01*
X114928000Y-113865250D01*
X115086750Y-114024000D01*
X115267839Y-114024000D01*
X115267839Y-114278000D01*
X115086750Y-114278000D01*
X114928000Y-114436750D01*
X114928000Y-114652309D01*
X115024673Y-114885698D01*
X115203301Y-115064327D01*
X115436690Y-115161000D01*
X115491750Y-115161000D01*
X115508961Y-115143789D01*
X115535501Y-115185033D01*
X115845279Y-115396696D01*
X115911000Y-115410005D01*
X115911000Y-116430839D01*
X115563000Y-116430839D01*
X115219474Y-116495478D01*
X114903967Y-116698501D01*
X114692304Y-117008279D01*
X114617839Y-117376000D01*
X114617839Y-117716618D01*
X114611000Y-117751000D01*
X114611000Y-120945000D01*
X114696788Y-121376284D01*
X114941091Y-121741909D01*
X114989100Y-121789918D01*
X114989100Y-126241751D01*
X114894927Y-126304675D01*
X114520560Y-126864954D01*
X114389100Y-127525848D01*
X114389100Y-128001352D01*
X114520560Y-128662246D01*
X114835509Y-129133600D01*
X114520560Y-129604954D01*
X114389100Y-130265848D01*
X114389100Y-130741352D01*
X114496482Y-131281200D01*
X106348500Y-131281200D01*
X106348500Y-82596486D01*
X114684166Y-82596486D01*
X114851672Y-83132826D01*
X115211676Y-83564237D01*
X115709370Y-83825042D01*
X115767061Y-83835504D01*
X115989100Y-83713515D01*
X115989100Y-82370600D01*
X114836629Y-82370600D01*
X114684166Y-82596486D01*
X106348500Y-82596486D01*
X106348500Y-79856486D01*
X114684166Y-79856486D01*
X114851672Y-80392826D01*
X115211676Y-80824237D01*
X115305875Y-80873600D01*
X115211676Y-80922963D01*
X114851672Y-81354374D01*
X114684166Y-81890714D01*
X114836629Y-82116600D01*
X115989100Y-82116600D01*
X115989100Y-79630600D01*
X114836629Y-79630600D01*
X114684166Y-79856486D01*
X106348500Y-79856486D01*
X106348500Y-78713300D01*
X114820776Y-78713300D01*
X114684166Y-79150714D01*
X114684166Y-79150714D01*
G37*
X114684166Y-79150714D02*
X114836629Y-79376600D01*
X115989100Y-79376600D01*
X115989100Y-79356600D01*
X116243100Y-79356600D01*
X116243100Y-79376600D01*
X116263100Y-79376600D01*
X116263100Y-79630600D01*
X116243100Y-79630600D01*
X116243100Y-82116600D01*
X116263100Y-82116600D01*
X116263100Y-82370600D01*
X116243100Y-82370600D01*
X116243100Y-83713515D01*
X116465139Y-83835504D01*
X116522830Y-83825042D01*
X117020524Y-83564237D01*
X117199343Y-83349949D01*
X117434927Y-83702525D01*
X117995206Y-84076892D01*
X118656100Y-84208352D01*
X119316994Y-84076892D01*
X119877273Y-83702525D01*
X119926100Y-83629450D01*
X119974927Y-83702525D01*
X120535206Y-84076892D01*
X121196100Y-84208352D01*
X121856994Y-84076892D01*
X122417273Y-83702525D01*
X122466100Y-83629450D01*
X122514927Y-83702525D01*
X123075206Y-84076892D01*
X123736100Y-84208352D01*
X124396994Y-84076892D01*
X124957273Y-83702525D01*
X125006100Y-83629450D01*
X125054927Y-83702525D01*
X125615206Y-84076892D01*
X126276100Y-84208352D01*
X126936994Y-84076892D01*
X127497273Y-83702525D01*
X127546100Y-83629450D01*
X127594927Y-83702525D01*
X128155206Y-84076892D01*
X128816100Y-84208352D01*
X129476994Y-84076892D01*
X130037273Y-83702525D01*
X130086100Y-83629450D01*
X130134927Y-83702525D01*
X130695206Y-84076892D01*
X131356100Y-84208352D01*
X132016994Y-84076892D01*
X132577273Y-83702525D01*
X132626100Y-83629450D01*
X132674927Y-83702525D01*
X133235206Y-84076892D01*
X133896100Y-84208352D01*
X134556994Y-84076892D01*
X135117273Y-83702525D01*
X135166100Y-83629450D01*
X135214927Y-83702525D01*
X135775206Y-84076892D01*
X136436100Y-84208352D01*
X136753122Y-84145292D01*
X136791888Y-84340184D01*
X137036191Y-84705809D01*
X138453500Y-86123118D01*
X138453500Y-87437057D01*
X138447880Y-87435919D01*
X138097880Y-87435919D01*
X137754354Y-87500558D01*
X137438847Y-87703581D01*
X137227184Y-88013359D01*
X137152719Y-88381080D01*
X137152719Y-89131080D01*
X137217358Y-89474606D01*
X137420381Y-89790113D01*
X137730159Y-90001776D01*
X137803500Y-90016628D01*
X137803500Y-91091311D01*
X137754354Y-91100558D01*
X137438847Y-91303581D01*
X137227184Y-91613359D01*
X137152719Y-91981080D01*
X137152719Y-92731080D01*
X137153500Y-92735231D01*
X137153500Y-95557700D01*
X137239288Y-95988984D01*
X137483591Y-96354609D01*
X142636891Y-101507910D01*
X143002516Y-101752212D01*
X143433800Y-101838000D01*
X148243960Y-101838000D01*
X148256478Y-101904526D01*
X148459501Y-102220033D01*
X148765465Y-102429090D01*
X148715355Y-102484076D01*
X148545524Y-102894110D01*
X148666845Y-103124000D01*
X149860000Y-103124000D01*
X149860000Y-103104000D01*
X150114000Y-103104000D01*
X150114000Y-103124000D01*
X152400000Y-103124000D01*
X152400000Y-103104000D01*
X152654000Y-103104000D01*
X152654000Y-103124000D01*
X152674000Y-103124000D01*
X152674000Y-103378000D01*
X152654000Y-103378000D01*
X152654000Y-104571819D01*
X152883892Y-104692486D01*
X152966700Y-104653597D01*
X152966700Y-111567982D01*
X152705091Y-111829591D01*
X152460788Y-112195216D01*
X152375000Y-112626500D01*
X152375000Y-112932439D01*
X152027000Y-112932439D01*
X151683474Y-112997078D01*
X151367967Y-113200101D01*
X151325461Y-113262311D01*
X151305750Y-113242600D01*
X151250690Y-113242600D01*
X151017301Y-113339273D01*
X150838673Y-113517902D01*
X150742000Y-113751291D01*
X150742000Y-113966850D01*
X150900750Y-114125600D01*
X151081839Y-114125600D01*
X151081839Y-114379600D01*
X150900750Y-114379600D01*
X150742000Y-114538350D01*
X150742000Y-114753909D01*
X150838673Y-114987298D01*
X151017301Y-115165927D01*
X151250690Y-115262600D01*
X151305750Y-115262600D01*
X151322961Y-115245389D01*
X151349501Y-115286633D01*
X151659279Y-115498296D01*
X151725000Y-115511605D01*
X151725000Y-115713000D01*
X142192249Y-115713000D01*
X142093874Y-115645783D01*
X142153800Y-115501109D01*
X142153800Y-115160550D01*
X141995050Y-115001800D01*
X141020800Y-115001800D01*
X141020800Y-115021800D01*
X140766800Y-115021800D01*
X140766800Y-115001800D01*
X139792550Y-115001800D01*
X139633800Y-115160550D01*
X139633800Y-115501109D01*
X139692906Y-115643803D01*
X139609767Y-115697301D01*
X139599040Y-115713000D01*
X138993000Y-115713000D01*
X138993000Y-115414336D01*
X139034526Y-115406522D01*
X139350033Y-115203499D01*
X139561696Y-114893721D01*
X139633800Y-114537659D01*
X139633800Y-114589050D01*
X139792550Y-114747800D01*
X140766800Y-114747800D01*
X140766800Y-113898550D01*
X141020800Y-113898550D01*
X141020800Y-114747800D01*
X141995050Y-114747800D01*
X142153800Y-114589050D01*
X142153800Y-114248491D01*
X142057127Y-114015102D01*
X141878499Y-113836473D01*
X141645110Y-113739800D01*
X141179550Y-113739800D01*
X141020800Y-113898550D01*
X140766800Y-113898550D01*
X140608050Y-113739800D01*
X140142490Y-113739800D01*
X139909101Y-113836473D01*
X139730473Y-114015102D01*
X139636161Y-114242791D01*
X139636161Y-114185382D01*
X139643000Y-114151000D01*
X139643000Y-109280600D01*
X139557212Y-108849316D01*
X139312909Y-108483691D01*
X134437108Y-103607890D01*
X148545524Y-103607890D01*
X148715355Y-104017924D01*
X149105642Y-104446183D01*
X149630108Y-104692486D01*
X149860000Y-104571819D01*
X149860000Y-103378000D01*
X150114000Y-103378000D01*
X150114000Y-104571819D01*
X150343892Y-104692486D01*
X150868358Y-104446183D01*
X151257000Y-104019729D01*
X151645642Y-104446183D01*
X152170108Y-104692486D01*
X152400000Y-104571819D01*
X152400000Y-103378000D01*
X150114000Y-103378000D01*
X149860000Y-103378000D01*
X148666845Y-103378000D01*
X148545524Y-103607890D01*
X134437108Y-103607890D01*
X131124309Y-100295091D01*
X130795855Y-100075625D01*
X130762522Y-99898474D01*
X130618828Y-99675167D01*
X130618828Y-93270400D01*
X119621973Y-93270400D01*
X119621973Y-99965000D01*
X119176800Y-99965000D01*
X118745516Y-100050788D01*
X118379891Y-100295091D01*
X116891091Y-101783891D01*
X116646788Y-102149516D01*
X116561000Y-102580800D01*
X116561000Y-112830839D01*
X116213000Y-112830839D01*
X115869474Y-112895478D01*
X115553967Y-113098501D01*
X115511461Y-113160711D01*
X115491750Y-113141000D01*
X115436690Y-113141000D01*
X115203301Y-113237673D01*
X115024673Y-113416302D01*
X114928000Y-113649691D01*
X114928000Y-113865250D01*
X115086750Y-114024000D01*
X115267839Y-114024000D01*
X115267839Y-114278000D01*
X115086750Y-114278000D01*
X114928000Y-114436750D01*
X114928000Y-114652309D01*
X115024673Y-114885698D01*
X115203301Y-115064327D01*
X115436690Y-115161000D01*
X115491750Y-115161000D01*
X115508961Y-115143789D01*
X115535501Y-115185033D01*
X115845279Y-115396696D01*
X115911000Y-115410005D01*
X115911000Y-116430839D01*
X115563000Y-116430839D01*
X115219474Y-116495478D01*
X114903967Y-116698501D01*
X114692304Y-117008279D01*
X114617839Y-117376000D01*
X114617839Y-117716618D01*
X114611000Y-117751000D01*
X114611000Y-120945000D01*
X114696788Y-121376284D01*
X114941091Y-121741909D01*
X114989100Y-121789918D01*
X114989100Y-126241751D01*
X114894927Y-126304675D01*
X114520560Y-126864954D01*
X114389100Y-127525848D01*
X114389100Y-128001352D01*
X114520560Y-128662246D01*
X114835509Y-129133600D01*
X114520560Y-129604954D01*
X114389100Y-130265848D01*
X114389100Y-130741352D01*
X114496482Y-131281200D01*
X106348500Y-131281200D01*
X106348500Y-82596486D01*
X114684166Y-82596486D01*
X114851672Y-83132826D01*
X115211676Y-83564237D01*
X115709370Y-83825042D01*
X115767061Y-83835504D01*
X115989100Y-83713515D01*
X115989100Y-82370600D01*
X114836629Y-82370600D01*
X114684166Y-82596486D01*
X106348500Y-82596486D01*
X106348500Y-79856486D01*
X114684166Y-79856486D01*
X114851672Y-80392826D01*
X115211676Y-80824237D01*
X115305875Y-80873600D01*
X115211676Y-80922963D01*
X114851672Y-81354374D01*
X114684166Y-81890714D01*
X114836629Y-82116600D01*
X115989100Y-82116600D01*
X115989100Y-79630600D01*
X114836629Y-79630600D01*
X114684166Y-79856486D01*
X106348500Y-79856486D01*
X106348500Y-78713300D01*
X114820776Y-78713300D01*
X114684166Y-79150714D01*
G36*
X190691800Y-87757000D02*
X171456159Y-87757000D01*
X171456159Y-95811000D01*
X190691800Y-95811000D01*
X190691800Y-97664300D01*
X171463047Y-97664300D01*
X171399200Y-97651600D01*
X171373800Y-97651600D01*
X170990351Y-97727873D01*
X170665279Y-97945079D01*
X170448073Y-98270151D01*
X170371800Y-98653600D01*
X170371800Y-116433600D01*
X170448073Y-116817049D01*
X170665279Y-117142121D01*
X170990351Y-117359327D01*
X171373800Y-117435600D01*
X183668700Y-117435600D01*
X183668700Y-131281200D01*
X173615718Y-131281200D01*
X173723100Y-130741352D01*
X173723100Y-130265848D01*
X173591640Y-129604954D01*
X173427303Y-129359007D01*
X173455133Y-129341099D01*
X173666796Y-129031321D01*
X173741261Y-128663600D01*
X173741261Y-127063600D01*
X173676622Y-126720074D01*
X173473599Y-126404567D01*
X173163821Y-126192904D01*
X172796100Y-126118439D01*
X171196100Y-126118439D01*
X170852574Y-126183078D01*
X170670569Y-126300195D01*
X170116994Y-125930308D01*
X169456100Y-125798848D01*
X168795206Y-125930308D01*
X168234927Y-126304675D01*
X168186100Y-126377750D01*
X168137273Y-126304675D01*
X167576994Y-125930308D01*
X166916100Y-125798848D01*
X166255206Y-125930308D01*
X165694927Y-126304675D01*
X165646100Y-126377750D01*
X165597273Y-126304675D01*
X165036994Y-125930308D01*
X164376100Y-125798848D01*
X163715206Y-125930308D01*
X163154927Y-126304675D01*
X163106100Y-126377750D01*
X163057273Y-126304675D01*
X162496994Y-125930308D01*
X161836100Y-125798848D01*
X161175206Y-125930308D01*
X160614927Y-126304675D01*
X160566100Y-126377750D01*
X160517273Y-126304675D01*
X159956994Y-125930308D01*
X159296100Y-125798848D01*
X158909745Y-125875699D01*
X158823010Y-125745891D01*
X153344100Y-120266982D01*
X153344100Y-119172761D01*
X153677000Y-119172761D01*
X154020526Y-119108122D01*
X154214134Y-118983539D01*
X154345984Y-118957312D01*
X154711609Y-118713009D01*
X155307857Y-118116761D01*
X156352400Y-118116761D01*
X156695926Y-118052122D01*
X157011433Y-117849099D01*
X157113103Y-117700300D01*
X160782000Y-117700300D01*
X161213284Y-117614512D01*
X161578909Y-117370209D01*
X169122709Y-109826410D01*
X169367012Y-109460784D01*
X169402853Y-109280600D01*
X169452800Y-109029500D01*
X169452800Y-90230418D01*
X170253010Y-89430209D01*
X170497312Y-89064584D01*
X170583100Y-88633300D01*
X170583100Y-83765449D01*
X170677273Y-83702525D01*
X170912857Y-83349949D01*
X171091676Y-83564237D01*
X171589370Y-83825042D01*
X171647061Y-83835504D01*
X171869100Y-83713515D01*
X171869100Y-82370600D01*
X172123100Y-82370600D01*
X172123100Y-83713515D01*
X172345139Y-83835504D01*
X172402830Y-83825042D01*
X172900524Y-83564237D01*
X173260528Y-83132826D01*
X173428034Y-82596486D01*
X173275571Y-82370600D01*
X172123100Y-82370600D01*
X171869100Y-82370600D01*
X171849100Y-82370600D01*
X171849100Y-82116600D01*
X171869100Y-82116600D01*
X171869100Y-79730600D01*
X172123100Y-79730600D01*
X172123100Y-82116600D01*
X173275571Y-82116600D01*
X173428034Y-81890714D01*
X173260528Y-81354374D01*
X172977856Y-81015633D01*
X173155798Y-80941927D01*
X173334427Y-80763299D01*
X173431100Y-80529910D01*
X173431100Y-79889350D01*
X173272350Y-79730600D01*
X172123100Y-79730600D01*
X171869100Y-79730600D01*
X171849100Y-79730600D01*
X171849100Y-79476600D01*
X171869100Y-79476600D01*
X171869100Y-79456600D01*
X172123100Y-79456600D01*
X172123100Y-79476600D01*
X173272350Y-79476600D01*
X173431100Y-79317850D01*
X173431100Y-78713300D01*
X190691800Y-78713300D01*
X190691800Y-87757000D01*
X190691800Y-87757000D01*
G37*
X190691800Y-87757000D02*
X171456159Y-87757000D01*
X171456159Y-95811000D01*
X190691800Y-95811000D01*
X190691800Y-97664300D01*
X171463047Y-97664300D01*
X171399200Y-97651600D01*
X171373800Y-97651600D01*
X170990351Y-97727873D01*
X170665279Y-97945079D01*
X170448073Y-98270151D01*
X170371800Y-98653600D01*
X170371800Y-116433600D01*
X170448073Y-116817049D01*
X170665279Y-117142121D01*
X170990351Y-117359327D01*
X171373800Y-117435600D01*
X183668700Y-117435600D01*
X183668700Y-131281200D01*
X173615718Y-131281200D01*
X173723100Y-130741352D01*
X173723100Y-130265848D01*
X173591640Y-129604954D01*
X173427303Y-129359007D01*
X173455133Y-129341099D01*
X173666796Y-129031321D01*
X173741261Y-128663600D01*
X173741261Y-127063600D01*
X173676622Y-126720074D01*
X173473599Y-126404567D01*
X173163821Y-126192904D01*
X172796100Y-126118439D01*
X171196100Y-126118439D01*
X170852574Y-126183078D01*
X170670569Y-126300195D01*
X170116994Y-125930308D01*
X169456100Y-125798848D01*
X168795206Y-125930308D01*
X168234927Y-126304675D01*
X168186100Y-126377750D01*
X168137273Y-126304675D01*
X167576994Y-125930308D01*
X166916100Y-125798848D01*
X166255206Y-125930308D01*
X165694927Y-126304675D01*
X165646100Y-126377750D01*
X165597273Y-126304675D01*
X165036994Y-125930308D01*
X164376100Y-125798848D01*
X163715206Y-125930308D01*
X163154927Y-126304675D01*
X163106100Y-126377750D01*
X163057273Y-126304675D01*
X162496994Y-125930308D01*
X161836100Y-125798848D01*
X161175206Y-125930308D01*
X160614927Y-126304675D01*
X160566100Y-126377750D01*
X160517273Y-126304675D01*
X159956994Y-125930308D01*
X159296100Y-125798848D01*
X158909745Y-125875699D01*
X158823010Y-125745891D01*
X153344100Y-120266982D01*
X153344100Y-119172761D01*
X153677000Y-119172761D01*
X154020526Y-119108122D01*
X154214134Y-118983539D01*
X154345984Y-118957312D01*
X154711609Y-118713009D01*
X155307857Y-118116761D01*
X156352400Y-118116761D01*
X156695926Y-118052122D01*
X157011433Y-117849099D01*
X157113103Y-117700300D01*
X160782000Y-117700300D01*
X161213284Y-117614512D01*
X161578909Y-117370209D01*
X169122709Y-109826410D01*
X169367012Y-109460784D01*
X169402853Y-109280600D01*
X169452800Y-109029500D01*
X169452800Y-90230418D01*
X170253010Y-89430209D01*
X170497312Y-89064584D01*
X170583100Y-88633300D01*
X170583100Y-83765449D01*
X170677273Y-83702525D01*
X170912857Y-83349949D01*
X171091676Y-83564237D01*
X171589370Y-83825042D01*
X171647061Y-83835504D01*
X171869100Y-83713515D01*
X171869100Y-82370600D01*
X172123100Y-82370600D01*
X172123100Y-83713515D01*
X172345139Y-83835504D01*
X172402830Y-83825042D01*
X172900524Y-83564237D01*
X173260528Y-83132826D01*
X173428034Y-82596486D01*
X173275571Y-82370600D01*
X172123100Y-82370600D01*
X171869100Y-82370600D01*
X171849100Y-82370600D01*
X171849100Y-82116600D01*
X171869100Y-82116600D01*
X171869100Y-79730600D01*
X172123100Y-79730600D01*
X172123100Y-82116600D01*
X173275571Y-82116600D01*
X173428034Y-81890714D01*
X173260528Y-81354374D01*
X172977856Y-81015633D01*
X173155798Y-80941927D01*
X173334427Y-80763299D01*
X173431100Y-80529910D01*
X173431100Y-79889350D01*
X173272350Y-79730600D01*
X172123100Y-79730600D01*
X171869100Y-79730600D01*
X171849100Y-79730600D01*
X171849100Y-79476600D01*
X171869100Y-79476600D01*
X171869100Y-79456600D01*
X172123100Y-79456600D01*
X172123100Y-79476600D01*
X173272350Y-79476600D01*
X173431100Y-79317850D01*
X173431100Y-78713300D01*
X190691800Y-78713300D01*
X190691800Y-87757000D01*
G36*
X150425000Y-123878700D02*
X150510788Y-124309984D01*
X150755091Y-124675609D01*
X151928544Y-125849062D01*
X151676100Y-125798848D01*
X151015206Y-125930308D01*
X150454927Y-126304675D01*
X150406100Y-126377750D01*
X150357273Y-126304675D01*
X149796994Y-125930308D01*
X149136100Y-125798848D01*
X148475206Y-125930308D01*
X147914927Y-126304675D01*
X147866100Y-126377750D01*
X147817273Y-126304675D01*
X147256994Y-125930308D01*
X146596100Y-125798848D01*
X145935206Y-125930308D01*
X145374927Y-126304675D01*
X145326100Y-126377750D01*
X145277273Y-126304675D01*
X144716994Y-125930308D01*
X144056100Y-125798848D01*
X143395206Y-125930308D01*
X142834927Y-126304675D01*
X142786100Y-126377750D01*
X142737273Y-126304675D01*
X142176994Y-125930308D01*
X141516100Y-125798848D01*
X140855206Y-125930308D01*
X140294927Y-126304675D01*
X140246100Y-126377750D01*
X140197273Y-126304675D01*
X139636994Y-125930308D01*
X138976100Y-125798848D01*
X138315206Y-125930308D01*
X137754927Y-126304675D01*
X137706100Y-126377750D01*
X137657273Y-126304675D01*
X137096994Y-125930308D01*
X136436100Y-125798848D01*
X135775206Y-125930308D01*
X135214927Y-126304675D01*
X135166100Y-126377750D01*
X135117273Y-126304675D01*
X134556994Y-125930308D01*
X133896100Y-125798848D01*
X133235206Y-125930308D01*
X132674927Y-126304675D01*
X132626100Y-126377750D01*
X132577273Y-126304675D01*
X132016994Y-125930308D01*
X131356100Y-125798848D01*
X130695206Y-125930308D01*
X130134927Y-126304675D01*
X130086100Y-126377750D01*
X130037273Y-126304675D01*
X129476994Y-125930308D01*
X128816100Y-125798848D01*
X128155206Y-125930308D01*
X127594927Y-126304675D01*
X127546100Y-126377750D01*
X127497273Y-126304675D01*
X126987898Y-125964321D01*
X128228819Y-124723400D01*
X135559800Y-124723400D01*
X135991084Y-124637612D01*
X136356709Y-124393309D01*
X138012910Y-122737109D01*
X138257212Y-122371484D01*
X138343000Y-121940200D01*
X138343000Y-119071161D01*
X138691000Y-119071161D01*
X139034526Y-119006522D01*
X139350033Y-118803499D01*
X139561696Y-118493721D01*
X139636161Y-118126000D01*
X139636161Y-118064485D01*
X139901079Y-118245496D01*
X140268800Y-118319961D01*
X141518800Y-118319961D01*
X141862326Y-118255322D01*
X142177833Y-118052299D01*
X142236116Y-117967000D01*
X150425000Y-117967000D01*
X150425000Y-123878700D01*
X150425000Y-123878700D01*
G37*
X150425000Y-123878700D02*
X150510788Y-124309984D01*
X150755091Y-124675609D01*
X151928544Y-125849062D01*
X151676100Y-125798848D01*
X151015206Y-125930308D01*
X150454927Y-126304675D01*
X150406100Y-126377750D01*
X150357273Y-126304675D01*
X149796994Y-125930308D01*
X149136100Y-125798848D01*
X148475206Y-125930308D01*
X147914927Y-126304675D01*
X147866100Y-126377750D01*
X147817273Y-126304675D01*
X147256994Y-125930308D01*
X146596100Y-125798848D01*
X145935206Y-125930308D01*
X145374927Y-126304675D01*
X145326100Y-126377750D01*
X145277273Y-126304675D01*
X144716994Y-125930308D01*
X144056100Y-125798848D01*
X143395206Y-125930308D01*
X142834927Y-126304675D01*
X142786100Y-126377750D01*
X142737273Y-126304675D01*
X142176994Y-125930308D01*
X141516100Y-125798848D01*
X140855206Y-125930308D01*
X140294927Y-126304675D01*
X140246100Y-126377750D01*
X140197273Y-126304675D01*
X139636994Y-125930308D01*
X138976100Y-125798848D01*
X138315206Y-125930308D01*
X137754927Y-126304675D01*
X137706100Y-126377750D01*
X137657273Y-126304675D01*
X137096994Y-125930308D01*
X136436100Y-125798848D01*
X135775206Y-125930308D01*
X135214927Y-126304675D01*
X135166100Y-126377750D01*
X135117273Y-126304675D01*
X134556994Y-125930308D01*
X133896100Y-125798848D01*
X133235206Y-125930308D01*
X132674927Y-126304675D01*
X132626100Y-126377750D01*
X132577273Y-126304675D01*
X132016994Y-125930308D01*
X131356100Y-125798848D01*
X130695206Y-125930308D01*
X130134927Y-126304675D01*
X130086100Y-126377750D01*
X130037273Y-126304675D01*
X129476994Y-125930308D01*
X128816100Y-125798848D01*
X128155206Y-125930308D01*
X127594927Y-126304675D01*
X127546100Y-126377750D01*
X127497273Y-126304675D01*
X126987898Y-125964321D01*
X128228819Y-124723400D01*
X135559800Y-124723400D01*
X135991084Y-124637612D01*
X136356709Y-124393309D01*
X138012910Y-122737109D01*
X138257212Y-122371484D01*
X138343000Y-121940200D01*
X138343000Y-119071161D01*
X138691000Y-119071161D01*
X139034526Y-119006522D01*
X139350033Y-118803499D01*
X139561696Y-118493721D01*
X139636161Y-118126000D01*
X139636161Y-118064485D01*
X139901079Y-118245496D01*
X140268800Y-118319961D01*
X141518800Y-118319961D01*
X141862326Y-118255322D01*
X142177833Y-118052299D01*
X142236116Y-117967000D01*
X150425000Y-117967000D01*
X150425000Y-123878700D01*
G36*
X137389000Y-109747418D02*
X137389000Y-112830839D01*
X137041000Y-112830839D01*
X136697474Y-112895478D01*
X136381967Y-113098501D01*
X136339461Y-113160711D01*
X136319750Y-113141000D01*
X136264690Y-113141000D01*
X136031301Y-113237673D01*
X135852673Y-113416302D01*
X135756000Y-113649691D01*
X135756000Y-113865250D01*
X135914750Y-114024000D01*
X136095839Y-114024000D01*
X136095839Y-114278000D01*
X135914750Y-114278000D01*
X135756000Y-114436750D01*
X135756000Y-114652309D01*
X135852673Y-114885698D01*
X136031301Y-115064327D01*
X136264690Y-115161000D01*
X136319750Y-115161000D01*
X136336961Y-115143789D01*
X136363501Y-115185033D01*
X136673279Y-115396696D01*
X136739000Y-115410005D01*
X136739000Y-115713000D01*
X134607207Y-115713000D01*
X134576299Y-115664967D01*
X134473874Y-115594983D01*
X134533800Y-115450309D01*
X134533800Y-115109750D01*
X134375050Y-114951000D01*
X133400800Y-114951000D01*
X133400800Y-114971000D01*
X133146800Y-114971000D01*
X133146800Y-114951000D01*
X133126800Y-114951000D01*
X133126800Y-114697000D01*
X133146800Y-114697000D01*
X133146800Y-113847750D01*
X133400800Y-113847750D01*
X133400800Y-114697000D01*
X134375050Y-114697000D01*
X134533800Y-114538250D01*
X134533800Y-114197691D01*
X134437127Y-113964302D01*
X134258499Y-113785673D01*
X134025110Y-113689000D01*
X133559550Y-113689000D01*
X133400800Y-113847750D01*
X133146800Y-113847750D01*
X132988050Y-113689000D01*
X132531000Y-113689000D01*
X132531000Y-112214300D01*
X132445212Y-111783016D01*
X132325274Y-111603516D01*
X132200909Y-111417390D01*
X126349000Y-105565482D01*
X126349000Y-104960599D01*
X126365000Y-104952155D01*
X126365000Y-103759000D01*
X126619000Y-103759000D01*
X126619000Y-104952155D01*
X126848890Y-105073476D01*
X127258924Y-104903645D01*
X127687183Y-104513358D01*
X127762000Y-104354046D01*
X127836817Y-104513358D01*
X128265076Y-104903645D01*
X128675110Y-105073476D01*
X128905000Y-104952155D01*
X128905000Y-103759000D01*
X129159000Y-103759000D01*
X129159000Y-104952155D01*
X129388890Y-105073476D01*
X129798924Y-104903645D01*
X130227183Y-104513358D01*
X130473486Y-103988892D01*
X130352819Y-103759000D01*
X129159000Y-103759000D01*
X128905000Y-103759000D01*
X126619000Y-103759000D01*
X126365000Y-103759000D01*
X126349000Y-103759000D01*
X126349000Y-103505000D01*
X126365000Y-103505000D01*
X126365000Y-103485000D01*
X126619000Y-103485000D01*
X126619000Y-103505000D01*
X128905000Y-103505000D01*
X128905000Y-103485000D01*
X129159000Y-103485000D01*
X129159000Y-103505000D01*
X130352819Y-103505000D01*
X130473486Y-103275108D01*
X130252721Y-102805022D01*
X130370692Y-102729110D01*
X137389000Y-109747418D01*
X137389000Y-109747418D01*
G37*
X137389000Y-109747418D02*
X137389000Y-112830839D01*
X137041000Y-112830839D01*
X136697474Y-112895478D01*
X136381967Y-113098501D01*
X136339461Y-113160711D01*
X136319750Y-113141000D01*
X136264690Y-113141000D01*
X136031301Y-113237673D01*
X135852673Y-113416302D01*
X135756000Y-113649691D01*
X135756000Y-113865250D01*
X135914750Y-114024000D01*
X136095839Y-114024000D01*
X136095839Y-114278000D01*
X135914750Y-114278000D01*
X135756000Y-114436750D01*
X135756000Y-114652309D01*
X135852673Y-114885698D01*
X136031301Y-115064327D01*
X136264690Y-115161000D01*
X136319750Y-115161000D01*
X136336961Y-115143789D01*
X136363501Y-115185033D01*
X136673279Y-115396696D01*
X136739000Y-115410005D01*
X136739000Y-115713000D01*
X134607207Y-115713000D01*
X134576299Y-115664967D01*
X134473874Y-115594983D01*
X134533800Y-115450309D01*
X134533800Y-115109750D01*
X134375050Y-114951000D01*
X133400800Y-114951000D01*
X133400800Y-114971000D01*
X133146800Y-114971000D01*
X133146800Y-114951000D01*
X133126800Y-114951000D01*
X133126800Y-114697000D01*
X133146800Y-114697000D01*
X133146800Y-113847750D01*
X133400800Y-113847750D01*
X133400800Y-114697000D01*
X134375050Y-114697000D01*
X134533800Y-114538250D01*
X134533800Y-114197691D01*
X134437127Y-113964302D01*
X134258499Y-113785673D01*
X134025110Y-113689000D01*
X133559550Y-113689000D01*
X133400800Y-113847750D01*
X133146800Y-113847750D01*
X132988050Y-113689000D01*
X132531000Y-113689000D01*
X132531000Y-112214300D01*
X132445212Y-111783016D01*
X132325274Y-111603516D01*
X132200909Y-111417390D01*
X126349000Y-105565482D01*
X126349000Y-104960599D01*
X126365000Y-104952155D01*
X126365000Y-103759000D01*
X126619000Y-103759000D01*
X126619000Y-104952155D01*
X126848890Y-105073476D01*
X127258924Y-104903645D01*
X127687183Y-104513358D01*
X127762000Y-104354046D01*
X127836817Y-104513358D01*
X128265076Y-104903645D01*
X128675110Y-105073476D01*
X128905000Y-104952155D01*
X128905000Y-103759000D01*
X129159000Y-103759000D01*
X129159000Y-104952155D01*
X129388890Y-105073476D01*
X129798924Y-104903645D01*
X130227183Y-104513358D01*
X130473486Y-103988892D01*
X130352819Y-103759000D01*
X129159000Y-103759000D01*
X128905000Y-103759000D01*
X126619000Y-103759000D01*
X126365000Y-103759000D01*
X126349000Y-103759000D01*
X126349000Y-103505000D01*
X126365000Y-103505000D01*
X126365000Y-103485000D01*
X126619000Y-103485000D01*
X126619000Y-103505000D01*
X128905000Y-103505000D01*
X128905000Y-103485000D01*
X129159000Y-103485000D01*
X129159000Y-103505000D01*
X130352819Y-103505000D01*
X130473486Y-103275108D01*
X130252721Y-102805022D01*
X130370692Y-102729110D01*
X137389000Y-109747418D01*
G36*
X124079000Y-103505000D02*
X124095000Y-103505000D01*
X124095000Y-103759000D01*
X124079000Y-103759000D01*
X124079000Y-104952155D01*
X124095000Y-104960599D01*
X124095000Y-106032300D01*
X124180788Y-106463584D01*
X124425091Y-106829209D01*
X130277000Y-112681119D01*
X130277000Y-112830839D01*
X129929000Y-112830839D01*
X129585474Y-112895478D01*
X129269967Y-113098501D01*
X129227461Y-113160711D01*
X129207750Y-113141000D01*
X129152690Y-113141000D01*
X128919301Y-113237673D01*
X128740673Y-113416302D01*
X128644000Y-113649691D01*
X128644000Y-113865250D01*
X128802750Y-114024000D01*
X128983839Y-114024000D01*
X128983839Y-114278000D01*
X128802750Y-114278000D01*
X128644000Y-114436750D01*
X128644000Y-114652309D01*
X128740673Y-114885698D01*
X128919301Y-115064327D01*
X129152690Y-115161000D01*
X129207750Y-115161000D01*
X129224961Y-115143789D01*
X129251501Y-115185033D01*
X129561279Y-115396696D01*
X129627000Y-115410005D01*
X129627000Y-115713000D01*
X127829475Y-115713000D01*
X127768274Y-115671183D01*
X127828200Y-115526509D01*
X127828200Y-115185950D01*
X127669450Y-115027200D01*
X126695200Y-115027200D01*
X126695200Y-115047200D01*
X126441200Y-115047200D01*
X126441200Y-115027200D01*
X126421200Y-115027200D01*
X126421200Y-114773200D01*
X126441200Y-114773200D01*
X126441200Y-113923950D01*
X126695200Y-113923950D01*
X126695200Y-114773200D01*
X127669450Y-114773200D01*
X127828200Y-114614450D01*
X127828200Y-114273891D01*
X127731527Y-114040502D01*
X127552899Y-113861873D01*
X127319510Y-113765200D01*
X126853950Y-113765200D01*
X126695200Y-113923950D01*
X126441200Y-113923950D01*
X126282450Y-113765200D01*
X125816890Y-113765200D01*
X125583501Y-113861873D01*
X125546000Y-113899374D01*
X125546000Y-109090100D01*
X125460212Y-108658816D01*
X125460212Y-108658815D01*
X125215909Y-108293190D01*
X123821700Y-106898982D01*
X123821700Y-104953897D01*
X123825000Y-104952155D01*
X123825000Y-103759000D01*
X123821700Y-103759000D01*
X123821700Y-103505000D01*
X123825000Y-103505000D01*
X123825000Y-103485000D01*
X124079000Y-103485000D01*
X124079000Y-103505000D01*
X124079000Y-103505000D01*
G37*
X124079000Y-103505000D02*
X124095000Y-103505000D01*
X124095000Y-103759000D01*
X124079000Y-103759000D01*
X124079000Y-104952155D01*
X124095000Y-104960599D01*
X124095000Y-106032300D01*
X124180788Y-106463584D01*
X124425091Y-106829209D01*
X130277000Y-112681119D01*
X130277000Y-112830839D01*
X129929000Y-112830839D01*
X129585474Y-112895478D01*
X129269967Y-113098501D01*
X129227461Y-113160711D01*
X129207750Y-113141000D01*
X129152690Y-113141000D01*
X128919301Y-113237673D01*
X128740673Y-113416302D01*
X128644000Y-113649691D01*
X128644000Y-113865250D01*
X128802750Y-114024000D01*
X128983839Y-114024000D01*
X128983839Y-114278000D01*
X128802750Y-114278000D01*
X128644000Y-114436750D01*
X128644000Y-114652309D01*
X128740673Y-114885698D01*
X128919301Y-115064327D01*
X129152690Y-115161000D01*
X129207750Y-115161000D01*
X129224961Y-115143789D01*
X129251501Y-115185033D01*
X129561279Y-115396696D01*
X129627000Y-115410005D01*
X129627000Y-115713000D01*
X127829475Y-115713000D01*
X127768274Y-115671183D01*
X127828200Y-115526509D01*
X127828200Y-115185950D01*
X127669450Y-115027200D01*
X126695200Y-115027200D01*
X126695200Y-115047200D01*
X126441200Y-115047200D01*
X126441200Y-115027200D01*
X126421200Y-115027200D01*
X126421200Y-114773200D01*
X126441200Y-114773200D01*
X126441200Y-113923950D01*
X126695200Y-113923950D01*
X126695200Y-114773200D01*
X127669450Y-114773200D01*
X127828200Y-114614450D01*
X127828200Y-114273891D01*
X127731527Y-114040502D01*
X127552899Y-113861873D01*
X127319510Y-113765200D01*
X126853950Y-113765200D01*
X126695200Y-113923950D01*
X126441200Y-113923950D01*
X126282450Y-113765200D01*
X125816890Y-113765200D01*
X125583501Y-113861873D01*
X125546000Y-113899374D01*
X125546000Y-109090100D01*
X125460212Y-108658816D01*
X125460212Y-108658815D01*
X125215909Y-108293190D01*
X123821700Y-106898982D01*
X123821700Y-104953897D01*
X123825000Y-104952155D01*
X123825000Y-103759000D01*
X123821700Y-103759000D01*
X123821700Y-103505000D01*
X123825000Y-103505000D01*
X123825000Y-103485000D01*
X124079000Y-103485000D01*
X124079000Y-103505000D01*
G36*
X120155471Y-102383342D02*
X120423406Y-102562370D01*
X120216817Y-102750642D01*
X119970514Y-103275108D01*
X120091181Y-103505000D01*
X121285000Y-103505000D01*
X121285000Y-103485000D01*
X121539000Y-103485000D01*
X121539000Y-103505000D01*
X121559000Y-103505000D01*
X121559000Y-103759000D01*
X121539000Y-103759000D01*
X121539000Y-104952155D01*
X121567700Y-104967301D01*
X121567700Y-107365800D01*
X121653488Y-107797084D01*
X121897791Y-108162709D01*
X123292000Y-109556919D01*
X123292000Y-112957839D01*
X122944000Y-112957839D01*
X122600474Y-113022478D01*
X122284967Y-113225501D01*
X122242461Y-113287711D01*
X122222750Y-113268000D01*
X122167690Y-113268000D01*
X121934301Y-113364673D01*
X121755673Y-113543302D01*
X121659000Y-113776691D01*
X121659000Y-113992250D01*
X121817750Y-114151000D01*
X121998839Y-114151000D01*
X121998839Y-114405000D01*
X121817750Y-114405000D01*
X121659000Y-114563750D01*
X121659000Y-114779309D01*
X121755673Y-115012698D01*
X121934301Y-115191327D01*
X122167690Y-115288000D01*
X122222750Y-115288000D01*
X122239961Y-115270789D01*
X122266501Y-115312033D01*
X122576279Y-115523696D01*
X122642000Y-115537005D01*
X122642000Y-115636800D01*
X121230463Y-115636800D01*
X121215899Y-115614167D01*
X121113474Y-115544183D01*
X121173400Y-115399509D01*
X121173400Y-115058950D01*
X121014650Y-114900200D01*
X120040400Y-114900200D01*
X120040400Y-114920200D01*
X119786400Y-114920200D01*
X119786400Y-114900200D01*
X119766400Y-114900200D01*
X119766400Y-114646200D01*
X119786400Y-114646200D01*
X119786400Y-113796950D01*
X120040400Y-113796950D01*
X120040400Y-114646200D01*
X121014650Y-114646200D01*
X121173400Y-114487450D01*
X121173400Y-114146891D01*
X121076727Y-113913502D01*
X120898099Y-113734873D01*
X120664710Y-113638200D01*
X120199150Y-113638200D01*
X120040400Y-113796950D01*
X119786400Y-113796950D01*
X119627650Y-113638200D01*
X119162090Y-113638200D01*
X118928701Y-113734873D01*
X118815000Y-113848575D01*
X118815000Y-103988892D01*
X119970514Y-103988892D01*
X120216817Y-104513358D01*
X120645076Y-104903645D01*
X121055110Y-105073476D01*
X121285000Y-104952155D01*
X121285000Y-103759000D01*
X120091181Y-103759000D01*
X119970514Y-103988892D01*
X118815000Y-103988892D01*
X118815000Y-103047618D01*
X119643618Y-102219000D01*
X120045661Y-102219000D01*
X120155471Y-102383342D01*
X120155471Y-102383342D01*
G37*
X120155471Y-102383342D02*
X120423406Y-102562370D01*
X120216817Y-102750642D01*
X119970514Y-103275108D01*
X120091181Y-103505000D01*
X121285000Y-103505000D01*
X121285000Y-103485000D01*
X121539000Y-103485000D01*
X121539000Y-103505000D01*
X121559000Y-103505000D01*
X121559000Y-103759000D01*
X121539000Y-103759000D01*
X121539000Y-104952155D01*
X121567700Y-104967301D01*
X121567700Y-107365800D01*
X121653488Y-107797084D01*
X121897791Y-108162709D01*
X123292000Y-109556919D01*
X123292000Y-112957839D01*
X122944000Y-112957839D01*
X122600474Y-113022478D01*
X122284967Y-113225501D01*
X122242461Y-113287711D01*
X122222750Y-113268000D01*
X122167690Y-113268000D01*
X121934301Y-113364673D01*
X121755673Y-113543302D01*
X121659000Y-113776691D01*
X121659000Y-113992250D01*
X121817750Y-114151000D01*
X121998839Y-114151000D01*
X121998839Y-114405000D01*
X121817750Y-114405000D01*
X121659000Y-114563750D01*
X121659000Y-114779309D01*
X121755673Y-115012698D01*
X121934301Y-115191327D01*
X122167690Y-115288000D01*
X122222750Y-115288000D01*
X122239961Y-115270789D01*
X122266501Y-115312033D01*
X122576279Y-115523696D01*
X122642000Y-115537005D01*
X122642000Y-115636800D01*
X121230463Y-115636800D01*
X121215899Y-115614167D01*
X121113474Y-115544183D01*
X121173400Y-115399509D01*
X121173400Y-115058950D01*
X121014650Y-114900200D01*
X120040400Y-114900200D01*
X120040400Y-114920200D01*
X119786400Y-114920200D01*
X119786400Y-114900200D01*
X119766400Y-114900200D01*
X119766400Y-114646200D01*
X119786400Y-114646200D01*
X119786400Y-113796950D01*
X120040400Y-113796950D01*
X120040400Y-114646200D01*
X121014650Y-114646200D01*
X121173400Y-114487450D01*
X121173400Y-114146891D01*
X121076727Y-113913502D01*
X120898099Y-113734873D01*
X120664710Y-113638200D01*
X120199150Y-113638200D01*
X120040400Y-113796950D01*
X119786400Y-113796950D01*
X119627650Y-113638200D01*
X119162090Y-113638200D01*
X118928701Y-113734873D01*
X118815000Y-113848575D01*
X118815000Y-103988892D01*
X119970514Y-103988892D01*
X120216817Y-104513358D01*
X120645076Y-104903645D01*
X121055110Y-105073476D01*
X121285000Y-104952155D01*
X121285000Y-103759000D01*
X120091181Y-103759000D01*
X119970514Y-103988892D01*
X118815000Y-103988892D01*
X118815000Y-103047618D01*
X119643618Y-102219000D01*
X120045661Y-102219000D01*
X120155471Y-102383342D01*
G36*
X141191501Y-91135233D02*
X141501279Y-91346896D01*
X141869000Y-91421361D01*
X143119000Y-91421361D01*
X143462526Y-91356722D01*
X143778033Y-91153699D01*
X143836316Y-91068400D01*
X167198800Y-91068400D01*
X167198800Y-108562681D01*
X160315182Y-115446300D01*
X156932914Y-115446300D01*
X156927474Y-115442583D01*
X156987400Y-115297909D01*
X156987400Y-114957350D01*
X156828650Y-114798600D01*
X155854400Y-114798600D01*
X155854400Y-114818600D01*
X155600400Y-114818600D01*
X155600400Y-114798600D01*
X155580400Y-114798600D01*
X155580400Y-114544600D01*
X155600400Y-114544600D01*
X155600400Y-113695350D01*
X155854400Y-113695350D01*
X155854400Y-114544600D01*
X156828650Y-114544600D01*
X156987400Y-114385850D01*
X156987400Y-114045291D01*
X156890727Y-113811902D01*
X156712099Y-113633273D01*
X156478710Y-113536600D01*
X156013150Y-113536600D01*
X155854400Y-113695350D01*
X155600400Y-113695350D01*
X155441650Y-113536600D01*
X154976090Y-113536600D01*
X154742701Y-113633273D01*
X154629000Y-113746975D01*
X154629000Y-113093318D01*
X154890609Y-112831709D01*
X155134912Y-112466084D01*
X155188791Y-112195216D01*
X155220700Y-112034800D01*
X155220700Y-102277700D01*
X155134912Y-101846416D01*
X154946937Y-101565091D01*
X154890609Y-101480790D01*
X154302645Y-100892827D01*
X154338813Y-100711000D01*
X154209182Y-100059300D01*
X156625272Y-100059300D01*
X156625272Y-93105300D01*
X145914129Y-93105300D01*
X145914129Y-99584000D01*
X143900619Y-99584000D01*
X139407500Y-95090882D01*
X139407500Y-93676241D01*
X139747880Y-93676241D01*
X140091406Y-93611602D01*
X140406913Y-93408579D01*
X140449419Y-93346369D01*
X140469130Y-93366080D01*
X140524190Y-93366080D01*
X140757579Y-93269407D01*
X140936207Y-93090778D01*
X141032880Y-92857389D01*
X141032880Y-92641830D01*
X140874130Y-92483080D01*
X140693041Y-92483080D01*
X140693041Y-92229080D01*
X140874130Y-92229080D01*
X141032880Y-92070330D01*
X141032880Y-91854771D01*
X140936207Y-91621382D01*
X140757579Y-91442753D01*
X140524190Y-91346080D01*
X140469130Y-91346080D01*
X140451919Y-91363291D01*
X140425379Y-91322047D01*
X140115601Y-91110384D01*
X140057500Y-91098618D01*
X140057500Y-91068400D01*
X141148495Y-91068400D01*
X141191501Y-91135233D01*
X141191501Y-91135233D01*
G37*
X141191501Y-91135233D02*
X141501279Y-91346896D01*
X141869000Y-91421361D01*
X143119000Y-91421361D01*
X143462526Y-91356722D01*
X143778033Y-91153699D01*
X143836316Y-91068400D01*
X167198800Y-91068400D01*
X167198800Y-108562681D01*
X160315182Y-115446300D01*
X156932914Y-115446300D01*
X156927474Y-115442583D01*
X156987400Y-115297909D01*
X156987400Y-114957350D01*
X156828650Y-114798600D01*
X155854400Y-114798600D01*
X155854400Y-114818600D01*
X155600400Y-114818600D01*
X155600400Y-114798600D01*
X155580400Y-114798600D01*
X155580400Y-114544600D01*
X155600400Y-114544600D01*
X155600400Y-113695350D01*
X155854400Y-113695350D01*
X155854400Y-114544600D01*
X156828650Y-114544600D01*
X156987400Y-114385850D01*
X156987400Y-114045291D01*
X156890727Y-113811902D01*
X156712099Y-113633273D01*
X156478710Y-113536600D01*
X156013150Y-113536600D01*
X155854400Y-113695350D01*
X155600400Y-113695350D01*
X155441650Y-113536600D01*
X154976090Y-113536600D01*
X154742701Y-113633273D01*
X154629000Y-113746975D01*
X154629000Y-113093318D01*
X154890609Y-112831709D01*
X155134912Y-112466084D01*
X155188791Y-112195216D01*
X155220700Y-112034800D01*
X155220700Y-102277700D01*
X155134912Y-101846416D01*
X154946937Y-101565091D01*
X154890609Y-101480790D01*
X154302645Y-100892827D01*
X154338813Y-100711000D01*
X154209182Y-100059300D01*
X156625272Y-100059300D01*
X156625272Y-93105300D01*
X145914129Y-93105300D01*
X145914129Y-99584000D01*
X143900619Y-99584000D01*
X139407500Y-95090882D01*
X139407500Y-93676241D01*
X139747880Y-93676241D01*
X140091406Y-93611602D01*
X140406913Y-93408579D01*
X140449419Y-93346369D01*
X140469130Y-93366080D01*
X140524190Y-93366080D01*
X140757579Y-93269407D01*
X140936207Y-93090778D01*
X141032880Y-92857389D01*
X141032880Y-92641830D01*
X140874130Y-92483080D01*
X140693041Y-92483080D01*
X140693041Y-92229080D01*
X140874130Y-92229080D01*
X141032880Y-92070330D01*
X141032880Y-91854771D01*
X140936207Y-91621382D01*
X140757579Y-91442753D01*
X140524190Y-91346080D01*
X140469130Y-91346080D01*
X140451919Y-91363291D01*
X140425379Y-91322047D01*
X140115601Y-91110384D01*
X140057500Y-91098618D01*
X140057500Y-91068400D01*
X141148495Y-91068400D01*
X141191501Y-91135233D01*
G36*
X168234927Y-83702525D02*
X168329100Y-83765449D01*
X168329100Y-88166481D01*
X167681182Y-88814400D01*
X143792449Y-88814400D01*
X143694074Y-88747183D01*
X143754000Y-88602509D01*
X143754000Y-88261950D01*
X143595250Y-88103200D01*
X142621000Y-88103200D01*
X142621000Y-88123200D01*
X142367000Y-88123200D01*
X142367000Y-88103200D01*
X142347000Y-88103200D01*
X142347000Y-87849200D01*
X142367000Y-87849200D01*
X142367000Y-87829200D01*
X142621000Y-87829200D01*
X142621000Y-87849200D01*
X143595250Y-87849200D01*
X143754000Y-87690450D01*
X143754000Y-87349891D01*
X143657327Y-87116502D01*
X143478699Y-86937873D01*
X143245310Y-86841200D01*
X142819218Y-86841200D01*
X144853010Y-84807409D01*
X145097312Y-84441784D01*
X145183100Y-84010500D01*
X145183100Y-83765449D01*
X145277273Y-83702525D01*
X145326100Y-83629450D01*
X145374927Y-83702525D01*
X145935206Y-84076892D01*
X146596100Y-84208352D01*
X147256994Y-84076892D01*
X147817273Y-83702525D01*
X147866100Y-83629450D01*
X147914927Y-83702525D01*
X148475206Y-84076892D01*
X149136100Y-84208352D01*
X149796994Y-84076892D01*
X150357273Y-83702525D01*
X150406100Y-83629450D01*
X150454927Y-83702525D01*
X151015206Y-84076892D01*
X151676100Y-84208352D01*
X152336994Y-84076892D01*
X152897273Y-83702525D01*
X152946100Y-83629450D01*
X152994927Y-83702525D01*
X153555206Y-84076892D01*
X154216100Y-84208352D01*
X154876994Y-84076892D01*
X155437273Y-83702525D01*
X155486100Y-83629450D01*
X155534927Y-83702525D01*
X156095206Y-84076892D01*
X156756100Y-84208352D01*
X157416994Y-84076892D01*
X157977273Y-83702525D01*
X158026100Y-83629450D01*
X158074927Y-83702525D01*
X158635206Y-84076892D01*
X159296100Y-84208352D01*
X159956994Y-84076892D01*
X160517273Y-83702525D01*
X160566100Y-83629450D01*
X160614927Y-83702525D01*
X161175206Y-84076892D01*
X161836100Y-84208352D01*
X162496994Y-84076892D01*
X163057273Y-83702525D01*
X163106100Y-83629450D01*
X163154927Y-83702525D01*
X163715206Y-84076892D01*
X164376100Y-84208352D01*
X165036994Y-84076892D01*
X165597273Y-83702525D01*
X165646100Y-83629450D01*
X165694927Y-83702525D01*
X166255206Y-84076892D01*
X166916100Y-84208352D01*
X167576994Y-84076892D01*
X168137273Y-83702525D01*
X168186100Y-83629450D01*
X168234927Y-83702525D01*
X168234927Y-83702525D01*
G37*
X168234927Y-83702525D02*
X168329100Y-83765449D01*
X168329100Y-88166481D01*
X167681182Y-88814400D01*
X143792449Y-88814400D01*
X143694074Y-88747183D01*
X143754000Y-88602509D01*
X143754000Y-88261950D01*
X143595250Y-88103200D01*
X142621000Y-88103200D01*
X142621000Y-88123200D01*
X142367000Y-88123200D01*
X142367000Y-88103200D01*
X142347000Y-88103200D01*
X142347000Y-87849200D01*
X142367000Y-87849200D01*
X142367000Y-87829200D01*
X142621000Y-87829200D01*
X142621000Y-87849200D01*
X143595250Y-87849200D01*
X143754000Y-87690450D01*
X143754000Y-87349891D01*
X143657327Y-87116502D01*
X143478699Y-86937873D01*
X143245310Y-86841200D01*
X142819218Y-86841200D01*
X144853010Y-84807409D01*
X145097312Y-84441784D01*
X145183100Y-84010500D01*
X145183100Y-83765449D01*
X145277273Y-83702525D01*
X145326100Y-83629450D01*
X145374927Y-83702525D01*
X145935206Y-84076892D01*
X146596100Y-84208352D01*
X147256994Y-84076892D01*
X147817273Y-83702525D01*
X147866100Y-83629450D01*
X147914927Y-83702525D01*
X148475206Y-84076892D01*
X149136100Y-84208352D01*
X149796994Y-84076892D01*
X150357273Y-83702525D01*
X150406100Y-83629450D01*
X150454927Y-83702525D01*
X151015206Y-84076892D01*
X151676100Y-84208352D01*
X152336994Y-84076892D01*
X152897273Y-83702525D01*
X152946100Y-83629450D01*
X152994927Y-83702525D01*
X153555206Y-84076892D01*
X154216100Y-84208352D01*
X154876994Y-84076892D01*
X155437273Y-83702525D01*
X155486100Y-83629450D01*
X155534927Y-83702525D01*
X156095206Y-84076892D01*
X156756100Y-84208352D01*
X157416994Y-84076892D01*
X157977273Y-83702525D01*
X158026100Y-83629450D01*
X158074927Y-83702525D01*
X158635206Y-84076892D01*
X159296100Y-84208352D01*
X159956994Y-84076892D01*
X160517273Y-83702525D01*
X160566100Y-83629450D01*
X160614927Y-83702525D01*
X161175206Y-84076892D01*
X161836100Y-84208352D01*
X162496994Y-84076892D01*
X163057273Y-83702525D01*
X163106100Y-83629450D01*
X163154927Y-83702525D01*
X163715206Y-84076892D01*
X164376100Y-84208352D01*
X165036994Y-84076892D01*
X165597273Y-83702525D01*
X165646100Y-83629450D01*
X165694927Y-83702525D01*
X166255206Y-84076892D01*
X166916100Y-84208352D01*
X167576994Y-84076892D01*
X168137273Y-83702525D01*
X168186100Y-83629450D01*
X168234927Y-83702525D01*
M02*
