M48
;DRILL file {KiCad 4.0.4+e1-6308~48~ubuntu15.10.1-stable} date Wed Sep 13 16:31:23 2017
;FORMAT={-:-/ absolute / inch / decimal}
FMAT,2
INCH,TZ
T1C0.016
T2C0.039
T3C0.043
%
G90
G05
M72
T1
X4.5275Y-4.083
X4.7805Y-4.347
X5.004Y-4.373
X5.206Y-4.29
X5.315Y-3.963
X5.403Y-4.036
X5.64Y-3.773
X5.699Y-3.417
X5.708Y-3.845
X5.718Y-4.404
X5.73Y-4.854
X5.736Y-4.164
T2
X4.78Y-3.98
X4.78Y-4.08
X4.88Y-3.98
X4.88Y-4.08
X4.98Y-3.98
X4.98Y-4.08
X5.08Y-3.98
X5.08Y-4.08
X5.905Y-3.965
X5.905Y-4.065
X6.005Y-3.965
X6.005Y-4.065
T3
X4.5715Y-3.134
X4.5715Y-3.234
X4.5715Y-5.034
X4.5715Y-5.134
X4.6715Y-3.134
X4.6715Y-3.234
X4.6715Y-5.034
X4.6715Y-5.134
X4.7715Y-3.134
X4.7715Y-3.234
X4.7715Y-5.034
X4.7715Y-5.134
X4.8715Y-3.134
X4.8715Y-3.234
X4.8715Y-5.034
X4.8715Y-5.134
X4.9715Y-3.134
X4.9715Y-3.234
X4.9715Y-5.034
X4.9715Y-5.134
X5.0715Y-3.134
X5.0715Y-3.234
X5.0715Y-5.034
X5.0715Y-5.134
X5.1715Y-3.134
X5.1715Y-3.234
X5.1715Y-5.034
X5.1715Y-5.134
X5.2715Y-3.134
X5.2715Y-3.234
X5.2715Y-5.034
X5.2715Y-5.134
X5.3715Y-3.134
X5.3715Y-3.234
X5.3715Y-5.034
X5.3715Y-5.134
X5.4715Y-3.134
X5.4715Y-3.234
X5.4715Y-5.034
X5.4715Y-5.134
X5.5715Y-3.134
X5.5715Y-3.234
X5.5715Y-5.034
X5.5715Y-5.134
X5.6715Y-3.134
X5.6715Y-3.234
X5.6715Y-5.034
X5.6715Y-5.134
X5.7715Y-3.134
X5.7715Y-3.234
X5.7715Y-5.034
X5.7715Y-5.134
X5.8715Y-3.134
X5.8715Y-3.234
X5.8715Y-5.034
X5.8715Y-5.134
X5.9715Y-3.134
X5.9715Y-3.234
X5.9715Y-5.034
X5.9715Y-5.134
X6.0715Y-3.134
X6.0715Y-3.234
X6.0715Y-5.034
X6.0715Y-5.134
X6.1715Y-3.134
X6.1715Y-3.234
X6.1715Y-5.034
X6.1715Y-5.134
X6.2715Y-3.134
X6.2715Y-3.234
X6.2715Y-5.034
X6.2715Y-5.134
X6.3715Y-3.134
X6.3715Y-3.234
X6.3715Y-5.034
X6.3715Y-5.134
X6.4715Y-3.134
X6.4715Y-3.234
X6.4715Y-5.034
X6.4715Y-5.134
X6.5715Y-3.134
X6.5715Y-3.234
X6.5715Y-5.034
X6.5715Y-5.134
X6.6715Y-3.134
X6.6715Y-3.234
X6.6715Y-5.034
X6.6715Y-5.134
X6.7715Y-3.134
X6.7715Y-3.234
X6.7715Y-5.034
X6.7715Y-5.134
T0
M30
